<svg xmlns="http://www.w3.org/2000/svg" width="22" height="20" viewBox="0 0 22 20">
  <g id="dashboard" transform="translate(-1 -2)">
    <path id="Trazado_778" data-name="Trazado 778" d="M5,18H3a2,2,0,0,0,0,4H5a2,2,0,0,0,0-4Z" fill="#3e521f"/>
    <path id="Trazado_779" data-name="Trazado 779" d="M13,16H11a2.006,2.006,0,0,0-2,2v2a2.006,2.006,0,0,0,2,2h2a2.006,2.006,0,0,0,2-2V18A2.006,2.006,0,0,0,13,16Z" fill="#3e521f"/>
    <path id="Trazado_780" data-name="Trazado 780" d="M21,12H19a2.006,2.006,0,0,0-2,2v6a2.006,2.006,0,0,0,2,2h2a2.006,2.006,0,0,0,2-2V14A2.006,2.006,0,0,0,21,12Z" fill="#3e521f"/>
    <path id="Trazado_781" data-name="Trazado 781" d="M22,2H15.4a1,1,0,0,0-.7,1.7l1.9,1.9C12.9,9.8,7.6,13,2,13a1,1,0,0,0,0,2c6.7,0,12.9-1.9,17.4-6.6l1.8,1.8a1,1,0,0,0,1.7-.7V3A.827.827,0,0,0,22,2Z" fill="#3e521f"/>
  </g>
</svg>
