<svg xmlns="http://www.w3.org/2000/svg" version="1.1" xmlns:xlink="http://www.w3.org/1999/xlink" xmlns:svgjs="http://svgjs.com/svgjs" width="512" height="512" x="0" y="0" viewBox="0 0 64 64" style="enable-background:new 0 0 512 512" xml:space="preserve" class=""><g><path xmlns="http://www.w3.org/2000/svg" d="m58 8.5h-32c-2.20557 0-4 1.79443-4 4v10h-2v-1.5c0-1.92969-1.57031-3.5-3.5-3.5s-3.5 1.57031-3.5 3.5v1.5h-2c-.30371 0-.59131.13818-.78076.37549l-8 9.99951c-.03668.0459-.05634.10089-.08417.15179-.09161.13922-.13269.30579-.13507.47321v9c0 2.20605 1.79443 4 4 4h2.09033c-.659 3.60419 2.24683 7.03607 5.90973 6.99994 3.66229.03632 6.56927-3.39606 5.90961-6.99994 1.22516.02734 2.34094-.51971 3.09033-1.3822.73376.8399 1.79968 1.3822 3 1.3822h18.09033c-.659 3.60419 2.24683 7.03607 5.90973 6.99994 3.66229.03632 6.56927-3.39606 5.90961-6.99994h2.09033c2.20557 0 4-1.79395 4-4v-30c0-2.20557-1.79443-4-4-4zm-43 12.5c.03546-1.97162 2.96503-1.97076 3 .00006 0-.00006 0 1.49994 0 1.49994h-3zm-3.51953 3.5h5.51953v6c0 1.10254-.89697 2-2 2h-9.91956l6.40002-8zm-7.48047 14h4c.55127 0 1 .44824 1 1s-.44873 1-1 1h-4zm10 13c-5.28625-.16779-5.28503-7.83307.00012-8 5.28619.16772 5.28491 7.83301-.00012 8zm8-9c0 1.10254-.89697 2-2 2h-.81177c-2.14404-3.95068-8.2334-3.94916-10.37646 0h-2.81177c-1.10303 0-2-.89746-2-2h4c1.6543 0 3-1.3457 3-3s-1.3457-3-3-3h-4v-2h11c2.20557 0 4-1.79395 4-4v-6h3zm28 9c-5.28625-.16779-5.28503-7.83307.00012-8 5.28619.16772 5.28491 7.83301-.00012 8zm10-9c0 1.10254-.89697 2-2 2h-2.81177c-2.14404-3.95068-8.2334-3.94916-10.37646 0h-18.81177c-1.10303 0-2-.89746-2-2v-30c0-1.10303.89697-2 2-2h32c1.10303 0 2 .89697 2 2z" fill="#000000" data-original="#000000" class=""></path><path xmlns="http://www.w3.org/2000/svg" d="m57 12.5h-30c-.55225 0-1 .44775-1 1v6c0 .55225.44775 1 1 1h30c.55225 0 1-.44775 1-1v-6c0-.55225-.44775-1-1-1zm-1 6h-28v-4h28z" fill="#000000" data-original="#000000" class=""></path><path xmlns="http://www.w3.org/2000/svg" d="m48.5 28.5h-2.5v-2.5c0-1.37842-1.12158-2.5-2.5-2.5h-3c-1.37842 0-2.5 1.12158-2.5 2.5v2.5h-2.5c-1.37842 0-2.5 1.12109-2.5 2.5v3c0 1.37891 1.12158 2.5 2.5 2.5h2.5v2.5c0 1.37891 1.12158 2.5 2.5 2.5h3c1.37842 0 2.5-1.12109 2.5-2.5v-2.5h2.5c1.37842 0 2.5-1.12109 2.5-2.5v-3c0-1.37891-1.12158-2.5-2.5-2.5zm.5 5.5c0 .27539-.22412.5-.5.5h-3.5c-.55225 0-1 .44727-1 1v3.5c0 .27539-.22412.5-.5.5h-3c-.27588 0-.5-.22461-.5-.5v-3.5c0-.55273-.44775-1-1-1h-3.5c-.27588 0-.5-.22461-.5-.5v-3c0-.27539.22412-.5.5-.5h3.5c.55225 0 1-.44727 1-1v-3.5c0-.27588.22412-.5.5-.5h3c.27588 0 .5.22412.5.5v3.5c0 .55273.44775 1 1 1h3.5c.27588 0 .5.22461.5.5z" fill="#000000" data-original="#000000" class=""></path><path xmlns="http://www.w3.org/2000/svg" d="m58 55.5c1.30878-.02026 1.31903-1.9776-.00006-2h-17.99994c-.55225 0-1 .44727-1 1s.44775 1 1 1z" fill="#000000" data-original="#000000" class=""></path><path xmlns="http://www.w3.org/2000/svg" d="m24 55.5c1.30878-.02026 1.31903-1.9776-.00006-2h-17.99994c-.55225 0-1 .44727-1 1s.44775 1 1 1z" fill="#000000" data-original="#000000" class=""></path><path xmlns="http://www.w3.org/2000/svg" d="m31 55.5c1.3136-.02173 1.315-1.97809 0-2h-3c-1.3136.02173-1.315 1.97809.00006 2-.00006 0 2.99994 0 2.99994 0z" fill="#000000" data-original="#000000" class=""></path></g></svg>