<svg xmlns="http://www.w3.org/2000/svg" width="407.561" height="300.544" viewBox="0 0 407.561 300.544">
  <g id="Medical_prescription-rafiki" data-name="Medical prescription-rafiki" transform="translate(0 -55)">
    <g id="freepik--background-complete--inject-15" transform="translate(0 55)">
      <rect id="Rectángulo_196" data-name="Rectángulo 196" width="26.997" height="0.204" transform="translate(339.727 279.986)" fill="#ebebeb"/>
      <rect id="Rectángulo_197" data-name="Rectángulo 197" width="7.083" height="0.204" transform="translate(262.901 282.204)" fill="#ebebeb"/>
      <rect id="Rectángulo_198" data-name="Rectángulo 198" width="15.642" height="0.204" transform="translate(323.269 272.422)" fill="#ebebeb"/>
      <rect id="Rectángulo_199" data-name="Rectángulo 199" width="35.205" height="0.204" transform="translate(42.761 273.792)" fill="#ebebeb"/>
      <rect id="Rectángulo_200" data-name="Rectángulo 200" width="5.16" height="0.204" transform="translate(85.229 273.792)" fill="#ebebeb"/>
      <rect id="Rectángulo_201" data-name="Rectángulo 201" width="76.361" height="0.204" transform="translate(107.164 277.231)" fill="#ebebeb"/>
      <path id="Trazado_731" data-name="Trazado 731" d="M200.248,285.517H42.864a4.654,4.654,0,0,1-4.654-4.654V59.614A4.654,4.654,0,0,1,42.864,55H200.248a4.654,4.654,0,0,1,4.654,4.654V280.862A4.654,4.654,0,0,1,200.248,285.517ZM42.864,55.163a4.459,4.459,0,0,0-4.451,4.451V280.862a4.459,4.459,0,0,0,4.451,4.451H200.248a4.459,4.459,0,0,0,4.451-4.451V59.614a4.459,4.459,0,0,0-4.451-4.451Z" transform="translate(-7.064 -55)" fill="#ebebeb"/>
      <path id="Trazado_732" data-name="Trazado 732" d="M416.555,285.517h-157.4a4.663,4.663,0,0,1-4.654-4.654V59.614A4.663,4.663,0,0,1,259.154,55h157.4a4.654,4.654,0,0,1,4.638,4.614V280.862A4.654,4.654,0,0,1,416.555,285.517ZM259.154,55.163a4.459,4.459,0,0,0-4.451,4.451V280.862a4.459,4.459,0,0,0,4.451,4.451h157.4a4.459,4.459,0,0,0,4.451-4.451V59.614a4.459,4.459,0,0,0-4.451-4.451Z" transform="translate(-47.051 -55)" fill="#ebebeb"/>
      <rect id="Rectángulo_202" data-name="Rectángulo 202" width="407.561" height="0.204" transform="translate(0 266.871)" fill="#ebebeb"/>
      <path id="Trazado_733" data-name="Trazado 733" d="M242.081,250.348h-2.445V221.085a12.227,12.227,0,0,0-11.412-12.357,12.023,12.023,0,0,0-12.61,11.412.6.6,0,0,1-.6.579h-1.255a.6.6,0,0,1-.6-.611,14.5,14.5,0,0,1,14.216-13.857c8.086-.139,14.672,6.757,14.672,14.852Z" transform="translate(-39.408 -82.962)" fill="#f0f0f0"/>
      <rect id="Rectángulo_203" data-name="Rectángulo 203" width="17.378" height="96.258" transform="translate(343.468 170.581)" fill="#e6e6e6"/>
      <rect id="Rectángulo_204" data-name="Rectángulo 204" width="188.293" height="96.258" transform="translate(159.919 170.581)" fill="#f5f5f5"/>
      <path id="Trazado_734" data-name="Trazado 734" d="M384.483,288.86H196.19v1.63h46.258v74.584h1.63V290.49h44.995v74.584h1.63V290.49h45v74.584h1.63V290.49h47.147Z" transform="translate(-36.271 -98.235)" fill="#e0e0e0"/>
      <path id="Trazado_735" data-name="Trazado 735" d="M246.82,338.957h0a1.63,1.63,0,0,1-1.63-1.63V329.99a1.63,1.63,0,0,1,1.63-1.63h0a1.63,1.63,0,0,1,1.63,1.63v7.336A1.63,1.63,0,0,1,246.82,338.957Z" transform="translate(-45.33 -105.538)" fill="#e6e6e6"/>
      <path id="Trazado_736" data-name="Trazado 736" d="M260.32,338.957h0a1.63,1.63,0,0,1-1.63-1.63V329.99a1.63,1.63,0,0,1,1.63-1.63h0a1.63,1.63,0,0,1,1.63,1.63v7.336A1.63,1.63,0,0,1,260.32,338.957Z" transform="translate(-47.826 -105.538)" fill="#e6e6e6"/>
      <path id="Trazado_737" data-name="Trazado 737" d="M361.23,338.957h0a1.63,1.63,0,0,1-1.63-1.63V329.99a1.63,1.63,0,0,1,1.63-1.63h0a1.63,1.63,0,0,1,1.63,1.63v7.336A1.63,1.63,0,0,1,361.23,338.957Z" transform="translate(-66.482 -105.538)" fill="#e6e6e6"/>
      <path id="Trazado_738" data-name="Trazado 738" d="M374.73,338.957h0a1.63,1.63,0,0,1-1.63-1.63V329.99a1.63,1.63,0,0,1,1.63-1.63h0a1.63,1.63,0,0,1,1.63,1.63v7.336A1.63,1.63,0,0,1,374.73,338.957Z" transform="translate(-68.978 -105.538)" fill="#e6e6e6"/>
      <rect id="Rectángulo_205" data-name="Rectángulo 205" width="21.601" height="4.214" transform="translate(343.322 168.47)" fill="#e0e0e0"/>
      <rect id="Rectángulo_206" data-name="Rectángulo 206" width="193.999" height="4.214" transform="translate(155.843 168.47)" fill="#ebebeb"/>
      <path id="Trazado_739" data-name="Trazado 739" d="M261.28,261.56H196.975a1.565,1.565,0,0,1-1.565-1.565h0a1.565,1.565,0,0,1,1.565-1.565H261.28a1.565,1.565,0,0,1,1.565,1.565h0a1.565,1.565,0,0,1-1.565,1.565Z" transform="translate(-36.127 -92.61)" fill="#e6e6e6"/>
      <rect id="Rectángulo_207" data-name="Rectángulo 207" width="2.437" height="3.097" transform="translate(206.381 163.188)" fill="#e0e0e0"/>
      <path id="Trazado_740" data-name="Trazado 740" d="M256.432,254.921H251.9l.88-5.421h2.771Z" transform="translate(-46.571 -90.959)" fill="#f0f0f0"/>
      <rect id="Rectángulo_208" data-name="Rectángulo 208" width="2.437" height="3.097" transform="translate(194.048 163.188)" fill="#e0e0e0"/>
      <path id="Trazado_741" data-name="Trazado 741" d="M241.31,254.921h-4.54l.888-5.421h2.763Z" transform="translate(-43.773 -90.959)" fill="#f0f0f0"/>
      <rect id="Rectángulo_209" data-name="Rectángulo 209" width="1.467" height="114.419" transform="translate(246.713 14.191)" fill="#e0e0e0"/>
      <rect id="Rectángulo_210" data-name="Rectángulo 210" width="1.467" height="114.419" transform="translate(338.048 14.191)" fill="#e0e0e0"/>
      <path id="Trazado_742" data-name="Trazado 742" d="M399.416,80.075H295.121l-2.2-5.135h108.7Z" transform="translate(-54.154 -58.686)" fill="#ebebeb"/>
      <path id="Trazado_743" data-name="Trazado 743" d="M399.416,88.725H295.121l-2.2-5.135h108.7Z" transform="translate(-54.154 -60.286)" fill="#ebebeb"/>
      <path id="Trazado_744" data-name="Trazado 744" d="M399.416,97.375H295.121l-2.2-5.135h108.7Z" transform="translate(-54.154 -61.885)" fill="#ebebeb"/>
      <path id="Trazado_745" data-name="Trazado 745" d="M399.416,106.025H295.121l-2.2-5.135h108.7Z" transform="translate(-54.154 -63.484)" fill="#ebebeb"/>
      <path id="Trazado_746" data-name="Trazado 746" d="M399.416,114.675H295.121l-2.2-5.135h108.7Z" transform="translate(-54.154 -65.083)" fill="#ebebeb"/>
      <path id="Trazado_747" data-name="Trazado 747" d="M399.416,123.325H295.121l-2.2-5.135h108.7Z" transform="translate(-54.154 -66.682)" fill="#ebebeb"/>
      <path id="Trazado_748" data-name="Trazado 748" d="M399.416,131.975H295.121l-2.2-5.135h108.7Z" transform="translate(-54.154 -68.282)" fill="#ebebeb"/>
      <path id="Trazado_749" data-name="Trazado 749" d="M399.416,140.617H295.121l-2.2-5.127h108.7Z" transform="translate(-54.154 -69.881)" fill="#ebebeb"/>
      <path id="Trazado_750" data-name="Trazado 750" d="M399.416,149.273H295.121l-2.2-5.143h108.7Z" transform="translate(-54.154 -71.478)" fill="#ebebeb"/>
      <path id="Trazado_751" data-name="Trazado 751" d="M399.416,157.915H295.121l-2.2-5.135h108.7Z" transform="translate(-54.154 -73.077)" fill="#ebebeb"/>
      <path id="Trazado_752" data-name="Trazado 752" d="M399.416,166.565H295.121l-2.2-5.135h108.7Z" transform="translate(-54.154 -74.676)" fill="#ebebeb"/>
      <path id="Trazado_753" data-name="Trazado 753" d="M399.416,175.215H295.121l-2.2-5.135h108.7Z" transform="translate(-54.154 -76.276)" fill="#ebebeb"/>
      <path id="Trazado_754" data-name="Trazado 754" d="M399.416,183.865H295.121l-2.2-5.135h108.7Z" transform="translate(-54.154 -77.875)" fill="#ebebeb"/>
      <path id="Trazado_755" data-name="Trazado 755" d="M399.416,192.515H295.121l-2.2-5.135h108.7Z" transform="translate(-54.154 -79.474)" fill="#ebebeb"/>
      <path id="Trazado_756" data-name="Trazado 756" d="M399.416,201.165H295.121l-2.2-5.135h108.7Z" transform="translate(-54.154 -81.073)" fill="#ebebeb"/>
      <path id="Trazado_757" data-name="Trazado 757" d="M399.416,209.815H295.121l-2.2-5.135h108.7Z" transform="translate(-54.154 -82.672)" fill="#ebebeb"/>
      <rect id="Rectángulo_211" data-name="Rectángulo 211" width="108.697" height="2.934" transform="translate(238.766 127.143)" fill="#e0e0e0"/>
      <rect id="Rectángulo_212" data-name="Rectángulo 212" width="116.277" height="6.847" transform="translate(234.975 9.822)" fill="#e0e0e0"/>
      <path id="Trazado_758" data-name="Trazado 758" d="M289.472,142.015h0a1.182,1.182,0,0,1-1.182-1.182V100.892a1.182,1.182,0,0,1,1.182-1.182h0a1.182,1.182,0,0,1,1.182,1.182v39.941a1.182,1.182,0,0,1-1.182,1.182Z" transform="translate(-53.298 -63.266)" fill="#e0e0e0"/>
      <rect id="Rectángulo_213" data-name="Rectángulo 213" width="0.856" height="23.72" transform="translate(235.742 15.3)" fill="#e0e0e0"/>
      <rect id="Rectángulo_214" data-name="Rectángulo 214" width="34.439" height="5.298" transform="translate(133.9 214.459) rotate(180)" fill="#e0e0e0"/>
      <path id="Trazado_759" data-name="Trazado 759" d="M.033,0h37.5V51.948a2.665,2.665,0,0,1-2.665,2.665H2.665A2.665,2.665,0,0,1,0,51.948V0Z" transform="translate(135.971 266.83) rotate(180)" fill="#f0f0f0"/>
      <rect id="Rectángulo_215" data-name="Rectángulo 215" width="37.496" height="8.151" rx="3.61" transform="translate(135.938 210.791) rotate(180)" fill="#f0f0f0"/>
      <path id="Trazado_760" data-name="Trazado 760" d="M153.27,381.436H170.8V378.99l-17.525-1.63Z" transform="translate(-28.336 -114.597)" fill="#e0e0e0"/>
      <path id="Trazado_761" data-name="Trazado 761" d="M403.4,222.12H388.226a5.624,5.624,0,0,0-5.616,5.616v1.875h3.024v-1.883a2.592,2.592,0,0,1,2.592-2.6H403.4a2.6,2.6,0,0,1,2.592,2.6V229.6h3.024v-1.875a5.616,5.616,0,0,0-5.616-5.608Z" transform="translate(-70.736 -85.897)" fill="#e0e0e0"/>
      <path id="Trazado_762" data-name="Trazado 762" d="M419.94,235.416v17a4.076,4.076,0,0,1-4.076,4.076H378.956a4.076,4.076,0,0,1-4.076-4.076v-17a4.076,4.076,0,0,1,4.076-4.076h36.876a4.076,4.076,0,0,1,4.108,4.076Z" transform="translate(-69.307 -87.601)" fill="#e6e6e6"/>
      <path id="Trazado_763" data-name="Trazado 763" d="M412.89,235.416v17a4.076,4.076,0,0,1-4.076,4.076H371.906a4.076,4.076,0,0,1-4.076-4.076v-17a4.076,4.076,0,0,1,4.076-4.076h36.876a4.076,4.076,0,0,1,4.108,4.076Z" transform="translate(-68.003 -87.601)" fill="#f5f5f5"/>
      <rect id="Rectángulo_216" data-name="Rectángulo 216" width="19.245" height="19.245" transform="translate(312.86 146.632)" fill="#fff"/>
      <rect id="Rectángulo_217" data-name="Rectángulo 217" width="3.252" height="11.192" transform="translate(320.873 150.961)" fill="#e0e0e0"/>
      <rect id="Rectángulo_218" data-name="Rectángulo 218" width="3.252" height="11.192" transform="translate(316.903 158.175) rotate(-90)" fill="#e0e0e0"/>
    </g>
    <g id="freepik--Shadow--inject-15" transform="translate(41.808 337.09)">
      <ellipse id="freepik--path--inject-15" cx="158.044" cy="9.227" rx="158.044" ry="9.227" fill="#f5f5f5"/>
    </g>
    <g id="freepik--Character--inject-15" transform="translate(144.15 153.622)">
      <path id="Trazado_764" data-name="Trazado 764" d="M341.17,237.11c.538-.065,16.123,1.475,17.118,18.177l-2.665,11.575h0a54.01,54.01,0,0,0-38.955.522l-.187.082,1.084-13.221S321.558,239.408,341.17,237.11Z" transform="translate(-202.66 -187.29)" fill="#263238"/>
      <path id="Trazado_765" data-name="Trazado 765" d="M306.62,317.559l3.13.269a538.316,538.316,0,0,1,6.725-59.3,24.388,24.388,0,0,1,10.352-15.7,16.1,16.1,0,0,1,3.668-1.981,20.223,20.223,0,0,1,7.573-1.63h0a22.856,22.856,0,0,1,3.161.22,16.384,16.384,0,0,1,6.613,2.568,31.908,31.908,0,0,1,2.674,2.29,14.421,14.421,0,0,1,1.247,1.475,17.272,17.272,0,0,1,2.674,13.7,491.338,491.338,0,0,0-6.937,54.254l3.13.212a488.235,488.235,0,0,1,6.839-53.831,20.378,20.378,0,0,0-3.2-16.2,18.943,18.943,0,0,0-14.02-7.923c-12.227-.815-24.951,9.121-26.834,21.87a543.5,543.5,0,0,0-6.79,59.7Z" transform="translate(-200.837 -187.075)" fill="#263238"/>
      <path id="Trazado_766" data-name="Trazado 766" d="M306.62,317.559l3.13.269a538.316,538.316,0,0,1,6.725-59.3,24.388,24.388,0,0,1,10.352-15.7,16.1,16.1,0,0,1,3.668-1.981,20.223,20.223,0,0,1,7.573-1.63h0a22.856,22.856,0,0,1,3.161.22,16.384,16.384,0,0,1,6.613,2.568,31.908,31.908,0,0,1,2.674,2.29,14.421,14.421,0,0,1,1.247,1.475,17.272,17.272,0,0,1,2.674,13.7,491.338,491.338,0,0,0-6.937,54.254l3.13.212a488.235,488.235,0,0,1,6.839-53.831,20.378,20.378,0,0,0-3.2-16.2,18.943,18.943,0,0,0-14.02-7.923c-12.227-.815-24.951,9.121-26.834,21.87a543.5,543.5,0,0,0-6.79,59.7Z" transform="translate(-200.837 -187.075)" fill="#fff" opacity="0.3"/>
      <path id="Trazado_767" data-name="Trazado 767" d="M0,0H72.008V1.671a5.975,5.975,0,0,1-5.975,5.975H5.983A5.975,5.975,0,0,1,.008,1.671V0Z" transform="translate(149.849 128.593) rotate(180)" fill="#263238"/>
      <path id="Trazado_768" data-name="Trazado 768" d="M356.742,396.655h3.823l-3.13-62.895H352.56Z" transform="translate(-209.33 -205.159)" fill="#263238"/>
      <path id="Trazado_769" data-name="Trazado 769" d="M356.742,396.655h3.823l-3.13-62.895H352.56Z" transform="translate(-209.33 -205.159)" fill="#fff" opacity="0.3"/>
      <path id="Trazado_770" data-name="Trazado 770" d="M325.61,396.655h3.823l-2.087-62.895H322.48Z" transform="translate(-203.769 -205.159)" fill="#263238"/>
      <path id="Trazado_771" data-name="Trazado 771" d="M325.61,396.655h3.823l-2.087-62.895H322.48Z" transform="translate(-203.769 -205.159)" fill="#fff" opacity="0.3"/>
      <path id="Trazado_772" data-name="Trazado 772" d="M302,396.655h3.823l3.13-62.895h-4.866Z" transform="translate(-199.983 -205.159)" fill="#263238"/>
      <path id="Trazado_773" data-name="Trazado 773" d="M302,396.655h3.823l3.13-62.895h-4.866Z" transform="translate(-199.983 -205.159)" fill="#fff" opacity="0.3"/>
      <path id="Trazado_774" data-name="Trazado 774" d="M270.63,396.655h3.831l4.173-62.895H273.76Z" transform="translate(-194.183 -205.159)" fill="#263238"/>
      <path id="Trazado_775" data-name="Trazado 775" d="M270.63,396.655h3.831l4.173-62.895H273.76Z" transform="translate(-194.183 -205.159)" fill="#fff" opacity="0.3"/>
      <rect id="Rectángulo_219" data-name="Rectángulo 219" width="42.786" height="5.567" transform="translate(117.488 131.381) rotate(180)" fill="#263238"/>
      <rect id="Rectángulo_220" data-name="Rectángulo 220" width="42.786" height="5.567" transform="translate(117.488 131.381) rotate(180)" fill="#fff" opacity="0.7"/>
      <rect id="Rectángulo_221" data-name="Rectángulo 221" width="35.499" height="5.567" transform="translate(152.987 131.381) rotate(180)" fill="#263238"/>
      <rect id="Rectángulo_222" data-name="Rectángulo 222" width="35.499" height="5.567" transform="translate(152.987 131.381) rotate(180)" fill="#fff" opacity="0.4"/>
      <path id="Trazado_776" data-name="Trazado 776" d="M294.009,224.341c-7.776,1.532-23.182,8.151-23.28,7.793,0,0-12.969-3.073-18.3-8.966,0,0-5.095-.628-7.76-1.157,1.932,4.557,5.706,10.083,9.9,12.716,5.323,3.342,6.774,4.353,12.039,6.358,6.586,2.511,16.669-.155,23.2-2.828,2.4-.986,4.891-2.242,6.285-4.426S296.169,225.8,294.009,224.341Z" transform="translate(-189.383 -184.499)" fill="#91a227"/>
      <path id="Trazado_777" data-name="Trazado 777" d="M294.009,224.341c-7.776,1.532-23.182,8.151-23.28,7.793,0,0-12.969-3.073-18.3-8.966,0,0-5.095-.628-7.76-1.157,1.932,4.557,5.706,10.083,9.9,12.716,5.323,3.342,6.774,4.353,12.039,6.358,6.586,2.511,16.669-.155,23.2-2.828,2.4-.986,4.891-2.242,6.285-4.426S296.169,225.8,294.009,224.341Z" transform="translate(-189.383 -184.499)" fill="#fff" opacity="0.7"/>
      <path id="Trazado_778" data-name="Trazado 778" d="M275.288,217.726H255.913c-2.706-9.781,2.714-19.62,0-29.426h19.375C278,198.106,272.574,207.92,275.288,217.726Z" transform="translate(-191.318 -178.267)" fill="#91a227"/>
      <g id="Grupo_454" data-name="Grupo 454" transform="translate(63.815 10.033)" opacity="0.7">
        <path id="Trazado_779" data-name="Trazado 779" d="M275.288,217.726H255.913c-2.706-9.781,2.714-19.62,0-29.426h19.375C278,198.106,272.574,207.92,275.288,217.726Z" transform="translate(-255.133 -188.3)" fill="#fff"/>
      </g>
      <path id="Trazado_780" data-name="Trazado 780" d="M257.07,216.848l-3.106,1.492a5.1,5.1,0,0,1-1.875,2.519,13.212,13.212,0,0,1-2.755,1.166,3.733,3.733,0,0,1-3.913-1.084,1.484,1.484,0,0,1-.31-1.63l2.975-5.559a2.29,2.29,0,0,1,1.671-1.182l4.891-.774a1.7,1.7,0,0,1,1.63.644l1.435,1.883a1.687,1.687,0,0,1-.644,2.527Z" transform="translate(-189.443 -182.606)" fill="#ce7a63"/>
      <path id="Trazado_781" data-name="Trazado 781" d="M331.693,281.238l4.589,16.743-25.2,5.4-15.218-8.062,4.255-14.4Z" transform="translate(-198.847 -195.39)" fill="#91a227"/>
      <path id="Trazado_782" data-name="Trazado 782" d="M331.693,281.238l4.589,16.743-25.2,5.4-15.218-8.062,4.255-14.4Z" transform="translate(-198.847 -195.39)" opacity="0.1"/>
      <g id="freepik--freepik--Character--inject-5--inject-15" transform="translate(90.695)">
        <path id="Trazado_783" data-name="Trazado 783" d="M297.989,234.094a63.391,63.391,0,0,0-.057,12.912c.236,5.771,1.492,11.836,3.065,21.193,3.155,1.85,19.139,1.084,29.344-.236-.62-8.151.4-17.541,5.942-35.955a6.8,6.8,0,0,0-6.162-8.8c-1.223-.122-2.527-.22-3.856-.277a105.89,105.89,0,0,0-14.02,0c-1.492.139-3.106.318-4.614.505C302.195,224.126,298.991,228.315,297.989,234.094Z" transform="translate(-289.87 -184.625)" fill="#91a227"/>
        <path id="Trazado_784" data-name="Trazado 784" d="M300.948,280.183a138.946,138.946,0,0,0,31.015-.065.742.742,0,0,0,.562-.888v-.1c-.253-.6-.514-1.19-.75-1.785a.652.652,0,0,0-.668-.408,137.088,137.088,0,0,1-29.817,0,.66.66,0,0,0-.742.571.106.106,0,0,1,0,.049c-.065.62-.122,1.231-.179,1.85a.693.693,0,0,0,.611.774Z" transform="translate(-290.375 -194.653)" fill="#91a227"/>
        <path id="Trazado_785" data-name="Trazado 785" d="M310.118,222.67c-7.621,9.781-8.151,33.958-6.236,81.447.171,4.141-3.8,3.839-7.687,3.04-5.787-1.2-8.086-.766-8.086-.766s9.235-24.25,7.735-46-.456-29.434,3.073-33.42S310.118,222.67,310.118,222.67Z" transform="translate(-288.11 -184.621)" fill="#91a227"/>
        <path id="Trazado_786" data-name="Trazado 786" d="M310.118,222.67c-7.621,9.781-8.151,33.958-6.236,81.447.163,4.141-3.6,3.693-7.695,3.04a47.387,47.387,0,0,0-8.078-.766s9.235-24.25,7.735-46-.456-29.434,3.073-33.42S310.118,222.67,310.118,222.67Z" transform="translate(-288.11 -184.621)" fill="#fff" opacity="0.7"/>
        <path id="Trazado_787" data-name="Trazado 787" d="M328.432,203.6c-1.215,4.491-2.714,12.781.22,15.8,0,0-3.872,3.106-12.08,6.1-2.445-.628-1.932-6.1-1.932-6.1,5.127-1.206,5.274-4.891,4.654-8.437Z" transform="translate(-293.006 -181.095)" fill="#ce7a63"/>
        <path id="Trazado_788" data-name="Trazado 788" d="M325.771,207.28l-5.421,4.353a14.115,14.115,0,0,1,.245,2.445c1.948-.277,4.744-2.38,5.1-4.4a6.994,6.994,0,0,0,.073-2.4Z" transform="translate(-294.07 -181.776)" opacity="0.2"/>
        <path id="Trazado_789" data-name="Trazado 789" d="M318.642,182.558a34.357,34.357,0,0,0-6.415,25.122c-2.576-4.891-4.891-2.225-5.078-7.736-.082-2.771,1.361-14.012,2.592-16.5s3.75-4.491,6.521-4.377a3.9,3.9,0,0,1,2.682,1.092C319.621,180.887,319.254,181.767,318.642,182.558Z" transform="translate(-291.629 -176.559)" fill="#263238"/>
        <path id="Trazado_790" data-name="Trazado 790" d="M331.355,189.869c-1.361,7.287-1.793,10.4-5.975,13.857-6.26,5.233-14.852,2.445-15.7-4.948-.742-6.692,1.63-17.484,9.138-19.889a9.5,9.5,0,0,1,12.537,10.947Z" transform="translate(-292.074 -176.42)" fill="#ce7a63"/>
        <path id="Trazado_791" data-name="Trazado 791" d="M320.448,194.257c-.171.6-.636,1.011-1.011.929s-.562-.636-.391-1.231.636-1.019,1.019-.937S320.627,193.654,320.448,194.257Z" transform="translate(-293.818 -179.137)" fill="#263238"/>
        <path id="Trazado_792" data-name="Trazado 792" d="M312.848,192.428c-.171.6-.628,1.011-1.011.929s-.562-.644-.383-1.231.628-1.019,1.011-.929S313.027,191.849,312.848,192.428Z" transform="translate(-292.413 -178.8)" fill="#263238"/>
        <path id="Trazado_793" data-name="Trazado 793" d="M312.614,191.115l-1.3-.725S311.718,191.7,312.614,191.115Z" transform="translate(-292.399 -178.653)" fill="#263238"/>
        <path id="Trazado_794" data-name="Trazado 794" d="M314.58,194.46a18.429,18.429,0,0,1-3.22,3.35,2.445,2.445,0,0,0,1.989.864Z" transform="translate(-292.408 -179.405)" fill="#ba4d3c"/>
        <path id="Trazado_795" data-name="Trazado 795" d="M316.92,202.9a5.306,5.306,0,0,1-1.011-.147.163.163,0,0,1-.13-.2h0a.2.2,0,0,1,.228-.13,5.184,5.184,0,0,0,4.361-1.019.179.179,0,0,1,.253,0h0a.187.187,0,0,1,0,.253h0a5.453,5.453,0,0,1-3.7,1.247Z" transform="translate(-293.224 -180.679)" fill="#263238"/>
        <path id="Trazado_796" data-name="Trazado 796" d="M314.5,179.438c2.282-3.138,8.485-3.994,12.121-3.13,12.879,3.073,6.969,13.776,14.428,19.791-2.168,3.888-4.255,3.065-6.782,4.817-1.475,1.027-5.388,4.23-7.157,4.076.09-3.644,1.687-7.833.946-11.412a20.639,20.639,0,0,0-4.557-9.651C321.127,181.321,317.923,179.259,314.5,179.438Z" transform="translate(-292.989 -175.991)" fill="#263238"/>
        <path id="Trazado_797" data-name="Trazado 797" d="M314.5,179.438c2.282-3.138,8.485-3.994,12.121-3.13,12.879,3.073,6.969,13.776,14.428,19.791-2.168,3.888-4.255,3.065-6.782,4.817-1.475,1.027-5.388,4.23-7.157,4.076.09-3.644,1.687-7.833.946-11.412a20.639,20.639,0,0,0-4.557-9.651C321.127,181.321,317.923,179.259,314.5,179.438Z" transform="translate(-292.989 -175.991)" opacity="0.2"/>
        <path id="Trazado_798" data-name="Trazado 798" d="M314.5,179.438c2.282-3.138,8.485-3.994,12.121-3.13,12.879,3.073,6.969,13.776,14.428,19.791-2.168,3.888-4.255,3.065-6.782,4.817-1.475,1.027-5.388,4.23-7.157,4.076.09-3.644,1.687-7.833.946-11.412a20.639,20.639,0,0,0-4.557-9.651C321.127,181.321,317.923,179.259,314.5,179.438Z" transform="translate(-292.989 -175.991)" fill="#263238"/>
        <path id="Trazado_799" data-name="Trazado 799" d="M314.5,179.438c2.282-3.138,8.485-3.994,12.121-3.13,12.879,3.073,6.969,13.776,14.428,19.791-2.168,3.888-4.255,3.065-6.782,4.817-1.475,1.027-5.388,4.23-7.157,4.076.09-3.644,1.687-7.833.946-11.412a20.639,20.639,0,0,0-4.557-9.651C321.127,181.321,317.923,179.259,314.5,179.438Z" transform="translate(-292.989 -175.991)" opacity="0.1"/>
        <path id="Trazado_800" data-name="Trazado 800" d="M334.587,200.491a5.062,5.062,0,0,1-3.407,2.315c-1.736.245-2.242-1.777-1.435-3.635.75-1.63,2.486-3.815,4.076-3.2S335.589,198.9,334.587,200.491Z" transform="translate(-295.738 -179.666)" fill="#ce7a63"/>
        <path id="Trazado_801" data-name="Trazado 801" d="M323.657,191.034a.285.285,0,0,1-.187-.187,2.673,2.673,0,0,0-1.883-1.687.326.326,0,0,1-.277-.367.073.073,0,0,1,0-.041.383.383,0,0,1,.44-.293,3.3,3.3,0,0,1,2.4,2.111.373.373,0,0,1-.489.465Z" transform="translate(-294.247 -178.295)" fill="#263238"/>
        <path id="Trazado_802" data-name="Trazado 802" d="M311.426,188.016a.334.334,0,0,1-.179-.611,3.815,3.815,0,0,1,3.26-.929.351.351,0,0,1,.245.416h0a.4.4,0,0,1-.465.253,3.04,3.04,0,0,0-2.559.758.391.391,0,0,1-.3.114Z" transform="translate(-292.36 -177.918)" fill="#263238"/>
        <path id="Trazado_803" data-name="Trazado 803" d="M320.214,192.945l-1.3-.725S319.318,193.5,320.214,192.945Z" transform="translate(-293.804 -178.991)" fill="#263238"/>
      </g>
      <path id="Trazado_804" data-name="Trazado 804" d="M315.518,179.673a6.874,6.874,0,0,0-1.3,2.054,2.763,2.763,0,0,0,.13,2.356,3.448,3.448,0,0,0,1.679,1.288,9.783,9.783,0,0,0,2.079.644,2.527,2.527,0,0,1-.815-2.633,3.26,3.26,0,0,0,1.532,2.242c.734.432,1.557.668,2.315,1.052,2.388,1.2,6.839,7.475,3.546,20.525,2.91-1.076,6.994-11.322,6.317-14.354s-.815-10.825-8.567-13.547C320.335,178.573,317.646,179.07,315.518,179.673Z" transform="translate(-202.203 -176.536)" fill="#263238"/>
      <path id="Trazado_805" data-name="Trazado 805" d="M267.141,397.843l-7,.677-4.149-19.726,8.257-.954Z" transform="translate(-191.476 -213.308)" fill="#ce7a63"/>
      <path id="Trazado_806" data-name="Trazado 806" d="M254.633,400.839a3.725,3.725,0,0,1,2.445-1.109l7.507-.522a.66.66,0,0,1,.734.546l1.451,6.969a1.483,1.483,0,0,1-1.125,1.761h-.033c-2.837.734-4.622.139-8.966.44-2.674.187-8.355,1.247-12,.644s-3.179-4.214-1.63-4.288A18.981,18.981,0,0,0,254.633,400.839Z" transform="translate(-188.864 -217.258)" fill="#263238"/>
      <g id="Grupo_455" data-name="Grupo 455" transform="translate(64.514 164.54)" opacity="0.2">
        <path id="Trazado_807" data-name="Trazado 807" d="M255.99,378.8l2.413,11.469,7.426-1.549-1.573-10.874Z" transform="translate(-255.99 -377.85)"/>
      </g>
      <path id="Trazado_808" data-name="Trazado 808" d="M296.733,321.759h-.856a11.992,11.992,0,0,1-1.426-.106l-37.5-2.005c6.056,5.551,7.051,50.032,7.051,50.032l-1.793.383-8.151,1.736h0l-1.492.318s-3.4-14.566-7.336-31.276c-1.989-8.461-4.565-17.207-5.706-25.6a57.872,57.872,0,0,1-.538-6.733c0-.693,0-1.378,0-2.062a1.846,1.846,0,0,1,0-.212,3.243,3.243,0,0,1,.065-.815,7.337,7.337,0,0,1,1.63-3.684l.277-.318a3.4,3.4,0,0,1,.293-.3,8.379,8.379,0,0,1,.619-.579c.228-.187.456-.375.7-.554l.628-.432c.261-.163.522-.318.815-.473a4.168,4.168,0,0,1,.424-.22c.424-.228.864-.44,1.329-.636l.4-.171.546-.2c.163-.073.326-.13.489-.187.5-.179,1.011-.35,1.541-.489l.269-.082h.073c14.224-4.027,38.417-.921,38.417-.921s6.391-4.728,13.181-5.624l.962.106,3.024.334a.736.736,0,0,1,.13,0C314.8,308.4,308.6,321.629,296.733,321.759Z" transform="translate(-188.333 -197.168)" fill="#91a227"/>
      <g id="Grupo_456" data-name="Grupo 456" transform="translate(50.654 93.372)" opacity="0.1">
        <path id="Trazado_809" data-name="Trazado 809" d="M296.733,321.759h-.856a11.992,11.992,0,0,1-1.426-.106l-37.5-2.005c6.056,5.551,7.051,50.032,7.051,50.032l-1.793.383-8.151,1.736h0l-1.492.318s-3.4-14.566-7.336-31.276c-1.989-8.461-4.565-17.207-5.706-25.6a57.872,57.872,0,0,1-.538-6.733c0-.693,0-1.378,0-2.062a1.846,1.846,0,0,1,0-.212,3.243,3.243,0,0,1,.065-.815,7.337,7.337,0,0,1,1.63-3.684l.277-.318a3.4,3.4,0,0,1,.293-.3,8.379,8.379,0,0,1,.619-.579c.228-.187.456-.375.7-.554l.628-.432c.261-.163.522-.318.815-.473a4.168,4.168,0,0,1,.424-.22c.424-.228.864-.44,1.329-.636l.4-.171.546-.2c.163-.073.326-.13.489-.187.5-.179,1.011-.35,1.541-.489l.269-.082h.073c14.224-4.027,38.417-.921,38.417-.921s6.391-4.728,13.181-5.624l.962.106,3.024.334a.736.736,0,0,1,.13,0C314.8,308.4,308.6,321.629,296.733,321.759Z" transform="translate(-238.986 -290.54)"/>
      </g>
      <path id="Trazado_810" data-name="Trazado 810" d="M209.637,359.181l-2.005,3.073-4.467,6.847-7.475.783,5.665-11.9,3.847-8.1Z" transform="translate(-180.328 -208.139)" fill="#ce7a63"/>
      <path id="Trazado_811" data-name="Trazado 811" d="M194.089,367.6l6.187,3.864a.652.652,0,0,1,.285.815l-3.032,7.075a1.443,1.443,0,0,1-1.94.636h-.041c-2.886-1.753-4.182-2.739-7.841-4.891l-9.1-5.282c-3.114-1.826-1.435-4.972.041-4.491,6.521,2.168,10.947,2.445,13.857,1.989A2.339,2.339,0,0,1,194.089,367.6Z" transform="translate(-176.844 -210.986)" fill="#263238"/>
      <g id="Grupo_457" data-name="Grupo 457" transform="translate(21.027 141.741)" opacity="0.2">
        <path id="Trazado_812" data-name="Trazado 812" d="M210.922,359.181l-2,3.073h-.008l-6.276-4.271,3.847-8.1Z" transform="translate(-202.64 -349.88)"/>
      </g>
      <path id="Trazado_813" data-name="Trazado 813" d="M292.383,319.783a17.432,17.432,0,0,1-2.445-.473c-.277-.065-.562-.147-.856-.236-6.88-1.981-16.783-7.4-26-12.74-8.494-4.891-16.376-9.781-20.745-11.77h-.073l-.269.082c-.53.147-1.043.318-1.541.5a3.95,3.95,0,0,0-.489.179l-.546.2-.4.171c-.465.2-.9.416-1.329.636-.147.065-.285.147-.424.22-.277.155-.538.31-.815.473l-.628.44c-.245.179-.473.359-.7.546a8.386,8.386,0,0,0-.619.579c-.106.1-.2.2-.293.3l-.277.318a7.336,7.336,0,0,0-1.63,3.684c0,.277-.057.562-.065.815v2.062a58.6,58.6,0,0,0,.514,6.774v.171c-10.238,18.463-20.883,35.205-20.883,35.205l-1.81-1.247-6.521-4.467-1.125-.815s11.363-26.622,19.18-50.342a21.642,21.642,0,0,1,20.737-14.9c19.294.171,44.628,10.833,44.628,10.833l6.953.742.962.106,3.024.334a.733.733,0,0,1,.13,0c1.63.179,3.456.31,5.225.44a9.455,9.455,0,0,1,8.445,6.953C316.878,314.452,304.545,321.275,292.383,319.783Z" transform="translate(-181.571 -194.508)" fill="#91a227"/>
      <path id="Trazado_814" data-name="Trazado 814" d="M292.383,319.783a17.432,17.432,0,0,1-2.445-.473c-.277-.065-.562-.147-.856-.236-6.88-1.981-16.783-7.4-26-12.74-8.494-4.891-16.376-9.781-20.745-11.77h-.073l-.269.082c-.53.147-1.043.318-1.541.5a3.95,3.95,0,0,0-.489.179l-.546.2-.4.171c-.465.2-.9.416-1.329.636-.147.065-.285.147-.424.22-.277.155-.538.31-.815.473l-.628.44c-.245.179-.473.359-.7.546a8.386,8.386,0,0,0-.619.579c-.106.1-.2.2-.293.3l-.277.318a7.336,7.336,0,0,0-1.63,3.684c0,.277-.057.562-.065.815v2.062a58.6,58.6,0,0,0,.514,6.774v.171c-10.238,18.463-20.883,35.205-20.883,35.205l-1.81-1.247-6.521-4.467-1.125-.815s11.363-26.622,19.18-50.342a21.642,21.642,0,0,1,20.737-14.9c19.294.171,44.628,10.833,44.628,10.833l6.953.742.962.106,3.024.334a.733.733,0,0,1,.13,0c1.63.179,3.456.31,5.225.44a9.455,9.455,0,0,1,8.445,6.953C316.878,314.452,304.545,321.275,292.383,319.783Z" transform="translate(-181.571 -194.508)" fill="#91a227"/>
      <path id="Trazado_815" data-name="Trazado 815" d="M251.279,298.49h0l-.269.073Z" transform="translate(-190.556 -198.638)" fill="#91a227"/>
      <path id="Trazado_816" data-name="Trazado 816" d="M330.336,222.12s-5.306,4.711-6.888,16.082c-2.527,18.332-1.206,53.676-.261,73.866a4.377,4.377,0,0,0,5.918,3.88c6.3-2.348,16.6-.505,21.193-4.491.334-6.081-10.246-37.153-9.219-53.236s3.032-30.094.954-33.127S330.336,222.12,330.336,222.12Z" transform="translate(-203.678 -184.519)" fill="#91a227"/>
      <path id="Trazado_817" data-name="Trazado 817" d="M330.349,222.12s-5.306,4.711-6.888,16.082c-2.527,18.332-1.068,53.676-.114,73.866a4.369,4.369,0,0,0,5.91,3.88c6.3-2.348,16.457-.505,21.079-4.491.334-6.081-10.246-37.153-9.219-53.236s3.032-30.094.954-33.127S330.349,222.12,330.349,222.12Z" transform="translate(-203.69 -184.519)" fill="#fff" opacity="0.7"/>
      <path id="Trazado_818" data-name="Trazado 818" d="M329.927,246.8a.272.272,0,0,1-.106-.514l1.133-.554a5.779,5.779,0,0,0,3.26-5.706L333.293,229a3.668,3.668,0,0,0-7.051-1.084l-4.206,10.222a5.8,5.8,0,0,0,1.361,6.431l.921.872a.277.277,0,0,1,0,.383.269.269,0,0,1-.383,0l-.921-.872a6.325,6.325,0,0,1-1.467-7.035l4.239-10.2a4.214,4.214,0,0,1,8.094,1.255l.913,11.012a6.317,6.317,0,0,1-3.595,6.228l-1.133.546a.2.2,0,0,1-.139.041Z" transform="translate(-203.505 -185.073)" fill="#263238"/>
      <path id="Trazado_819" data-name="Trazado 819" d="M334.59,231.881a.277.277,0,0,1-.261-.245,4.361,4.361,0,0,0-8.053-1.255.277.277,0,1,1-.514-.187h0a4.891,4.891,0,0,1,9.089,1.41.269.269,0,0,1-.236.293Z" transform="translate(-204.369 -185.542)" fill="#263238"/>
      <path id="Trazado_820" data-name="Trazado 820" d="M331.92,224.618h0a.261.261,0,0,1-.245-.285h0c.114-1.329,0-3.758-1.247-4.418a.27.27,0,1,1,.261-.473h0c1.793.978,1.532,4.532,1.492,4.94a.261.261,0,0,1-.261.236Z" transform="translate(-205.212 -184.018)" fill="#263238"/>
      <path id="Trazado_821" data-name="Trazado 821" d="M325.282,250.161c-.082.514-.416.88-.75.815s-.538-.5-.456-1,.408-.88.742-.815S325.356,249.664,325.282,250.161Z" transform="translate(-204.061 -189.517)" fill="#263238"/>
      <path id="Trazado_822" data-name="Trazado 822" d="M332.414,251.28c-.073.5-.408.864-.742.815s-.538-.505-.456-1.011.408-.864.742-.815S332.5,250.766,332.414,251.28Z" transform="translate(-205.381 -189.722)" fill="#263238"/>
      <path id="Trazado_823" data-name="Trazado 823" d="M314.037,237.994c-.277,1.133-1.109,1.907-1.826,1.728s-1.125-1.223-.815-2.388,1.109-1.907,1.826-1.72S314.314,236.861,314.037,237.994Z" transform="translate(-201.7 -187.008)" fill="#263238"/>
      <path id="Trazado_824" data-name="Trazado 824" d="M311.75,234.667h-.057a.269.269,0,0,1-.253-.285c.285-4.565,3-12.121,5.975-14.591a.261.261,0,0,1,.383,0,.269.269,0,0,1,0,.383.2.2,0,0,1-.065.049c-2.869,2.445-5.51,9.708-5.779,14.2a.261.261,0,0,1-.2.245Z" transform="translate(-201.728 -184.073)" fill="#263238"/>
      <path id="Trazado_825" data-name="Trazado 825" d="M315.046,238.224c-.187.97-.9,1.63-1.63,1.524a1.63,1.63,0,0,1-.962-2c.179-.978.9-1.63,1.63-1.524A1.63,1.63,0,0,1,315.046,238.224Z" transform="translate(-201.902 -187.125)" fill="#fff"/>
      <path id="Trazado_826" data-name="Trazado 826" d="M315.243,238.246c-.253,1.2-.913,2.079-1.459,1.964s-.815-1.19-.522-2.4.913-2.079,1.459-1.956S315.472,237.039,315.243,238.246Z" transform="translate(-202.042 -187.057)" fill="#263238"/>
      <path id="Trazado_827" data-name="Trazado 827" d="M297.322,264.342l-17,.31A1.329,1.329,0,0,1,279,263.5l-3.26-26.019a1.043,1.043,0,0,1,1.035-1.19L293.8,236a1.329,1.329,0,0,1,1.321,1.149l3.26,26.019a1.043,1.043,0,0,1-1.06,1.174Z" transform="translate(-195.125 -187.085)" fill="#263238"/>
      <path id="Trazado_828" data-name="Trazado 828" d="M288.916,237.761l-4.076.073a1.63,1.63,0,0,1-1.63-1.435l-.31-2.429,7.01-.13.293,2.4a1.3,1.3,0,0,1-1.288,1.524Z" transform="translate(-196.451 -186.686)" fill="#263238"/>
      <path id="Trazado_829" data-name="Trazado 829" d="M288.916,237.761l-4.076.073a1.63,1.63,0,0,1-1.63-1.435l-.31-2.429,7.01-.13.293,2.4a1.3,1.3,0,0,1-1.288,1.524Z" transform="translate(-196.451 -186.686)" fill="#fff" opacity="0.7"/>
      <path id="Trazado_830" data-name="Trazado 830" d="M298.675,236.05h-.815a1.345,1.345,0,0,1,1.32,1.149l3.26,26.027a1.043,1.043,0,0,1-1.035,1.19h.815a1.035,1.035,0,0,0,1.027-1.19l-3.26-26.027a1.345,1.345,0,0,0-1.312-1.149Z" transform="translate(-199.217 -187.094)" fill="#fff"/>
      <path id="Trazado_831" data-name="Trazado 831" d="M338.218,230.46c.253.554-5.258,22.514-5.258,22.514l4.2,1.85Z" transform="translate(-205.706 -186.061)" opacity="0.2"/>
      <path id="Trazado_832" data-name="Trazado 832" d="M341.872,243.58c-.954,8.616-1.834,11.982-2.445,12.92-3.163,11.681-13.221,5.8-14.672,5.323-2.511-.815-5.1-2.527-7.5-3.635-4.663-2.111-9.064-3.782-13.425-6.464l2.233-4.817s16.734,3.635,18.927,4.076c.954.212,5.706.994,5.6-1.557.489-.864.921-15.626,2.29-21.519a5,5,0,0,1,.856-1.826l.139-.179c.913-1.239,1.516-1.231,3.187-1.166,3.644.147,5.363,2.959,5.747,6.586h0C343.168,234.728,342.279,240.222,341.872,243.58Z" transform="translate(-200.321 -184.998)" fill="#91a227"/>
      <g id="Grupo_458" data-name="Grupo 458" transform="translate(103.509 39.714)" opacity="0.7">
        <path id="Trazado_833" data-name="Trazado 833" d="M341.872,243.58c-.954,8.616-1.834,11.982-2.445,12.92-3.163,11.681-13.221,5.8-14.672,5.323-2.511-.815-5.1-2.527-7.5-3.635-4.663-2.111-9.064-3.782-13.425-6.464l2.233-4.817s16.734,3.635,18.927,4.076c.954.212,5.706.994,5.6-1.557.489-.864.921-15.626,2.29-21.519a5,5,0,0,1,.856-1.826l.139-.179c.913-1.239,1.516-1.231,3.187-1.166,3.644.147,5.363,2.959,5.747,6.586h0C343.168,234.728,342.279,240.222,341.872,243.58Z" transform="translate(-303.83 -224.712)" fill="#fff"/>
      </g>
      <path id="Trazado_834" data-name="Trazado 834" d="M305.006,252h0a4.394,4.394,0,0,1-3.619,5.3,18.746,18.746,0,0,1-4.027.155l-.31-8.273,6.333,1.239A2.062,2.062,0,0,1,305.006,252Z" transform="translate(-199.067 -189.522)" fill="#ce7a63"/>
      <path id="Trazado_835" data-name="Trazado 835" d="M295.5,249.18l.334,8.3-3.073.179a3.831,3.831,0,0,1-3.97-2.943l-.041-.2a3.831,3.831,0,0,1,3.032-4.646Z" transform="translate(-197.513 -189.522)" fill="#ce7a63"/>
    </g>
    <g id="freepik--Desk--inject-15" transform="translate(90.34 202.154)">
      <path id="Trazado_836" data-name="Trazado 836" d="M204.689,243.32l-2.209,22.4h3.611Z" transform="translate(-127.774 -236.97)" fill="#263238"/>
      <path id="Trazado_837" data-name="Trazado 837" d="M232.092,265.565l-25.929.106L204.9,243.3l25.921-.114Z" transform="translate(-128.221 -236.946)" fill="#91a227"/>
      <path id="Trazado_838" data-name="Trazado 838" d="M232.092,265.565l-25.929.106L204.9,243.3l25.921-.114Z" transform="translate(-128.221 -236.946)" fill="#fff" opacity="0.6"/>
      <path id="Trazado_839" data-name="Trazado 839" d="M230.765,242.242l-25.921.114-.245-4.19,25.929-.106Z" transform="translate(-128.166 -235.998)" fill="#263238"/>
      <path id="Trazado_840" data-name="Trazado 840" d="M209.047,236.315a.734.734,0,0,0-.725-.685.644.644,0,0,0-.652.693c0,.245.139,2.519.155,2.763a.742.742,0,0,0,.725.693.652.652,0,0,0,.652-.693C209.194,238.89,209.063,236.51,209.047,236.315Z" transform="translate(-128.733 -235.548)" fill="#91a227"/>
      <path id="Trazado_841" data-name="Trazado 841" d="M215.167,236.293a.734.734,0,0,0-.725-.693.652.652,0,0,0-.652.7c0,.245.139,2.519.155,2.763a.742.742,0,0,0,.734.685.652.652,0,0,0,.652-.693C215.314,238.86,215.183,236.488,215.167,236.293Z" transform="translate(-129.865 -235.543)" fill="#91a227"/>
      <path id="Trazado_842" data-name="Trazado 842" d="M221.3,236.265a.742.742,0,0,0-.734-.685.644.644,0,0,0-.652.693c0,.245.147,2.519.155,2.763a.742.742,0,0,0,.734.693.66.66,0,0,0,.652-.7C221.434,238.832,221.3,236.46,221.3,236.265Z" transform="translate(-130.996 -235.539)" fill="#91a227"/>
      <path id="Trazado_843" data-name="Trazado 843" d="M227.416,236.243a.742.742,0,0,0-.734-.693.66.66,0,0,0-.652.693c0,.245.147,2.527.163,2.771a.734.734,0,0,0,.725.685.644.644,0,0,0,.652-.693C227.562,238.81,227.424,236.438,227.416,236.243Z" transform="translate(-132.128 -235.534)" fill="#91a227"/>
      <path id="Trazado_844" data-name="Trazado 844" d="M233.537,236.215a.734.734,0,0,0-.725-.685.644.644,0,0,0-.652.693c0,.245.139,2.519.155,2.763a.717.717,0,0,0,.725.685.644.644,0,0,0,.652-.693C233.659,238.782,233.545,236.41,233.537,236.215Z" transform="translate(-133.261 -235.53)" fill="#91a227"/>
      <g id="Grupo_459" data-name="Grupo 459" transform="translate(78.935 0)" opacity="0.7">
        <path id="Trazado_845" data-name="Trazado 845" d="M209.047,236.315a.734.734,0,0,0-.725-.685.644.644,0,0,0-.652.693c0,.245.139,2.519.155,2.763a.742.742,0,0,0,.725.693.652.652,0,0,0,.652-.693C209.194,238.89,209.063,236.51,209.047,236.315Z" transform="translate(-207.668 -235.548)" fill="#fff"/>
        <path id="Trazado_846" data-name="Trazado 846" d="M215.167,236.293a.734.734,0,0,0-.725-.693.652.652,0,0,0-.652.7c0,.245.139,2.519.155,2.763a.742.742,0,0,0,.734.685.652.652,0,0,0,.652-.693C215.314,238.86,215.183,236.488,215.167,236.293Z" transform="translate(-208.799 -235.543)" fill="#fff"/>
        <path id="Trazado_847" data-name="Trazado 847" d="M221.3,236.265a.742.742,0,0,0-.734-.685.644.644,0,0,0-.652.693c0,.245.147,2.519.155,2.763a.742.742,0,0,0,.734.693.66.66,0,0,0,.652-.7C221.434,238.832,221.3,236.46,221.3,236.265Z" transform="translate(-209.931 -235.539)" fill="#fff"/>
        <path id="Trazado_848" data-name="Trazado 848" d="M227.416,236.243a.742.742,0,0,0-.734-.693.66.66,0,0,0-.652.693c0,.245.147,2.527.163,2.771a.734.734,0,0,0,.725.685.644.644,0,0,0,.652-.693C227.562,238.81,227.424,236.438,227.416,236.243Z" transform="translate(-211.062 -235.534)" fill="#fff"/>
        <path id="Trazado_849" data-name="Trazado 849" d="M233.537,236.215a.734.734,0,0,0-.725-.685.644.644,0,0,0-.652.693c0,.245.139,2.519.155,2.763a.717.717,0,0,0,.725.685.644.644,0,0,0,.652-.693C233.659,238.782,233.545,236.41,233.537,236.215Z" transform="translate(-212.195 -235.53)" fill="#fff"/>
      </g>
      <path id="Trazado_850" data-name="Trazado 850" d="M232.818,264.937l-25.929.106L204.9,243.3l25.921-.114Z" transform="translate(-128.221 -236.946)" fill="#91a227"/>
      <path id="Trazado_851" data-name="Trazado 851" d="M232.818,264.937l-25.929.106L204.9,243.3l25.921-.114Z" transform="translate(-128.221 -236.946)" fill="#fff" opacity="0.8"/>
      <path id="Trazado_852" data-name="Trazado 852" d="M226.979,248.911l-12.838.049-.351-3.823,12.838-.057Z" transform="translate(-129.865 -237.296)" fill="#91a227"/>
      <path id="Trazado_853" data-name="Trazado 853" d="M226.979,248.911l-12.838.049-.351-3.823,12.838-.057Z" transform="translate(-129.865 -237.296)" fill="#fff" opacity="0.6"/>
      <path id="Trazado_854" data-name="Trazado 854" d="M211.28,255.142l-3.432.016-.318-3.432,3.432-.016Z" transform="translate(-128.708 -238.521)" fill="#fff"/>
      <path id="Trazado_855" data-name="Trazado 855" d="M217.241,255.114l-3.424.016-.318-3.424,3.432-.016Z" transform="translate(-129.811 -238.518)" fill="#fff"/>
      <path id="Trazado_856" data-name="Trazado 856" d="M211.791,260.812l-3.424.016-.318-3.432,3.432-.016Z" transform="translate(-128.804 -239.57)" fill="#91a227"/>
      <path id="Trazado_857" data-name="Trazado 857" d="M212.311,266.484l-3.424.016-.318-3.432L212,263.06Z" transform="translate(-128.9 -240.62)" fill="#91a227"/>
      <path id="Trazado_858" data-name="Trazado 858" d="M217.761,260.792l-3.424.008-.318-3.423,3.424-.016Z" transform="translate(-129.908 -239.566)" fill="#91a227"/>
      <path id="Trazado_859" data-name="Trazado 859" d="M217.761,260.792l-3.424.008-.318-3.423,3.424-.016Z" transform="translate(-129.908 -239.566)" fill="#fff" opacity="0.2"/>
      <path id="Trazado_860" data-name="Trazado 860" d="M223.731,260.762l-3.432.016-.31-3.432,3.424-.016Z" transform="translate(-131.011 -239.56)" fill="#91a227"/>
      <path id="Trazado_861" data-name="Trazado 861" d="M223.731,260.762l-3.432.016-.31-3.432,3.424-.016Z" transform="translate(-131.011 -239.56)" fill="#fff" opacity="0.2"/>
      <path id="Trazado_862" data-name="Trazado 862" d="M229.691,260.742l-3.424.008-.318-3.424,3.432-.016Z" transform="translate(-132.113 -239.557)" fill="#91a227"/>
      <path id="Trazado_863" data-name="Trazado 863" d="M229.691,260.742l-3.424.008-.318-3.424,3.432-.016Z" transform="translate(-132.113 -239.557)" fill="#fff" opacity="0.2"/>
      <path id="Trazado_864" data-name="Trazado 864" d="M235.661,260.714l-3.432.016-.31-3.432,3.424-.008Z" transform="translate(-133.217 -239.553)" fill="#91a227"/>
      <path id="Trazado_865" data-name="Trazado 865" d="M235.661,260.714l-3.432.016-.31-3.432,3.424-.008Z" transform="translate(-133.217 -239.553)" fill="#fff" opacity="0.2"/>
      <path id="Trazado_866" data-name="Trazado 866" d="M218.281,266.462l-3.432.016-.31-3.432,3.432-.016Z" transform="translate(-130.004 -240.614)" fill="#91a227"/>
      <path id="Trazado_867" data-name="Trazado 867" d="M218.281,266.462l-3.432.016-.31-3.432,3.432-.016Z" transform="translate(-130.004 -240.614)" fill="#fff" opacity="0.2"/>
      <path id="Trazado_868" data-name="Trazado 868" d="M224.241,266.434l-3.424.016-.318-3.432,3.432-.008Z" transform="translate(-131.105 -240.61)" fill="#91a227"/>
      <path id="Trazado_869" data-name="Trazado 869" d="M224.241,266.434l-3.424.016-.318-3.432,3.432-.008Z" transform="translate(-131.105 -240.61)" fill="#fff" opacity="0.2"/>
      <path id="Trazado_870" data-name="Trazado 870" d="M230.211,266.412l-3.423.016L226.47,263l3.432-.016Z" transform="translate(-132.209 -240.605)" fill="#91a227"/>
      <path id="Trazado_871" data-name="Trazado 871" d="M230.211,266.412l-3.423.016L226.47,263l3.432-.016Z" transform="translate(-132.209 -240.605)" fill="#fff" opacity="0.2"/>
      <path id="Trazado_872" data-name="Trazado 872" d="M223.211,255.092l-3.432.016-.31-3.432,3.423-.016Z" transform="translate(-130.915 -238.512)" fill="none"/>
      <path id="Trazado_873" data-name="Trazado 873" d="M223.211,255.092l-3.432.016-.31-3.432,3.423-.016Z" transform="translate(-130.915 -238.512)" fill="#91a227"/>
      <path id="Trazado_874" data-name="Trazado 874" d="M223.211,255.092l-3.432.016-.31-3.432,3.423-.016Z" transform="translate(-130.915 -238.512)" fill="#fff" opacity="0.2"/>
      <path id="Trazado_875" data-name="Trazado 875" d="M229.171,255.064l-3.424.016-.318-3.424,3.432-.016Z" transform="translate(-132.017 -238.508)" fill="none"/>
      <path id="Trazado_876" data-name="Trazado 876" d="M229.171,255.064l-3.424.016-.318-3.424,3.432-.016Z" transform="translate(-132.017 -238.508)" fill="#91a227"/>
      <path id="Trazado_877" data-name="Trazado 877" d="M229.171,255.064l-3.424.016-.318-3.424,3.432-.016Z" transform="translate(-132.017 -238.508)" fill="#fff" opacity="0.2"/>
      <path id="Trazado_878" data-name="Trazado 878" d="M235.141,255.042l-3.432.016-.31-3.432,3.424-.016Z" transform="translate(-133.121 -238.503)" fill="none"/>
      <path id="Trazado_879" data-name="Trazado 879" d="M235.141,255.042l-3.432.016-.31-3.432,3.424-.016Z" transform="translate(-133.121 -238.503)" fill="#91a227"/>
      <path id="Trazado_880" data-name="Trazado 880" d="M235.141,255.042l-3.432.016-.31-3.432,3.424-.016Z" transform="translate(-133.121 -238.503)" fill="#fff" opacity="0.2"/>
      <path id="Trazado_881" data-name="Trazado 881" d="M236.181,266.384l-3.432.016-.31-3.424,3.424-.016Z" transform="translate(-133.313 -240.601)" fill="#fff"/>
      <path id="Trazado_882" data-name="Trazado 882" d="M155.43,278.75v4.972H126.216L123.062,387.43H120.38V278.75Z" transform="translate(-112.596 -243.52)" fill="#263238"/>
      <path id="Trazado_883" data-name="Trazado 883" d="M155.43,278.75v4.972H126.216L123.062,387.43H120.38V278.75Z" transform="translate(-112.596 -243.52)" fill="#fff" opacity="0.7"/>
      <path id="Trazado_884" data-name="Trazado 884" d="M155.43,278.75v4.972H126.216L123.062,387.43H120.38V278.75Z" transform="translate(-112.596 -243.52)" fill="none" opacity="0.3"/>
      <path id="Trazado_885" data-name="Trazado 885" d="M119.62,387.43h-2.535l-.815-108.68h3.35Z" transform="translate(-111.836 -243.52)" fill="#263238"/>
      <g id="Grupo_460" data-name="Grupo 460" transform="translate(4.434 35.23)" opacity="0.3">
        <path id="Trazado_886" data-name="Trazado 886" d="M119.62,387.43h-2.535l-.815-108.68h3.35Z" transform="translate(-116.27 -278.75)" fill="#fff"/>
      </g>
      <path id="Trazado_887" data-name="Trazado 887" d="M171.731,278.75V387.43h-2.657L166.71,283.722h-3.13V278.75Z" transform="translate(-120.582 -243.52)" fill="#263238"/>
      <path id="Trazado_888" data-name="Trazado 888" d="M169.376,387.43H166.84l-3.26-108.68h3.35Z" transform="translate(-120.582 -243.52)" fill="#263238"/>
      <g id="Grupo_461" data-name="Grupo 461" transform="translate(42.998 35.23)" opacity="0.3">
        <path id="Trazado_889" data-name="Trazado 889" d="M169.376,387.43H166.84l-3.26-108.68h3.35Z" transform="translate(-163.58 -278.75)" fill="#fff"/>
      </g>
      <path id="Trazado_890" data-name="Trazado 890" d="M171.731,278.75V387.43h-2.657L166.71,283.722h-3.13V278.75Z" transform="translate(-120.582 -243.52)" fill="#fff" opacity="0.7"/>
      <path id="Trazado_891" data-name="Trazado 891" d="M367.837,387.43H365.31l-3.26-108.68h3.342Z" transform="translate(-157.275 -243.52)" fill="#263238"/>
      <path id="Trazado_892" data-name="Trazado 892" d="M362.05,278.75h3.342l2.445,108.68H365.31" transform="translate(-157.275 -243.52)" fill="#fff" opacity="0.3"/>
      <rect id="Rectángulo_223" data-name="Rectángulo 223" width="159.332" height="8.241" transform="translate(7.801 35.23)" fill="#263238"/>
      <rect id="Rectángulo_224" data-name="Rectángulo 224" width="159.332" height="8.241" transform="translate(7.801 35.23)" fill="#fff" opacity="0.5"/>
      <path id="Trazado_893" data-name="Trazado 893" d="M319.05,278.75V387.43h2.674l3.155-103.716H357.23l2.364,103.716h2.657V278.75Z" transform="translate(-149.325 -243.52)" fill="#263238"/>
      <path id="Trazado_894" data-name="Trazado 894" d="M319.05,278.75V387.43h2.674l3.155-103.716H357.23l2.364,103.716h2.657V278.75Z" transform="translate(-149.325 -243.52)" fill="#fff" opacity="0.7"/>
      <path id="Trazado_895" data-name="Trazado 895" d="M318.29,387.43h-2.535l-.815-108.68h3.35Z" transform="translate(-148.565 -243.52)" fill="#263238"/>
      <path id="Trazado_896" data-name="Trazado 896" d="M318.29,387.43h-2.535l-.815-108.68h3.35Z" transform="translate(-148.565 -243.52)" fill="#fff" opacity="0.3"/>
      <rect id="Rectángulo_225" data-name="Rectángulo 225" width="167.63" height="6.252" transform="translate(0 28.978)" fill="#263238"/>
      <rect id="Rectángulo_226" data-name="Rectángulo 226" width="167.63" height="6.252" transform="translate(0 28.978)" fill="#fff" opacity="0.6"/>
      <rect id="Rectángulo_227" data-name="Rectángulo 227" width="53.619" height="6.252" transform="translate(163.742 28.978)" fill="#263238"/>
      <rect id="Rectángulo_228" data-name="Rectángulo 228" width="53.619" height="6.252" transform="translate(163.742 28.978)" fill="#fff" opacity="0.7"/>
    </g>
    <g id="freepik--Document--inject-15" transform="translate(57.252 69.216)">
      <path id="Trazado_897" data-name="Trazado 897" d="M172.056,221.086H74.193c13.7-49.559-13.7-99.094,0-148.646h97.864C158.354,121.991,185.791,171.526,172.056,221.086Z" transform="translate(-70.237 -72.44)" fill="#91a227"/>
      <path id="Trazado_898" data-name="Trazado 898" d="M172.056,221.086H74.193c13.7-49.559-13.7-99.094,0-148.646h97.864C158.354,121.991,185.791,171.526,172.056,221.086Z" transform="translate(-70.237 -72.44)" fill="#fff" opacity="0.7"/>
      <path id="Trazado_899" data-name="Trazado 899" d="M171.062,110.424h-44.22a.432.432,0,1,1,0-.864h44.22a.432.432,0,1,1,0,.864Z" transform="translate(-80.622 -79.303)" fill="#263238"/>
      <path id="Trazado_900" data-name="Trazado 900" d="M171.319,121.2H127.1a.456.456,0,0,1-.448-.432.408.408,0,0,1,.408-.432h44.22a.465.465,0,0,1,.456.432.416.416,0,0,1-.416.432Z" transform="translate(-80.667 -81.296)" fill="#263238"/>
      <path id="Trazado_901" data-name="Trazado 901" d="M163.185,132.034H80.042a.489.489,0,0,1-.473-.432.391.391,0,0,1,.391-.432H163.1a.473.473,0,0,1,.465.432.391.391,0,0,1-.383.432Z" transform="translate(-71.962 -83.298)" fill="#263238"/>
      <path id="Trazado_902" data-name="Trazado 902" d="M171.673,224.476H88.506a.408.408,0,0,1-.416-.432.456.456,0,0,1,.456-.424h83.143a.4.4,0,0,1,.408.424A.448.448,0,0,1,171.673,224.476Z" transform="translate(-73.538 -100.39)" fill="#263238"/>
      <path id="Trazado_903" data-name="Trazado 903" d="M114.551,243H86.478a.351.351,0,0,1-.351-.432.538.538,0,0,1,.505-.432h28.048a.351.351,0,0,1,.351.432A.538.538,0,0,1,114.551,243Z" transform="translate(-73.173 -103.814)" fill="#263238"/>
      <path id="Trazado_904" data-name="Trazado 904" d="M182.5,243H154.448a.351.351,0,0,1-.35-.432.53.53,0,0,1,.505-.432h28.048a.351.351,0,0,1,.35.432.538.538,0,0,1-.505.432Z" transform="translate(-85.739 -103.814)" fill="#263238"/>
      <path id="Trazado_905" data-name="Trazado 905" d="M103.947,95.754c0,3.693-2.78,5.991-7.206,5.991H93.4v4.573H89.56V89.73h7.181C101.167,89.73,103.947,92.029,103.947,95.754Zm-3.888,0c0-1.826-1.19-2.894-3.529-2.894H93.4v5.755h3.13C98.885,98.615,100.059,97.555,100.059,95.754Z" transform="translate(-73.81 -75.637)" fill="#91a227"/>
      <path id="Trazado_906" data-name="Trazado 906" d="M107.639,117.948l-4-5.755L99.7,117.948H95.29l6.138-8.437L95.6,101.36h4.345l3.815,5.38,3.75-5.38h4.149l-5.787,8.013,6.187,8.575Z" transform="translate(-74.869 -77.787)" fill="#91a227"/>
      <path id="Trazado_907" data-name="Trazado 907" d="M85.772,138.668c0,.913-.685,1.484-1.785,1.484h-.815v1.133H82.21v-4.076h1.777C85.087,137.135,85.772,137.706,85.772,138.668Zm-.962,0c0-.448-.293-.717-.872-.717h-.815v1.426h.815C84.484,139.336,84.81,139.075,84.81,138.668Z" transform="translate(-72.451 -84.413)" fill="#263238"/>
      <path id="Trazado_908" data-name="Trazado 908" d="M89.284,138.229v.815h-.212a.815.815,0,0,0-.815.88v1.492H87.32v-3.155h.872v.416A1.28,1.28,0,0,1,89.284,138.229Z" transform="translate(-73.396 -84.602)" fill="#263238"/>
      <path id="Trazado_909" data-name="Trazado 909" d="M93.377,140.111H91a.815.815,0,0,0,.9.636,1.068,1.068,0,0,0,.815-.31l.489.53a1.834,1.834,0,0,1-3.1-1.117,1.63,1.63,0,0,1,1.679-1.63,1.565,1.565,0,0,1,1.63,1.63C93.4,139.931,93.385,140.037,93.377,140.111Zm-2.4-.538h1.557a.815.815,0,0,0-1.557,0Z" transform="translate(-73.91 -84.601)" fill="#263238"/>
      <path id="Trazado_910" data-name="Trazado 910" d="M94.51,141.14l.31-.66a2.087,2.087,0,0,0,1.092.31c.424,0,.587-.114.587-.293,0-.514-1.907,0-1.907-1.247,0-.6.538-1.019,1.459-1.019a2.568,2.568,0,0,1,1.215.277l-.31.652a1.769,1.769,0,0,0-.9-.236c-.408,0-.587.13-.587.293,0,.538,1.907,0,1.907,1.263,0,.579-.546,1-1.492,1a2.706,2.706,0,0,1-1.369-.342Z" transform="translate(-74.725 -84.603)" fill="#263238"/>
      <path id="Trazado_911" data-name="Trazado 911" d="M98.42,139.849a1.63,1.63,0,0,1,1.753-1.63,1.443,1.443,0,0,1,1.418.815l-.709.375a.815.815,0,0,0-.709-.432.872.872,0,1,0,0,1.744.766.766,0,0,0,.709-.432l.709.391a1.467,1.467,0,0,1-1.418.815,1.63,1.63,0,0,1-1.753-1.647Z" transform="translate(-75.448 -84.6)" fill="#263238"/>
      <path id="Trazado_912" data-name="Trazado 912" d="M104.916,138.229v.815h-.2a.815.815,0,0,0-.815.88v1.492H103v-3.155h.815v.416A1.272,1.272,0,0,1,104.916,138.229Z" transform="translate(-76.294 -84.602)" fill="#263238"/>
      <path id="Trazado_913" data-name="Trazado 913" d="M105.88,137a.522.522,0,0,1,.571-.505.514.514,0,0,1,.571.489.571.571,0,1,1-1.141,0Zm.114.954h.913v3.155h-.929Z" transform="translate(-76.827 -84.283)" fill="#263238"/>
      <path id="Trazado_914" data-name="Trazado 914" d="M111.62,139.852a1.541,1.541,0,0,1-1.573,1.63,1.255,1.255,0,0,1-.954-.383v1.467h-.913v-4.288h.872v.359a1.247,1.247,0,0,1,.994-.408,1.541,1.541,0,0,1,1.573,1.622Zm-.929,0a.815.815,0,1,0-.218.614A.815.815,0,0,0,110.691,139.852Z" transform="translate(-77.252 -84.603)" fill="#263238"/>
      <path id="Trazado_915" data-name="Trazado 915" d="M115.093,141.161a1.3,1.3,0,0,1-.75.2,1.035,1.035,0,0,1-1.174-1.133v-1.3h-.489v-.709h.489v-.766h.913v.766h.815v.709h-.815v1.28a.367.367,0,0,0,.391.416.611.611,0,0,0,.367-.114Z" transform="translate(-78.084 -84.461)" fill="#263238"/>
      <path id="Trazado_916" data-name="Trazado 916" d="M116.13,137a.522.522,0,0,1,.571-.505.514.514,0,0,1,.562.489.571.571,0,0,1-1.133,0Zm.106.954h.921v3.155h-.921Z" transform="translate(-78.722 -84.283)" fill="#263238"/>
      <path id="Trazado_917" data-name="Trazado 917" d="M118.139,139.8a1.736,1.736,0,1,1,1.736,1.63,1.63,1.63,0,0,1-1.736-1.63Zm2.535,0a.815.815,0,1,0-.218.614A.815.815,0,0,0,120.674,139.8Z" transform="translate(-79.093 -84.553)" fill="#263238"/>
      <path id="Trazado_918" data-name="Trazado 918" d="M126.363,139.625v1.81h-.888V139.8c0-.505-.236-.742-.644-.742a.733.733,0,0,0-.75.815v1.565h-.921v-3.155h.88v.367a1.378,1.378,0,0,1,1.043-.416,1.231,1.231,0,0,1,1.28,1.386Z" transform="translate(-80.022 -84.605)" fill="#263238"/>
      <path id="Trazado_919" data-name="Trazado 919" d="M127.83,138.8a.538.538,0,0,1,.562-.562.546.546,0,0,1,.571.562.567.567,0,1,1-1.133,0Zm0,2.1a.538.538,0,0,1,.562-.562.546.546,0,0,1,.571.562.562.562,0,0,1-.571.579.554.554,0,0,1-.562-.579Z" transform="translate(-80.885 -84.605)" fill="#263238"/>
    </g>
    <g id="freepik--Medicine--inject-15" transform="translate(114.586 116.499)">
      <rect id="Rectángulo_229" data-name="Rectángulo 229" width="25.171" height="62.12" rx="6.11" transform="translate(45.902) rotate(17.66)"/>
      <path id="Trazado_920" data-name="Trazado 920" d="M215.608,141.779a4.72,4.72,0,0,1-.228,1.361l-15.822,49.722a5.191,5.191,0,0,1-.187.5,4.972,4.972,0,0,1-6.065,2.739l-14.5-4.614a4.98,4.98,0,0,1-3.26-6.138l9.129-28.668,6.692-21.2a4.98,4.98,0,0,1,6.252-3.26l14.534,4.671a4.831,4.831,0,0,1,.913.4,4.956,4.956,0,0,1,2.543,4.491Z" transform="translate(-147.003 -130.732)" fill="#fff" opacity="0.8"/>
      <g id="Grupo_462" data-name="Grupo 462" transform="translate(33.538 4.086)" opacity="0.6">
        <path id="Trazado_921" data-name="Trazado 921" d="M181.72,170.225l6.578-20.647,18.626-14.118,7.336,2.445a4.956,4.956,0,0,1,2.543,4.5Z" transform="translate(-181.72 -135.46)" fill="#fff" opacity="0.5"/>
      </g>
      <path id="Trazado_922" data-name="Trazado 922" d="M193,140.638l1.63-5.16a4.98,4.98,0,0,1,6.252-3.26l2.176.693Z" transform="translate(-150.268 -130.732)" fill="#fff" opacity="0.5"/>
      <path id="Trazado_923" data-name="Trazado 923" d="M204.425,141.786a1.9,1.9,0,1,1-.12-1.456A1.907,1.907,0,0,1,204.425,141.786Z" transform="translate(-151.691 -132.084)" fill="#91a227"/>
      <path id="Trazado_924" data-name="Trazado 924" d="M199.969,155.768a1.9,1.9,0,1,1-1.231-2.388A1.9,1.9,0,0,1,199.969,155.768Z" transform="translate(-150.87 -134.671)" fill="#91a227"/>
      <path id="Trazado_925" data-name="Trazado 925" d="M195.515,169.758a1.9,1.9,0,1,1-.124-1.451A1.908,1.908,0,0,1,195.515,169.758Z" transform="translate(-150.044 -137.257)" fill="#91a227"/>
      <path id="Trazado_926" data-name="Trazado 926" d="M191.065,183.746a1.9,1.9,0,1,1-.12-1.456,1.907,1.907,0,0,1,.12,1.456Z" transform="translate(-149.221 -139.842)" fill="#91a227"/>
      <path id="Trazado_927" data-name="Trazado 927" d="M186.615,197.728a1.907,1.907,0,1,1-1.239-2.388,1.907,1.907,0,0,1,1.239,2.388Z" transform="translate(-148.398 -142.428)" fill="#91a227"/>
      <path id="Trazado_928" data-name="Trazado 928" d="M215.674,145.341a1.907,1.907,0,1,1-.341-1.945,1.907,1.907,0,0,1,.341,1.945Z" transform="translate(-153.778 -132.721)" fill="#91a227"/>
      <path id="Trazado_929" data-name="Trazado 929" d="M211.219,159.348a1.9,1.9,0,1,1-1.239-2.388A1.9,1.9,0,0,1,211.219,159.348Z" transform="translate(-152.95 -135.333)" fill="#91a227"/>
      <path id="Trazado_930" data-name="Trazado 930" d="M206.765,173.338a1.907,1.907,0,1,1-1.239-2.388A1.907,1.907,0,0,1,206.765,173.338Z" transform="translate(-152.123 -137.919)" fill="#91a227"/>
      <path id="Trazado_931" data-name="Trazado 931" d="M202.314,187.3a1.907,1.907,0,1,1-.341-1.945,1.907,1.907,0,0,1,.341,1.945Z" transform="translate(-151.308 -140.478)" fill="#91a227"/>
      <path id="Trazado_932" data-name="Trazado 932" d="M197.859,201.308a1.9,1.9,0,1,1-1.239-2.388,1.9,1.9,0,0,1,1.239,2.388Z" transform="translate(-150.48 -143.09)" fill="#91a227"/>
      <g id="Grupo_463" data-name="Grupo 463" transform="translate(34.489 7.215)" opacity="0.4">
        <path id="Trazado_933" data-name="Trazado 933" d="M204.425,141.786a1.9,1.9,0,1,1-.12-1.456A1.907,1.907,0,0,1,204.425,141.786Z" transform="translate(-186.181 -139.299)" fill="#fff"/>
        <path id="Trazado_934" data-name="Trazado 934" d="M199.969,155.768a1.9,1.9,0,1,1-1.231-2.388A1.9,1.9,0,0,1,199.969,155.768Z" transform="translate(-185.36 -141.886)" fill="#fff"/>
        <path id="Trazado_935" data-name="Trazado 935" d="M195.515,169.758a1.9,1.9,0,1,1-.124-1.451A1.908,1.908,0,0,1,195.515,169.758Z" transform="translate(-184.533 -144.472)" fill="#fff"/>
        <path id="Trazado_936" data-name="Trazado 936" d="M191.065,183.746a1.9,1.9,0,1,1-.12-1.456,1.907,1.907,0,0,1,.12,1.456Z" transform="translate(-183.711 -147.057)" fill="#fff"/>
        <path id="Trazado_937" data-name="Trazado 937" d="M186.615,197.728a1.907,1.907,0,1,1-1.239-2.388,1.907,1.907,0,0,1,1.239,2.388Z" transform="translate(-182.887 -149.643)" fill="#fff"/>
      </g>
      <g id="Grupo_464" data-name="Grupo 464" transform="translate(43.669 10.022)" opacity="0.4">
        <path id="Trazado_938" data-name="Trazado 938" d="M215.674,145.341a1.907,1.907,0,1,1-.341-1.945,1.907,1.907,0,0,1,.341,1.945Z" transform="translate(-197.447 -142.742)" fill="#fff"/>
        <path id="Trazado_939" data-name="Trazado 939" d="M211.219,159.348a1.9,1.9,0,1,1-1.239-2.388A1.9,1.9,0,0,1,211.219,159.348Z" transform="translate(-196.619 -145.355)" fill="#fff"/>
        <path id="Trazado_940" data-name="Trazado 940" d="M206.765,173.338a1.907,1.907,0,1,1-1.239-2.388A1.907,1.907,0,0,1,206.765,173.338Z" transform="translate(-195.793 -147.941)" fill="#fff"/>
        <path id="Trazado_941" data-name="Trazado 941" d="M202.314,187.3a1.907,1.907,0,1,1-.341-1.945,1.907,1.907,0,0,1,.341,1.945Z" transform="translate(-194.977 -150.5)" fill="#fff"/>
        <path id="Trazado_942" data-name="Trazado 942" d="M197.859,201.308a1.9,1.9,0,1,1-1.239-2.388,1.9,1.9,0,0,1,1.239,2.388Z" transform="translate(-194.149 -153.112)" fill="#fff"/>
      </g>
      <path id="Trazado_943" data-name="Trazado 943" d="M178.287,196.966l-25.041,5.168A4.442,4.442,0,0,1,148,198.686L140.8,163.75a10.609,10.609,0,0,1,8.241-12.545l12.936-2.665a10.6,10.6,0,0,1,12.537,8.249l7.214,34.936a4.426,4.426,0,0,1-3.44,5.241Z" transform="translate(-140.576 -133.752)" fill="#fff" opacity="0.7"/>
      <rect id="Rectángulo_230" data-name="Rectángulo 230" width="34.431" height="26.475" transform="matrix(0.979, -0.202, 0.202, 0.979, 0.543, 31.598)" fill="#91a227"/>
      <rect id="Rectángulo_231" data-name="Rectángulo 231" width="34.431" height="26.475" transform="matrix(0.979, -0.202, 0.202, 0.979, 0.543, 31.598)" fill="#fff" opacity="0.4"/>
      <path id="Trazado_944" data-name="Trazado 944" d="M2.339,0H21.087a2.307,2.307,0,0,1,2.307,2.307V5.853H0V2.274A2.307,2.307,0,0,1,2.339,0Z" transform="matrix(0.979, -0.202, 0.202, 0.979, 2.189, 10.391)" fill="#91a227"/>
      <path id="Trazado_945" data-name="Trazado 945" d="M167.085,147.814a10.727,10.727,0,0,0-3.945.073l-12.9,2.665a10.507,10.507,0,0,0-2.812,1.011l-.554-2.7L166.5,144.79Z" transform="translate(-141.739 -133.099)" fill="#fff" opacity="0.7"/>
      <path id="Trazado_946" data-name="Trazado 946" d="M146.56,155.329a.628.628,0,0,0-1.166-.269,8.029,8.029,0,0,0-1.19,4.891c.44,2.934,6.7,34.928,7.662,39.827a1.8,1.8,0,0,0,.62,1.027h0a1.769,1.769,0,0,0,1.524.334l.954-.236-8.151-41.824S146.666,157.074,146.56,155.329Z" transform="translate(-141.242 -134.941)" fill="#fff" opacity="0.3"/>
    </g>
  </g>
</svg>
