<svg xmlns="http://www.w3.org/2000/svg" version="1.1" xmlns:xlink="http://www.w3.org/1999/xlink" xmlns:svgjs="http://svgjs.com/svgjs" width="512" height="512" x="0" y="0" viewBox="0 0 60 60" style="enable-background:new 0 0 512 512" xml:space="preserve" class=""><g><g xmlns="http://www.w3.org/2000/svg" id="Page-1" fill="none" fill-rule="evenodd"><g id="049---Bicycle-Parking" fill="rgb(0,0,0)" fill-rule="nonzero"><path id="Shape" d="m8 40.63c0 .5522847.44771525 1 1 1s1-.4477153 1-1v-11.63h4v8.35c0 .5522847.4477153 1 1 1s1-.4477153 1-1v-8.35h4c2.209139 0 4-1.790861 4-4v-21c0-2.209139-1.790861-4-4-4h-16c-2.209139 0-4 1.790861-4 4v21c0 2.209139 1.790861 4 4 4h4zm-4-13.63c-1.1045695 0-2-.8954305-2-2v-21c0-1.1045695.8954305-2 2-2h16c1.1045695 0 2 .8954305 2 2v21c0 1.1045695-.8954305 2-2 2z" fill="#000000" data-original="#000000" class=""></path><path id="Shape" d="m50 40c-1.2139215.0020407-2.4171698.2267601-3.55.663l-1.36-2.718c-.0015266-.008111-.0035301-.0161249-.006-.024 0-.008-.011-.012-.015-.019l-.833-1.666c-.8107424-1.6264925-1.2337947-3.4186458-1.236-5.236 0-1.1045695.8954305-2 2-2h4c1.1045695 0 2 .8954305 2 2s-.8954305 2-2 2h-3c-.5522847 0-1 .4477153-1 1s.4477153 1 1 1h3c2.209139 0 4-1.790861 4-4s-1.790861-4-4-4h-4c-2.209139 0-4 1.790861-4 4 .0026899 2.1279541.4979517 4.2263994 1.447 6.131l.414.827c-3.2805874 1.9353952-5.6252649 5.1300544-6.488 8.84-1.2159649-.9280894-2.8629082-1.0576067-4.209-.331l-4.309-7.655c-.0075629-.0154153-.0159071-.0304348-.025-.045l-2.12-3.767h2.29c.5522847 0 1-.4477153 1-1s-.4477153-1-1-1h-8c-.5522847 0-1 .4477153-1 1s.4477153 1 1 1h3.416l2.331 4.142-2.147 2.577c-3.7271871-2.5200826-8.6784401-2.2407645-12.0985469.682523-3.42010684 2.9232875-4.4668623 7.7706815-2.55778086 11.844764 1.90908146 4.0740825 6.30388636 6.3716062 10.73884796 5.6140734 4.4349616-.7575327 7.8179656-4.3835786 8.2664798-8.8603604h2.193c.4545933 1.7606851 2.0395884 2.9931852 3.858 3 .034 0 .065-.009.1-.01l.574 2.01h-.674c-.5522847 0-1 .4477153-1 1s.4477153 1 1 1h4c.5522847 0 1-.4477153 1-1s-.4477153-1-1-1h-1.247l-.734-2.566c1.2226634-.7122877 1.9764745-2.018995 1.981-3.434-.0085478-4.1883008 2.1769655-8.0751754 5.76-10.244l.9 1.8c-4.1955223 2.6648573-5.791312 8.0103693-3.7432853 12.5391062 2.0480268 4.528737 7.1158297 6.8607783 11.8876768 5.47033 4.7718472-1.3904484 7.7937416-6.0797124 7.0885362-10.9997284s-4.9226323-8.5716394-9.8929277-8.5657078zm-32 18c-3.4115629.0070736-6.4522533-2.1501097-7.5727696-5.3724155-1.12051629-3.2223059-.0742881-6.8006637 2.6056072-8.911818 2.6798954-2.1111543 6.4037451-2.2905443 9.2741624-.4467665l-5.076 6.09c-.2490122.2981693-.3028084.7135708-.1379653 1.065336.164843.3517652.5184918.5762312.9069653.575664h7.931c-.507003 3.995865-3.9031042 6.9933065-7.931 7zm2.136-9 3.706-4.447c1.1474335 1.2252422 1.8785439 2.7816081 2.089 4.447zm10.006 0h-2.193c-.227192-2.2625495-1.2207578-4.3795221-2.816-6l1.664-2 3.846 6.833c-.2284951.3596195-.3976558.7536525-.501 1.167zm3.858 3c-1.1045695 0-2-.8954305-2-2s.8954305-2 2-2 2 .8954305 2 2-.8954305 2-2 2zm16 6c-3.5210304-.0035972-6.625754-2.3088905-7.6475561-5.6783991s.2795765-7.0109506 3.2055561-8.9696009l3.547 7.1c.2468713.4942949.8477051.6948713 1.342.448s.6948713-.8477051.448-1.342l-3.546-7.092c3.0063223-1.0734838 6.3630782-.256963 8.5404431 2.077437 2.1773648 2.3344001 2.7585238 5.7398032 1.4786167 8.6642141-1.2799072 2.9244108-4.1758668 4.808007-7.3680598 4.7923489z" fill="#000000" data-original="#000000" class=""></path><path id="Shape" d="m9 16h4c2.7614237 0 5-2.2385763 5-5 0-2.76142375-2.2385763-5-5-5h-5c-.55228475 0-1 .44771525-1 1v15c0 .5522847.44771525 1 1 1s1-.4477153 1-1zm0-8h4c1.6568542.00000003 2.9999999 1.34314578 2.9999999 3 0 1.6568542-1.3431457 3-2.9999999 3h-4z" fill="#000000" data-original="#000000" class=""></path></g></g></g></svg>