<svg id="IconLibro" xmlns="http://www.w3.org/2000/svg" width="13.938" height="13.938" viewBox="0 0 13.938 13.938">
  <g id="Grupo_17" data-name="Grupo 17" transform="translate(-11.615 -13.938)">
    <g id="Grupo_13" data-name="Grupo 13" transform="translate(11.615 13.938)">
      <path id="Trazado_3" data-name="Trazado 3" d="M28.969,37.938a6.969,6.969,0,1,1,6.969-6.969A6.977,6.977,0,0,1,28.969,37.938Zm0-12.776a5.807,5.807,0,1,0,5.807,5.807A5.814,5.814,0,0,0,28.969,25.161Z" transform="translate(-22 -24)"/>
    </g>
    <g id="Grupo_14" data-name="Grupo 14" transform="translate(18.003 17.422)">
      <path id="Trazado_4" data-name="Trazado 4" d="M33.581,36.969A.581.581,0,0,1,33,36.388V30.581a.581.581,0,0,1,1.161,0v5.807A.581.581,0,0,1,33.581,36.969Z" transform="translate(-33 -30)"/>
    </g>
    <g id="Grupo_15" data-name="Grupo 15" transform="translate(15.68 20.907)">
      <path id="Trazado_5" data-name="Trazado 5" d="M31.9,39.725,29.17,36.991a.581.581,0,0,1,.821-.821L31.9,38.082l1.912-1.912a.581.581,0,0,1,.821.821Z" transform="translate(-29 -36)"/>
    </g>
  </g>
</svg>
