<svg id="IconLibro" xmlns="http://www.w3.org/2000/svg" width="23.23" height="27.876" viewBox="0 0 23.23 27.876">
  <g id="Grupo_17" data-name="Grupo 17">
    <g id="Grupo_11" data-name="Grupo 11" transform="translate(0 2.323)">
      <path id="Trazado_1" data-name="Trazado 1" d="M14.2,29.553H4.9a2.907,2.907,0,0,1-2.9-2.9V4.581a.581.581,0,1,1,1.161,0V26.649A1.744,1.744,0,0,0,4.9,28.391H14.2a.581.581,0,1,1,0,1.161Z" transform="translate(-2 -4)"/>
    </g>
    <g id="Grupo_12" data-name="Grupo 12">
      <path id="Trazado_2" data-name="Trazado 2" d="M24.649,13.356a.581.581,0,0,1-.581-.581V5.807H4.9A2.9,2.9,0,1,1,4.9,0H24.649a.581.581,0,0,1,0,1.161H4.9a1.742,1.742,0,1,0,0,3.484H25.23v8.13A.581.581,0,0,1,24.649,13.356Z" transform="translate(-2)"/>
    </g>
    <g id="Grupo_16" data-name="Grupo 16" transform="translate(3.05 1.967)">
      <rect id="Rectángulo_86" data-name="Rectángulo 86" width="19" height="1" transform="translate(-0.148 0.327)"/>
    </g>
  </g>
</svg>
