<svg id="BusIcon" xmlns="http://www.w3.org/2000/svg" width="29.577" height="27.874" viewBox="0 0 29.577 27.874">
  <path id="Trazado_40" data-name="Trazado 40" d="M28.679,5.219h-.546a1.593,1.593,0,0,0-1.591-1.563H25.219V1.592A1.594,1.594,0,0,0,23.628,0H5.949A1.594,1.594,0,0,0,4.358,1.592V3.656H3.036A1.593,1.593,0,0,0,1.445,5.219H.9a.9.9,0,0,0-.9.9v4.628a.9.9,0,0,0,.9.9H2.858a.9.9,0,0,0,.9-.9V6.117a.9.9,0,0,0-.9-.9H2.314a.724.724,0,0,1,.722-.695H4.358V20.629a.434.434,0,1,0,.868,0v-3.58a1.58,1.58,0,0,0,.723.175H23.628a1.579,1.579,0,0,0,.723-.175v7.009a.724.724,0,0,1-.723.723H5.949a.724.724,0,0,1-.723-.723V22.636a.434.434,0,0,0-.868,0v1.422a1.593,1.593,0,0,0,1.592,1.592H6.4v1.009a1.217,1.217,0,0,0,1.216,1.216H9.568a1.217,1.217,0,0,0,1.215-1.216V25.649h8.01v1.009a1.217,1.217,0,0,0,1.215,1.216H21.96a1.217,1.217,0,0,0,1.216-1.216V25.649h.452a1.593,1.593,0,0,0,1.592-1.592V4.524h1.322a.724.724,0,0,1,.722.695h-.544a.9.9,0,0,0-.9.9v4.628a.9.9,0,0,0,.9.9h1.959a.9.9,0,0,0,.9-.9V6.117a.9.9,0,0,0-.9-.9ZM2.858,6.087a.03.03,0,0,1,.03.03v4.628a.03.03,0,0,1-.03.03H.9a.03.03,0,0,1-.03-.03V6.117a.03.03,0,0,1,.03-.03ZM9.915,26.658a.348.348,0,0,1-.347.347H7.617a.348.348,0,0,1-.347-.347V25.649H9.915v1.009Zm12.392,0a.348.348,0,0,1-.347.347H20.009a.348.348,0,0,1-.347-.347V25.649h2.646ZM24.351,5.185H6.82a.434.434,0,0,0,0,.868H24.351v8.223H21.483a.434.434,0,1,0,0,.868h2.868v.488a.724.724,0,0,1-.723.723H5.95a.724.724,0,0,1-.723-.723v-.488H19.457a.434.434,0,0,0,0-.868h-4.27l4.1-3.424a.433.433,0,0,0-.556-.665l-4.891,4.088H11.973l4.1-3.424a.433.433,0,1,0-.556-.665l-4.891,4.089h-5.4V3.8H24.351Zm0-2.257H5.226V1.592A.724.724,0,0,1,5.949.868H23.628a.724.724,0,0,1,.723.723Zm4.358,7.817a.03.03,0,0,1-.03.03H26.719a.03.03,0,0,1-.03-.03V6.117a.03.03,0,0,1,.03-.03h1.959a.03.03,0,0,1,.03.03Zm0,0" transform="translate(0 0)"/>
</svg>
