<svg id="BusIcon" xmlns="http://www.w3.org/2000/svg" width="16.872" height="5.46" viewBox="0 0 16.872 5.46">
  <path id="Trazado_41" data-name="Trazado 41" d="M114.335,326.336a.724.724,0,0,0,.723-.724v-.695a1.709,1.709,0,0,0-1.708-1.707h-2.662a.724.724,0,0,0-.723.723v.695a1.709,1.709,0,0,0,1.708,1.708Zm-3.5-1.708v-.55h2.518a.84.84,0,0,1,.839.839v.55h-2.518a.84.84,0,0,1-.839-.839Zm0,0" transform="translate(-109.965 -323.211)"/>
  <path id="Trazado_42" data-name="Trazado 42" d="M317.25,326.336a1.709,1.709,0,0,0,1.708-1.708v-.695a.724.724,0,0,0-.723-.723h-2.662a1.709,1.709,0,0,0-1.708,1.707v.695a.724.724,0,0,0,.723.724Zm-2.518-1.418a.84.84,0,0,1,.839-.839h2.518v.55a.84.84,0,0,1-.839.839h-2.518Zm0,0" transform="translate(-302.085 -323.211)"/>
  <path id="Trazado_43" data-name="Trazado 43" d="M217.592,380.91a.557.557,0,0,0,.556-.556v-1.145a.557.557,0,0,0-.556-.556h-3.832a.557.557,0,0,0-.556.556v1.145a.557.557,0,0,0,.556.556Zm-3.52-1.389h3.208v.521h-3.208Zm0,0" transform="translate(-207.24 -375.45)"/>
</svg>
