<svg version="1.0" xmlns="http://www.w3.org/2000/svg"
    width="636.000000pt" height="351.000000pt" viewBox="0 0 636.000000 351.000000"
    preserveAspectRatio="xMidYMid meet">

    <g transform="translate(0.000000,351.000000) scale(0.100000,-0.100000)"
        fill="#000000" stroke="none">
        <path d="M4085 3480 c-27 -11 -93 -43 -145 -72 l-95 -53 -14 -53 -14 -54 47
-90 c39 -75 45 -93 34 -103 -7 -7 -139 -93 -293 -192 -154 -99 -328 -212 -388
-251 -74 -49 -120 -73 -150 -77 -55 -8 -570 -32 -579 -28 -9 4 -84 235 -93
286 l-7 34 129 5 c149 5 211 25 237 77 22 41 20 99 -3 137 -37 61 -81 65 -476
50 l-210 -9 -66 27 c-76 30 -95 32 -148 10 -46 -18 -71 -67 -71 -136 0 -77 86
-133 248 -160 l73 -12 34 -111 c102 -325 177 -585 172 -597 -3 -7 -52 -38
-110 -68 l-105 -55 -74 71 c-304 293 -718 398 -1130 288 -304 -81 -553 -271
-713 -544 -179 -305 -213 -699 -90 -1025 123 -327 404 -597 737 -711 172 -58
412 -75 591 -40 498 96 886 490 957 971 6 44 14 90 17 102 5 22 6 22 287 25
277 3 282 3 311 26 25 19 218 261 273 342 9 14 105 140 212 280 108 140 267
350 355 465 211 279 303 395 315 395 5 0 30 -39 56 -87 26 -49 93 -173 149
-278 57 -104 225 -417 375 -695 179 -334 282 -516 305 -537 44 -42 92 -51 141
-27 52 26 77 64 78 116 0 37 -25 90 -196 408 -108 201 -210 390 -227 420 -17
30 -31 62 -31 71 0 12 23 24 78 42 121 40 200 50 351 45 145 -6 245 -30 356
-86 323 -163 533 -520 512 -872 -21 -346 -225 -643 -541 -790 -116 -55 -184
-71 -326 -77 -270 -12 -511 79 -696 261 -331 327 -365 849 -80 1213 52 66 55
74 45 100 -15 40 -108 201 -121 209 -12 8 -104 -88 -163 -170 -149 -211 -224
-451 -225 -722 -1 -518 377 -1001 885 -1129 595 -151 1191 154 1409 722 121
313 108 657 -34 949 -139 286 -413 522 -715 617 -131 41 -201 51 -360 50 -176
0 -256 -14 -405 -71 l-105 -40 -16 26 c-27 44 -477 876 -484 894 -5 13 7 24
54 48 39 19 69 43 81 63 36 58 20 145 -32 181 -31 22 -111 19 -173 -4z m-432
-1027 c-86 -115 -225 -296 -308 -403 -83 -107 -220 -287 -304 -400 -211 -281
-187 -260 -288 -260 l-84 0 1 248 c1 136 -1 255 -5 264 -6 14 -15 11 -68 -21
-34 -21 -92 -55 -129 -75 l-68 -37 0 -177 c0 -158 -7 -221 -23 -196 -2 5 -15
50 -27 99 -12 50 -33 116 -47 147 l-25 57 -52 -26 c-28 -14 -81 -43 -118 -64
l-67 -39 25 -70 c42 -120 60 -110 -208 -110 -129 0 -228 4 -222 9 22 20 763
444 924 528 52 28 138 75 190 105 52 30 173 96 268 148 95 51 309 180 475 286
166 106 306 193 310 194 4 0 -63 -93 -150 -207z m-2246 -362 c93 -24 198 -67
280 -115 68 -40 153 -112 153 -130 0 -13 -141 -96 -505 -300 -291 -164 -343
-198 -361 -243 -19 -43 -12 -90 17 -127 45 -57 33 -56 600 -56 l522 0 -6 -63
c-13 -140 -112 -350 -225 -477 -110 -124 -279 -225 -452 -272 -118 -32 -346
-32 -465 0 -550 148 -838 754 -601 1268 130 281 399 486 701 534 88 13 250 4
342 -19z"/>
    </g>
</svg>
