<svg xmlns="http://www.w3.org/2000/svg" width="62.002" height="69.908" viewBox="0 0 62.002 69.908">
  <g id="presencial" transform="translate(1.048 -242)" opacity="0.8">
    <g id="Grupo_1057" data-name="Grupo 1057" transform="translate(-1.048 242)">
      <g id="Grupo_1056" data-name="Grupo 1056">
        <path id="Trazado_957" data-name="Trazado 957" d="M90.91,66.329,87.817,48.223a5.154,5.154,0,0,0-3.612-4.089l-8.341-2.517a9.3,9.3,0,0,0-6.456-8.08c.264-.293.509-.585.733-.871a16.191,16.191,0,0,0,3.316-7.2H74.1a3.039,3.039,0,0,0,3.035-3.035V20.876a3.056,3.056,0,0,0-1.573-2.654V14.48a1.024,1.024,0,1,0-2.047,0v4.2a6.31,6.31,0,0,0-1.361.394,1.028,1.028,0,0,0-.144.064c-.11.05-.22.1-.33.162v-8.25a4.138,4.138,0,0,0-4.133-4.133H64.722a4.247,4.247,0,0,0-2.681.956l-.277.227a2.86,2.86,0,0,1-3.62,0l-.277-.227a4.248,4.248,0,0,0-2.681-.956H52.359a4.138,4.138,0,0,0-4.133,4.133V19.3c-.11-.06-.22-.112-.33-.162a1.027,1.027,0,0,0-.144-.064,6.312,6.312,0,0,0-1.361-.394V8.059A6.019,6.019,0,0,1,52.4,2.047H67.5a6.019,6.019,0,0,1,6.012,6.012V9.668a1.024,1.024,0,1,0,2.047,0V8.059A8.068,8.068,0,0,0,67.5,0H52.4a8.068,8.068,0,0,0-8.059,8.059V18.222a3.056,3.056,0,0,0-1.573,2.654v1.556a3.039,3.039,0,0,0,3.035,3.035h.644a16.189,16.189,0,0,0,3.316,7.2c.224.285.469.577.733.87a9.337,9.337,0,0,0-6.455,8.08L35.7,44.134a5.153,5.153,0,0,0-3.612,4.089l-1.256,7.353a1.024,1.024,0,0,0,2.018.345l1.256-7.353a3.117,3.117,0,0,1,2.185-2.474l7.715-2.328v2.025a5.122,5.122,0,0,0-3.893,3.223,5.192,5.192,0,0,0-.3,1.39l-.746,9.571a2.6,2.6,0,0,0,2.594,2.8h1.276a1.024,1.024,0,1,0,0-2.047H41.659a.554.554,0,0,1-.553-.6l.746-9.571a3.144,3.144,0,0,1,.184-.842,3.1,3.1,0,0,1,2.9-1.973h.192a3.067,3.067,0,0,1,2.858,1.833,3.14,3.14,0,0,1,.24.983l.746,9.571a.554.554,0,0,1-.553.6H47.14a1.024,1.024,0,1,0,0,2.047h1.276a2.6,2.6,0,0,0,2.594-2.8L50.265,50.4a5.185,5.185,0,0,0-.4-1.623,5.068,5.068,0,0,0-3.815-3V43.148l3.519-1.062c.32.674.955,2.132,2.212,5.273,1.267,3.17,2.841,7.232,4.351,11.182a1.04,1.04,0,0,0,.037.1c1.008,2.637,1.985,5.219,2.821,7.447a1.024,1.024,0,0,0,1.917,0c.836-2.228,1.813-4.81,2.821-7.447a1.019,1.019,0,0,0,.037-.1c1.509-3.947,3.083-8.007,4.349-11.176,1.258-3.145,1.894-4.6,2.214-5.279l3.519,1.062v6.047a5.3,5.3,0,1,0,2.047,0V43.766l7.715,2.328A3.117,3.117,0,0,1,85.8,48.568l3.093,18.106a1.016,1.016,0,0,1-1,1.188H32.016a1.016,1.016,0,0,1-1-1.188L32.035,60.7a1.024,1.024,0,0,0-2.018-.345L29,66.329a3.064,3.064,0,0,0,3.02,3.58H87.89a3.064,3.064,0,0,0,3.02-3.58ZM73.528,20.766a4.393,4.393,0,0,1,.988-.133,1.046,1.046,0,0,0,.5-.119.97.97,0,0,1,.073.362v1.556a.989.989,0,0,1-.988.988h-.573ZM46.378,23.42h-.573a.989.989,0,0,1-.988-.988V20.876a.971.971,0,0,1,.073-.362,1.044,1.044,0,0,0,.5.119,4.564,4.564,0,0,1,.988.134V23.42Zm2.047,1.148v-2.69A1.436,1.436,0,0,0,50.273,20.5v-9.45a2.088,2.088,0,0,1,2.086-2.086h2.826a2.195,2.195,0,0,1,1.385.494l.277.227a4.908,4.908,0,0,0,6.212,0l.277-.227a2.194,2.194,0,0,1,1.385-.494h2.826a2.088,2.088,0,0,1,2.086,2.086V20.5a1.436,1.436,0,0,0,1.847,1.378v2.689A13.24,13.24,0,0,1,68.532,31.4a13.5,13.5,0,0,1-2.454,2.431,1.025,1.025,0,0,0-.091.069,9.979,9.979,0,0,1-12.068,0,1.039,1.039,0,0,0-.091-.069A13.507,13.507,0,0,1,51.374,31.4,13.241,13.241,0,0,1,48.426,24.568ZM66.66,41.108l-6.707,5.013-6.707-5.013a4.855,4.855,0,0,0,1.038-2.9v-1.65a12.022,12.022,0,0,0,11.338,0v1.65A4.855,4.855,0,0,0,66.66,41.108ZM51.538,39.965a2.8,2.8,0,0,0-1.726-.087l-.074.02L46.2,40.965a7.273,7.273,0,0,1,6.035-5.736v2.98A2.707,2.707,0,0,1,51.538,39.965Zm2.778,8.218-.006-.014-.154-.389-.027-.069-.148-.372-.01-.026q-.228-.572-.439-1.1L53.5,46.14l-.12-.3-.043-.107-.114-.281-.033-.082-.2-.49-.053-.129-.075-.183-.08-.194-.03-.073-.023-.056q-.177-.431-.337-.813l0-.006-.166-.394-.082-.193,5.768,4.311L55.5,48.177l-.013.005-1.006.428Zm2.443,6.268q-.3-.787-.61-1.58-.479-1.237-.916-2.355l.382-.162,1.561,1.814Zm3.214,8.32a1.019,1.019,0,0,0-.1-.172c-.463-1.223-1.05-2.77-1.7-4.472l.956-5.233h1.657l.956,5.233C61.057,59.911,60.445,61.524,59.973,62.772Zm1.193-11.924H58.74l-1.148-1.334,2.36-1,2.36,1Zm2.592,2.024q-.306.791-.61,1.58l-.417-2.283,1.561-1.814.382.162Q64.236,51.637,63.757,52.872Zm3.921-9.837-.157.373-.021.05-.163.392-.011.027-.148.359-.028.067-.035.084-.068.166-.085.207-.028.068-.219.539-.035.087-.113.278-.045.11-.118.294-.034.084q-.208.519-.432,1.082l-.015.037-.147.369-.028.07-.155.391,0,.007-.17.431-1.007-.428-.011,0-2.412-1.024,5.768-4.311Zm2.49-3.136h0a2.8,2.8,0,0,0-1.8.068,2.706,2.706,0,0,1-.7-1.756V35.228a7.216,7.216,0,0,1,6.039,5.739Zm7.945,14.5a3.25,3.25,0,1,1-3.25-3.25A3.253,3.253,0,0,1,78.113,54.394Z" transform="translate(-28.952)" fill="#0c2043"/>
      </g>
    </g>
  </g>
</svg>
