<svg id="Grupo_1059" data-name="Grupo 1059" xmlns="http://www.w3.org/2000/svg" width="82.139" height="70.934" viewBox="0 0 82.139 70.934">
  <g id="Grupo_1058" data-name="Grupo 1058">
    <path id="Trazado_958" data-name="Trazado 958" d="M399.182,288.794h-4.908a1.2,1.2,0,0,0,0,2.406h4.908a1.2,1.2,0,0,0,0-2.406Z" transform="translate(-330.012 -248.066)" fill="#0c2043"/>
    <path id="Trazado_959" data-name="Trazado 959" d="M76.965,34.921h-21.2a5.18,5.18,0,0,0-5.174,5.174V57.42H14.022a2.344,2.344,0,0,0-2.341,2.341V94.635H8.633V57.57a3.2,3.2,0,0,1,3.2-3.2H46.149a1.2,1.2,0,0,0,0-2.406H11.831a5.61,5.61,0,0,0-5.6,5.6V94.635h-2.8A3.435,3.435,0,0,0,0,98.066a7.8,7.8,0,0,0,7.789,7.789h66.56a7.8,7.8,0,0,0,7.789-7.789,3.435,3.435,0,0,0-3.431-3.431h-2.8V86.967a1.2,1.2,0,0,0-2.406,0v7.668H70.457V82.521h6.508a5.18,5.18,0,0,0,5.174-5.174V40.095a5.179,5.179,0,0,0-5.174-5.174ZM72.051,71.354v-1.6a1.2,1.2,0,1,0-2.406,0v1.6H63.788v-1.6a1.2,1.2,0,1,0-2.406,0v1.6H58.539V68.3a5.823,5.823,0,0,1,5.816-5.816h4.722A5.823,5.823,0,0,1,74.893,68.3v3.056ZM66.716,60.076A3.875,3.875,0,1,1,70.591,56.2,3.879,3.879,0,0,1,66.716,60.076Zm4.662.33a6.282,6.282,0,1,0-9.324,0A8.236,8.236,0,0,0,56.133,68.3v3.056H53V43.394H79.732v27.96H77.3V68.3a8.236,8.236,0,0,0-5.922-7.893ZM55.768,37.327h21.2a2.77,2.77,0,0,1,2.767,2.767v.893H53v-.893A2.77,2.77,0,0,1,55.768,37.327ZM34.542,72a1.826,1.826,0,0,1-.87-.793,4.233,4.233,0,0,0-3.708-2.19H22.9a2.5,2.5,0,0,1-2.495-2.495v-1.6H31.159c.351,0,.348.425.482.694a2.743,2.743,0,0,0,2.572,1.8.329.329,0,0,1,.329.329ZM20.876,73.4h.415a1.2,1.2,0,0,0,1.2-1.208l0-.79c.136.011.273.019.412.019h7.062a1.827,1.827,0,0,1,1.6.945,4.231,4.231,0,0,0,2.981,2.126l0,1.307-.4,0a1.2,1.2,0,0,0-1.2,1.183,5.225,5.225,0,0,1-10.44.045,1.2,1.2,0,0,0-1.2-1.173h-.43a.47.47,0,0,1-.469-.469V73.871A.47.47,0,0,1,20.876,73.4Zm8.683,10.776a3.038,3.038,0,0,0,.553,1.364,3.661,3.661,0,0,1-5.268,0,3.038,3.038,0,0,0,.568-1.5,7.385,7.385,0,0,0,4.147.139ZM22.686,86.72a6.066,6.066,0,0,0,9.583,0c4.242,1,7.973,3.564,8.524,7.915H14.162c.552-4.358,4.293-6.913,8.524-7.915ZM49.977,97.041a3.208,3.208,0,0,1-2.967,2H35.129a3.207,3.207,0,0,1-2.967-2Zm29.755,1.025a5.389,5.389,0,0,1-5.383,5.383H7.789a5.389,5.389,0,0,1-5.383-5.383,1.026,1.026,0,0,1,1.025-1.025H29.65a5.619,5.619,0,0,0,5.479,4.407H47.01a5.619,5.619,0,0,0,5.479-4.407H78.707a1.026,1.026,0,0,1,1.025,1.025ZM68.051,94.635H43.215c-.577-5.8-5.541-9.373-11.053-10.4-.34-.29-.19-.674-.226-1.093a7.21,7.21,0,0,0,3.326-5.036,2.382,2.382,0,0,0,1.693-2.29c0-1.681-.006-7.56-.006-8.071a2.738,2.738,0,0,0-2.735-2.735.33.33,0,0,1-.309-.217l-.173-.478a2.743,2.743,0,0,0-2.572-1.8H20.323A2.324,2.324,0,0,0,18,64.833V66.52a4.9,4.9,0,0,0,2.08,4l0,.582A2.876,2.876,0,0,0,18,73.873v1.516a2.881,2.881,0,0,0,2.209,2.8,7.171,7.171,0,0,0,2.809,4.61c-.048.745.131,1.137-.226,1.442a15.26,15.26,0,0,0-8.706,4.752V59.826H50.595V77.348a5.18,5.18,0,0,0,5.174,5.174H68.051V94.635Zm8.914-14.52h-21.2A2.77,2.77,0,0,1,53,77.348V73.761H79.732v3.587A2.77,2.77,0,0,1,76.965,80.115Z" transform="translate(0 -34.921)" fill="#0c2043"/>
  </g>
</svg>
