<svg id="CrediCardIcon" xmlns="http://www.w3.org/2000/svg" width="28.537" height="28.536" viewBox="0 0 28.537 28.536">
  <g id="Grupo_22" data-name="Grupo 22">
    <g id="Grupo_21" data-name="Grupo 21">
      <path id="Trazado_33" data-name="Trazado 33" d="M27.78,9.8,18.743.767a2.6,2.6,0,0,0-3.664,0L.756,15.091a2.6,2.6,0,0,0,0,3.663l1.114,1.114h0L9.36,27.358H8.323a.594.594,0,0,0,0,1.189h11.89a.594.594,0,0,0,0-1.189H13.889L27.78,13.467A2.593,2.593,0,0,0,27.78,9.8Zm-.841,2.823L12.615,26.95a1.391,1.391,0,0,1-.989.408h0a1.391,1.391,0,0,1-.989-.408l-7.5-7.5L16.888,5.693a.594.594,0,1,0-.841-.841L2.291,18.608,1.6,17.913a1.407,1.407,0,0,1,0-1.982L15.92,1.608a1.407,1.407,0,0,1,1.982,0l3.216,3.216L7.363,18.58a.594.594,0,0,0,.841.841L21.959,5.665l4.979,4.979A1.4,1.4,0,0,1,26.939,12.626Z" transform="translate(0 -0.011)"/>
      <path id="Trazado_38" data-name="Trazado 38" d="M310.267,55.768a.592.592,0,0,0,.42-.174l.252-.252a.594.594,0,0,0-.841-.841l-.252.252a.595.595,0,0,0,.421,1.015Z" transform="translate(-292.413 -51.299)"/>
      <path id="Trazado_39" data-name="Trazado 39" d="M99.993,355.107l-.252.252a.594.594,0,0,0,.841.841l.252-.252a.595.595,0,1,0-.841-.841Z" transform="translate(-94.017 -335.15)"/>
    </g>
  </g>
</svg>
