<svg id="CrediCardIcon" xmlns="http://www.w3.org/2000/svg" width="15.59" height="15.59" viewBox="0 0 15.59 15.59">
  <g id="Grupo_22" data-name="Grupo 22" transform="translate(-8.955 -8.955)">
    <g id="Grupo_21" data-name="Grupo 21">
      <path id="Trazado_34" data-name="Trazado 34" d="M166.351,305.115a.6.6,0,0,0-.841,0l-4.678,4.678a.595.595,0,0,0,.841.841l4.678-4.678A.6.6,0,0,0,166.351,305.115Z" transform="translate(-151.704 -287.945)"/>
      <path id="Trazado_35" data-name="Trazado 35" d="M192.919,384.791,191,386.709a.594.594,0,1,0,.841.841l1.919-1.919a.594.594,0,0,0-.841-.841Z" transform="translate(-180.19 -363.18)"/>
      <path id="Trazado_36" data-name="Trazado 36" d="M252.831,353.116l-.252.252a.594.594,0,1,0,.841.841l.252-.252a.594.594,0,0,0-.841-.841Z" transform="translate(-238.336 -333.271)"/>
      <path id="Trazado_37" data-name="Trazado 37" d="M347.147,160.843a.594.594,0,0,0-.841,0l-2.522,2.522a.594.594,0,0,0,0,.841l1.682,1.681a.595.595,0,0,0,.841,0l2.522-2.522a.594.594,0,0,0,0-.841Zm-1.261,3.783-.841-.841,1.682-1.682.841.841Z" transform="translate(-324.458 -151.714)"/>
    </g>
  </g>
</svg>
