<svg id="DialogIcon" xmlns="http://www.w3.org/2000/svg" width="19.38" height="4.584" viewBox="0 0 19.38 4.584">
  <path id="Trazado_255" data-name="Trazado 255" d="M310.412,125.145a2.292,2.292,0,1,0,2.289,2.289A2.295,2.295,0,0,0,310.412,125.145Zm0,3.41a1.118,1.118,0,1,1,1.115-1.121A1.122,1.122,0,0,1,310.412,128.555Zm0,0" transform="translate(-293.32 -125.145)"/>
  <path id="Trazado_256" data-name="Trazado 256" d="M195.115,125.145a2.292,2.292,0,1,0,2.295,2.289A2.295,2.295,0,0,0,195.115,125.145Zm0,3.41a1.118,1.118,0,1,1,1.121-1.121A1.122,1.122,0,0,1,195.115,128.555Zm0,0" transform="translate(-185.425 -125.145)"/>
  <path id="Trazado_257" data-name="Trazado 257" d="M79.914,125.145a2.292,2.292,0,1,0,2.295,2.289A2.292,2.292,0,0,0,79.914,125.145Zm0,3.41a1.118,1.118,0,1,1,1.121-1.121A1.119,1.119,0,0,1,79.914,128.555Zm0,0" transform="translate(-77.625 -125.145)"/>
</svg>
