<svg id="DialogIcon" xmlns="http://www.w3.org/2000/svg" width="29.346" height="27.35" viewBox="0 0 29.346 27.35">
  <path id="Trazado_254" data-name="Trazado 254" d="M27.315.07H2.031A2.033,2.033,0,0,0,0,2.1v16.58a2.033,2.033,0,0,0,2.031,2.031h.974v6.121a.587.587,0,0,0,.362.542.587.587,0,0,0,.639-.127l6.543-6.536H27.315a2.033,2.033,0,0,0,2.031-2.031V2.1A2.033,2.033,0,0,0,27.315.07Zm.857,18.611a.858.858,0,0,1-.857.857H10.307a.587.587,0,0,0-.415.172L4.179,25.417V20.125a.587.587,0,0,0-.587-.587H2.031a.858.858,0,0,1-.857-.857V2.1a.858.858,0,0,1,.857-.857H27.315a.858.858,0,0,1,.857.857Zm0,0" transform="translate(0 -0.07)"/>
</svg>
