<?xml version="1.0" ?><!DOCTYPE svg  PUBLIC '-//W3C//DTD SVG 1.1//EN'  'http://www.w3.org/Graphics/SVG/1.1/DTD/svg11.dtd'><svg enable-background="new 0 0 512 512" version="1.1" viewBox="0 0 512 512" xml:space="preserve" xmlns="http://www.w3.org/2000/svg" xmlns:xlink="http://www.w3.org/1999/xlink"><g id="Layer_1"/><g id="Layer_2"><g><path d="M419.5,291.7c0-0.1,0-0.2,0-0.2c0-0.2,0-0.3-0.1-0.5c0-0.1,0-0.2-0.1-0.3c0-0.1-0.1-0.3-0.1-0.4c0-0.1-0.1-0.2-0.1-0.4    c0-0.1,0-0.2-0.1-0.2l-62.5-162c-1.1-2.9-3.9-4.8-7-4.8h-187c-3.1,0-5.9,1.9-7,4.8L93,289.6c0,0.1,0,0.2-0.1,0.2    c0,0.1-0.1,0.2-0.1,0.4c0,0.1-0.1,0.3-0.1,0.4c0,0.1,0,0.2-0.1,0.3c0,0.2-0.1,0.3-0.1,0.5c0,0.1,0,0.2,0,0.2c0,0.2,0,0.4,0,0.6    c0,0,0,0.1,0,0.1v89.3c0,4.1,3.4,7.5,7.5,7.5h312c4.1,0,7.5-3.4,7.5-7.5v-89.3c0,0,0-0.1,0-0.1C419.5,292,419.5,291.8,419.5,291.7    z M167.6,137.8h176.7l56.7,147h-95.9c-1.5,0-3,0.4-4.2,1.3c-0.9,0.6-1.6,1.3-2.2,2.2l-17,25.3h-51.5l-17-25.3    c-0.2-0.3-0.5-0.7-0.8-1c-0.7-0.7-1.5-1.3-2.3-1.7c-0.6-0.3-1.2-0.5-1.8-0.6c-0.5-0.1-1.1-0.2-1.6-0.1h-95.8L167.6,137.8z     M404.5,374.2h-297v-74.3h95.4l17.1,25.5c1.4,2.1,3.7,3.3,6.2,3.3h59.5c2.5,0,4.8-1.2,6.2-3.3l17.1-25.5h95.4V374.2z"/></g></g></svg>