<svg id="EventIcon" xmlns="http://www.w3.org/2000/svg" width="26.634" height="27.389" viewBox="0 0 26.634 27.389">
  <g id="Grupo_24" data-name="Grupo 24" transform="translate(0)">
    <g id="Grupo_23" data-name="Grupo 23" transform="translate(0)">
      <path id="Trazado_48" data-name="Trazado 48" d="M29.386,12.524h0V5.616a3.006,3.006,0,0,0-2.986-3h-.372V2.15a2.121,2.121,0,0,0-4.242,0v.468H14.009V2.15a2.15,2.15,0,0,0-4.3,0v.468H9.387a3,3,0,0,0-2.978,3V21.478a3,3,0,0,0,2.978,3h9.344A8.095,8.095,0,1,0,29.386,12.524ZM22.964,2.15a.929.929,0,0,1,.913-.946H23.9a.938.938,0,0,1,.948.928q0,.009,0,.018V4.445H22.964Zm-12.078,0a.956.956,0,0,1,.966-.946h0a.962.962,0,0,1,.975.946V4.445H10.887Zm-3.3,3.466A1.819,1.819,0,0,1,9.387,3.8h.321V5.059a.576.576,0,0,0,.6.565h3.1a.581.581,0,0,0,.6-.565V3.8h7.777V5.059a.549.549,0,0,0,.533.565h3.133a.558.558,0,0,0,.576-.539c0-.009,0-.017,0-.026V3.8H26.4a1.826,1.826,0,0,1,1.808,1.819V7.509H7.587ZM9.387,23.3a1.82,1.82,0,0,1-1.8-1.82V8.687H28.208v3.2A8.1,8.1,0,0,0,17.915,23.3ZM24.95,26.2a6.91,6.91,0,1,1,6.91-6.91h0A6.918,6.918,0,0,1,24.95,26.2Z" transform="translate(-6.409)"/>
    </g>
  </g>
</svg>
