<?xml version="1.0" encoding="iso-8859-1"?>
<!-- Generator: Adobe Illustrator 19.0.0, SVG Export Plug-In . SVG Version: 6.00 Build 0)  -->
<svg version="1.1" id="Capa_1" xmlns="http://www.w3.org/2000/svg" xmlns:xlink="http://www.w3.org/1999/xlink" x="0px" y="0px"
	 viewBox="0 0 512 512" style="enable-background:new 0 0 512 512;" xml:space="preserve">
<g>
	<g>
		<path d="M146.962,465.354l-0.349-0.183c-4.894-2.56-10.937-0.668-13.496,4.227c-2.56,4.894-0.667,10.936,4.227,13.496l0.349,0.183
			c1.48,0.774,3.064,1.141,4.626,1.141c3.603,0,7.084-1.953,8.87-5.368C153.749,473.956,151.856,467.914,146.962,465.354z"/>
	</g>
</g>
<g>
	<g>
		<path d="M365.621,24.598l-0.366-0.174c-4.994-2.358-10.954-0.221-13.313,4.772c-2.358,4.994-0.221,10.954,4.773,13.313
			l0.266,0.126c1.394,0.667,2.864,0.984,4.313,0.984c3.728,0,7.307-2.095,9.025-5.682C372.705,32.957,370.602,26.984,365.621,24.598
			z"/>
	</g>
</g>
<g>
	<g>
		<path d="M458.884,99.893c8.078-13.102,6.453-30.536-4.894-41.883c-13.257-13.256-34.827-13.256-48.084,0
			c-13.256,13.257-13.256,34.827,0,48.084c6.628,6.628,15.335,9.942,24.042,9.942c4.731,0,9.46-0.987,13.858-2.944
			C474.939,153.992,492,204.389,492,256c0,35.107-7.522,68.885-22.357,100.394c-2.353,4.997-0.209,10.955,4.788,13.307
			c1.377,0.648,2.826,0.955,4.253,0.955c3.753,0,7.35-2.123,9.054-5.743C503.837,330.719,512,294.075,512,256
			C512,199.559,493.186,144.456,458.884,99.893z M439.847,91.951c-0.043,0.043-0.09,0.078-0.133,0.12
			c-0.005,0.004-0.01,0.007-0.015,0.011c-0.114,0.094-0.216,0.198-0.325,0.296c-5.485,5.012-14.019,4.88-19.325-0.427
			c-5.459-5.458-5.459-14.34,0-19.799c2.729-2.729,6.314-4.094,9.899-4.094c3.585,0,7.17,1.365,9.899,4.094
			C445.306,77.61,445.306,86.492,439.847,91.951z"/>
	</g>
</g>
<g>
	<g>
		<path d="M106.094,405.906c-10.231-10.229-25.409-12.557-37.9-6.998C37.061,358.008,20,307.611,20,256
			c0-32.6,6.521-64.163,19.382-93.813c2.198-5.067-0.128-10.956-5.195-13.154c-5.065-2.195-10.955,0.128-13.154,5.195
			C7.077,186.405,0,220.646,0,256c0,56.441,18.814,111.544,53.116,156.107c-8.078,13.102-6.453,30.536,4.894,41.883
			c6.628,6.628,15.335,9.942,24.042,9.942c8.707,0,17.414-3.314,24.042-9.942C119.35,440.733,119.35,419.163,106.094,405.906z
			 M91.951,439.848c-5.458,5.459-14.341,5.459-19.799,0c-5.459-5.458-5.459-14.34,0-19.799c0.042-0.042,0.089-0.077,0.132-0.119
			c0.005-0.004,0.011-0.008,0.016-0.012c0.114-0.094,0.216-0.198,0.325-0.296c2.665-2.434,6.042-3.668,9.427-3.668
			c3.585,0,7.17,1.365,9.899,4.094C97.41,425.507,97.41,434.389,91.951,439.848z"/>
	</g>
</g>
<g>
	<g>
		<path d="M453.99,405.906c-13.257-13.256-34.827-13.256-48.084,0c-10.23,10.23-12.557,25.409-6.998,37.9
			C358.008,474.939,307.611,492,256,492c-27.132,0-53.729-4.563-79.05-13.563c-5.204-1.85-10.922,0.869-12.771,6.073
			c-1.849,5.204,0.869,10.922,6.073,12.771C197.729,507.048,226.579,512,256,512c56.441,0,111.544-18.814,156.107-53.116
			c5.449,3.359,11.643,5.048,17.841,5.048c8.707,0,17.414-3.314,24.042-9.942C467.246,440.733,467.246,419.163,453.99,405.906z
			 M439.848,439.848c-5.458,5.459-14.341,5.459-19.799,0c-0.043-0.043-0.078-0.09-0.12-0.133c-0.004-0.005-0.007-0.01-0.011-0.015
			c-0.094-0.114-0.198-0.216-0.296-0.325c-5.012-5.487-4.88-14.02,0.427-19.326c2.729-2.729,6.314-4.094,9.899-4.094
			c3.585,0,7.17,1.365,9.899,4.094C445.307,425.507,445.307,434.389,439.848,439.848z"/>
	</g>
</g>
<g>
	<g>
		<path d="M331.427,11.297C307.083,3.801,281.706,0,256,0C199.559,0,144.456,18.814,99.893,53.116
			c-13.102-8.078-30.536-6.452-41.883,4.894c-13.256,13.257-13.256,34.827,0,48.084c6.628,6.628,15.335,9.942,24.042,9.942
			c8.707,0,17.414-3.314,24.042-9.942c10.23-10.23,12.557-25.409,6.998-37.9C153.992,37.061,204.389,20,256,20
			c23.708,0,47.105,3.503,69.541,10.411c5.276,1.624,10.875-1.335,12.5-6.614C339.666,18.519,336.705,12.922,331.427,11.297z
			 M91.95,91.952c-5.458,5.459-14.341,5.459-19.799,0c-5.458-5.459-5.458-14.341,0.001-19.8c2.729-2.729,6.314-4.094,9.899-4.094
			c3.585,0,7.17,1.365,9.899,4.094c0.043,0.043,0.078,0.09,0.12,0.133c0.004,0.005,0.007,0.01,0.011,0.015
			c0.036,0.044,0.078,0.081,0.115,0.125C97.395,77.902,97.321,86.581,91.95,91.952z"/>
	</g>
</g>
<g>
	<g>
		<path d="M445.947,223.214c-0.002-5.521-4.479-9.996-10-9.996H415.49c-3.727-13.976-9.249-27.313-16.485-39.816l14.465-14.465
			c3.905-3.905,3.905-10.237,0-14.143L367.205,98.53c-3.905-3.904-10.237-3.904-14.143,0l-14.465,14.465
			c-12.503-7.237-25.84-12.758-39.816-16.485V76.055c0-5.521-4.475-9.998-9.996-10l-65.429-0.024c-0.001,0-0.002,0-0.004,0
			c-2.651,0-5.194,1.053-7.07,2.928c-1.876,1.875-2.93,4.419-2.93,7.072V96.51c-13.976,3.726-27.313,9.248-39.818,16.485
			l-14.518-14.518c-3.905-3.905-10.233-3.906-14.139-0.004l-46.291,46.24c-1.877,1.875-2.932,4.419-2.933,7.072
			c0,2.653,1.053,5.198,2.929,7.074l14.543,14.543c-7.237,12.504-12.759,25.842-16.486,39.818H76.055c-5.521,0-9.998,4.475-10,9.996
			l-0.024,65.429c-0.001,2.653,1.052,5.198,2.928,7.074c1.876,1.876,4.419,2.93,7.072,2.93h20.61
			c3.727,13.977,9.249,27.314,16.486,39.819L98.53,353.063c-3.905,3.905-3.905,10.237,0,14.143l46.265,46.265
			c3.905,3.904,10.237,3.904,14.143,0l14.596-14.597c12.504,7.237,25.842,12.759,39.819,16.485v20.61
			c0,2.653,1.054,5.197,2.93,7.072c1.875,1.875,4.418,2.928,7.07,2.928c0.001,0,0.002,0,0.004,0l65.429-0.024
			c5.521-0.002,9.996-4.479,9.996-10v-20.586c13.976-3.727,27.313-9.249,39.818-16.486l14.543,14.543
			c3.905,3.904,10.237,3.904,14.143,0l46.265-46.265c3.905-3.905,3.905-10.237,0-14.143l-14.544-14.543
			c7.237-12.505,12.759-25.842,16.485-39.818h20.479c2.653,0,5.197-1.054,7.072-2.93c1.875-1.876,2.929-4.421,2.928-7.074
			L445.947,223.214z M407.616,278.649c-4.713,0-8.787,3.291-9.777,7.899c-3.684,17.144-10.369,33.291-19.871,47.993
			c-2.558,3.958-2.005,9.166,1.328,12.499l13.042,13.042l-32.123,32.123l-13.041-13.042c-3.333-3.333-8.54-3.886-12.5-1.327
			c-14.701,9.501-30.848,16.187-47.993,19.871c-4.608,0.99-7.899,5.063-7.899,9.777v18.466l-45.429,0.017v-18.482
			c0-4.713-3.291-8.787-7.899-9.777c-17.145-3.684-33.292-10.369-47.993-19.871c-1.665-1.076-3.55-1.602-5.425-1.602
			c-2.583-0.002-5.144,0.996-7.076,2.928l-13.094,13.094l-32.123-32.123l13.094-13.094c3.333-3.333,3.886-8.541,1.328-12.5
			c-9.502-14.701-16.188-30.848-19.871-47.993c-0.99-4.608-5.063-7.899-9.777-7.899H86.035l0.017-45.429h18.466
			c4.713,0,8.787-3.291,9.777-7.899c3.684-17.145,10.37-33.292,19.871-47.993c2.559-3.958,2.005-9.167-1.327-12.5l-13.038-13.037
			l32.141-32.105l13.02,13.02c3.333,3.333,8.541,3.886,12.499,1.328c14.702-9.501,30.849-16.187,47.993-19.871
			c4.608-0.99,7.899-5.063,7.899-9.777v-18.35l45.429,0.017v18.335c0,4.713,3.291,8.787,7.899,9.777
			c17.145,3.684,33.292,10.37,47.991,19.871c3.958,2.559,9.167,2.005,12.499-1.327l12.963-12.963l32.123,32.123l-12.963,12.963
			c-3.333,3.333-3.886,8.541-1.327,12.499c9.501,14.7,16.187,30.846,19.871,47.991c0.99,4.608,5.063,7.899,9.777,7.899h18.335
			l0.017,45.429H407.616z"/>
	</g>
</g>
<g>
	<g>
		<path d="M337.886,229.665c-1.688-5.259-7.32-8.155-12.577-6.467c-5.259,1.687-8.154,7.318-6.467,12.577
			c7.599,23.687,1.402,49.32-16.172,66.895c-25.734,25.734-67.605,25.733-93.338,0c-25.733-25.734-25.733-67.605,0-93.338
			c17.158-17.158,42.282-23.512,65.564-16.584c5.292,1.575,10.862-1.439,12.437-6.732c1.575-5.293-1.438-10.862-6.732-12.437
			c-30.328-9.027-63.056-0.746-85.412,21.611c-33.531,33.531-33.531,88.091,0,121.623c16.766,16.764,38.788,25.146,60.811,25.146
			s44.045-8.383,60.812-25.148C339.71,293.913,347.785,260.52,337.886,229.665z"/>
	</g>
</g>
<g>
	<g>
		<path d="M317.736,196.128c-0.304-0.313-0.61-0.624-0.919-0.933c-3.901-3.908-10.233-3.915-14.142-0.012
			c-3.909,3.902-3.914,10.233-0.012,14.142c0.242,0.242,0.482,0.485,0.719,0.73c1.961,2.021,4.568,3.037,7.178,3.037
			c2.508,0,5.02-0.938,6.962-2.823C321.486,206.423,321.582,200.092,317.736,196.128z"/>
	</g>
</g>
<g>
</g>
<g>
</g>
<g>
</g>
<g>
</g>
<g>
</g>
<g>
</g>
<g>
</g>
<g>
</g>
<g>
</g>
<g>
</g>
<g>
</g>
<g>
</g>
<g>
</g>
<g>
</g>
<g>
</g>
</svg>
