<svg xmlns="http://www.w3.org/2000/svg" version="1.1" xmlns:xlink="http://www.w3.org/1999/xlink" xmlns:svgjs="http://svgjs.com/svgjs" width="512" height="512" x="0" y="0" viewBox="0 0 512 512" style="enable-background:new 0 0 512 512" xml:space="preserve" class=""><g><g><g><g><g><g><g id="XMLID_177_"><circle cx="256" cy="256" fill="#c8dd3a" r="256" data-original="#ffe35a" class=""></circle></g></g></g></g></g><path d="m512 256c0-29.799-5.109-58.401-14.47-84.999l-114.154-114.155-251.689 401.304 39.447 39.428c26.561 9.33 55.117 14.422 84.866 14.422 141.385 0 256-114.615 256-256z" fill="#91a227" data-original="#ffbf1f" class=""></path><g><path d="m176.84 56.846c-21.988 0-39.813 17.825-39.813 39.813v318.681c0 21.988 17.825 39.813 39.813 39.813h79.16l70.097-204.638-70.097-193.669z" fill="#ffffff" data-original="#ffffff" class=""></path></g><path d="m341.843 56.846h-85.843v398.308h85.843c21.988 0 39.813-17.825 39.813-39.813v-318.682c0-21.988-17.825-39.813-39.813-39.813z" fill="#e2e2e2" data-original="#e2e2e2" class=""></path><g><path d="m167.521 436.325c-9.908 0-17.968-8.06-17.968-17.968v-324.714c0-9.908 8.06-17.968 17.968-17.968h10.85l18.403 36.294h59.226l48.511-45.265-48.511-26.635h-88.479c-29.541 0-53.574 24.033-53.574 53.574v324.714c0 29.541 24.033 53.574 53.574 53.574h88.479l32.134-17.557-32.134-18.049z" fill="#444b51" data-original="#444b51" class=""></path><path d="m344.479 40.069h-88.479v71.9h59.227l18.402-36.294h10.85c9.908 0 17.968 8.06 17.968 17.968v324.714c0 9.908-8.06 17.968-17.968 17.968h-88.479v35.606h88.479c29.541 0 53.574-24.033 53.574-53.574v-324.714c0-29.541-24.033-53.574-53.574-53.574z" fill="#30373d" data-original="#30373d" class=""></path><path d="m246.959 224.193-31.126-31.126-31.013 31.012 62.139 62.139 9.041-9.041 28.746-55.744-28.746-6.281z" fill="#adea71" data-original="#adea71" class=""></path><path d="m298.529 172.623-42.529 42.529v62.025l73.542-73.542z" fill="#58b771" data-original="#58b771" class=""></path><path d="m192.586 324.125v39.332h63.414l38.146-19.666-38.146-19.666z" fill="#e38d46" data-original="#ea285b" class=""></path><path d="m256 324.125h70.097v39.331h-70.097z" fill="#c96e23" data-original="#af0e5f" class=""></path></g></g></g></svg>