<svg xmlns="http://www.w3.org/2000/svg" version="1.1" xmlns:xlink="http://www.w3.org/1999/xlink" xmlns:svgjs="http://svgjs.com/svgjs" width="512" height="512" x="0" y="0" viewBox="0 0 512 512" style="enable-background:new 0 0 512 512" xml:space="preserve" class=""><g><g xmlns="http://www.w3.org/2000/svg"><circle cx="412" cy="256" r="10" fill="#000000" data-original="#000000" class=""></circle><path d="m502 45h-80v-30c0-5.523-4.477-10-10-10h-60c-5.523 0-10 4.477-10 10v30h-80c-5.523 0-10 4.477-10 10v60.467c-10.187-5.396-21.786-8.467-34.094-8.467h-125.812c-40.304 0-73.094 32.79-73.094 73.094 0 12.813 3.386 25.451 9.793 36.547l19.191 33.24c-30.596 29.206-47.984 69.608-47.984 112.119 0 40.978 16.251 78.249 45.761 104.946 28.549 25.829 67.344 40.054 109.239 40.054 41.866 0 80.635-14.205 109.178-40h77.822v30c0 5.523 4.477 10 10 10h60c5.523 0 10-4.477 10-10v-30h80c5.523 0 10-4.477 10-10v-80c0-5.523-4.477-10-10-10h-80v-66c0-5.51-4.49-10-10-10s-10 4.49-10 10v66h-40v-222h40v66c0 5.51 4.49 10 10 10s10-4.49 10-10v-66h80c5.523 0 10-4.477 10-10v-80c0-5.523-4.477-10-10-10zm-140-20h40v20h-40zm-90 40h80 60 80v20h-220zm-252 297c0-39.452 17.2-76.824 47.19-102.534 3.654-3.133 4.559-8.424 2.152-12.592l-23.229-40.233c-4.653-8.06-7.113-17.24-7.113-26.547 0-29.276 23.818-53.094 53.094-53.094h125.812c29.276 0 53.094 23.818 53.094 53.094 0 9.307-2.46 18.487-7.113 26.547l-23.229 40.233c-2.407 4.168-1.502 9.459 2.152 12.592 29.99 25.71 47.19 63.082 47.19 102.534 0 71.262-58.038 125-135 125s-135-53.738-135-125zm382 125h-40v-20h40zm90-40h-80-60-69.605c4.715-6.317 8.861-13.001 12.406-20h197.199zm-80-60h80v20h-188.971c2.094-6.486 3.726-13.165 4.882-20h44.089zm-70-20h-32.091c.054-1.661.091-3.326.091-5 0-42.511-17.388-82.913-47.984-112.119l19.191-33.24c6.407-11.096 9.793-23.734 9.793-36.547 0-12.711-3.267-24.671-8.997-35.094h59.997zm150-242h-80-60-80v-20h220z" fill="#000000" data-original="#000000" class=""></path><path d="m251 180.094c0-18.248-14.846-33.094-33.094-33.094h-125.812c-18.248 0-33.094 14.846-33.094 33.094 0 5.801 1.533 11.523 4.434 16.547l22.291 38.608c2.583 4.475 8.151 6.245 12.845 4.082 17.755-8.182 36.741-12.331 56.43-12.331s38.675 4.149 56.431 12.331c1.351.623 2.775.919 4.179.919 3.473 0 6.826-1.815 8.666-5.001l22.291-38.608c2.9-5.024 4.433-10.745 4.433-16.547zm-21.754 6.547-17.864 30.94c-17.939-7.026-36.862-10.581-56.382-10.581s-38.443 3.555-56.382 10.582l-17.864-30.94c-1.148-1.988-1.754-4.252-1.754-6.548 0-7.22 5.874-13.094 13.094-13.094h125.812c7.22 0 13.094 5.874 13.094 13.094 0 2.296-.606 4.56-1.754 6.547z" fill="#000000" data-original="#000000" class=""></path></g></g></svg>