<svg id="HandCardIcon" xmlns="http://www.w3.org/2000/svg" width="11.112" height="10.146" viewBox="0 0 11.112 10.146">
  <path id="Trazado_21" data-name="Trazado 21" d="M66.075,67.331a1.256,1.256,0,0,0,1.256-1.256V63.756A1.256,1.256,0,0,0,66.075,62.5H63.756A1.256,1.256,0,0,0,62.5,63.756v2.319a1.256,1.256,0,0,0,1.256,1.256Zm-2.609-1.256V65.4h.966v-.966h-.966v-.676a.29.29,0,0,1,.29-.29h2.319a.29.29,0,0,1,.29.29v.676H65.4V65.4h.966v.676a.29.29,0,0,1-.29.29H63.756A.29.29,0,0,1,63.466,66.075Zm0,0" transform="translate(-62.5 -62.5)"/>
  <path id="Trazado_22" data-name="Trazado 22" d="M78.125,265.625h1.932v.966H78.125Zm0,0" transform="translate(-77.642 -259.344)"/>
  <path id="Trazado_23" data-name="Trazado 23" d="M78.125,359.375h1.932v.966H78.125Zm0,0" transform="translate(-77.642 -350.196)"/>
  <path id="Trazado_24" data-name="Trazado 24" d="M359.375,359.375h1.932v.966h-1.932Zm0,0" transform="translate(-350.196 -350.196)"/>
  <path id="Trazado_25" data-name="Trazado 25" d="M171.875,265.625h1.932v.966h-1.932Zm0,0" transform="translate(-168.493 -259.344)"/>
  <path id="Trazado_26" data-name="Trazado 26" d="M265.625,265.625h1.932v.966h-1.932Zm0,0" transform="translate(-259.345 -259.344)"/>
  <path id="Trazado_27" data-name="Trazado 27" d="M359.375,265.625h1.932v.966h-1.932Zm0,0" transform="translate(-350.196 -259.344)"/>
</svg>
