<svg id="HandCardIcon" xmlns="http://www.w3.org/2000/svg" width="28.987" height="28.987" viewBox="0 0 28.987 28.987">
  <path id="Trazado_20" data-name="Trazado 20" d="M24.156,5.118v-2.7A2.419,2.419,0,0,0,21.74,0H2.416A2.419,2.419,0,0,0,0,2.416V13.044a2.411,2.411,0,0,0,2.166,2.391l1.816,4.714A2.416,2.416,0,0,0,7.1,21.535l11.341-4.369a6.984,6.984,0,0,0,.6,6.2l.278.444V28.5a.483.483,0,0,0,.483.483h8.7a.483.483,0,0,0,.483-.483V12.557A6.323,6.323,0,0,0,27.136,8.1Zm0,2.889,1.466,3.806a1.449,1.449,0,0,1-.832,1.873l-.838.324a2.416,2.416,0,0,0,.2-.966ZM.966,13.044V2.416A1.45,1.45,0,0,1,2.416.966H21.74A1.45,1.45,0,0,1,23.19,2.416V5.486h0l0,.011v7.547a1.469,1.469,0,0,1-.033.25L18.732,8.869a2.577,2.577,0,0,0-3.72,3.564L16.9,14.494H2.416A1.45,1.45,0,0,1,.966,13.044ZM7.156,15.46,3.72,16.783,3.212,15.46Zm-.4,5.173A1.449,1.449,0,0,1,4.884,19.8l-.815-2.119L9.836,15.46v0h7.948l.628.685Zm21.264,7.388h-7.73V24.156h7.73Zm0-4.831H20.076l-.21-.335a6.025,6.025,0,0,1-.122-6.187.483.483,0,0,0-.063-.566l-3.959-4.319a1.611,1.611,0,0,1,2.326-2.228l7.7,7.7.683-.683L24.643,14.78l.5-.193a2.416,2.416,0,0,0,1.385-3.121L24.888,7.22l1.565,1.568a5.35,5.35,0,0,1,1.568,3.769Zm0,0"/>
  <path id="Trazado_28" data-name="Trazado 28" d="M656.25,78.125h.966v1.449h-.966Zm0,0" transform="translate(-635.959 -75.709)"/>
  <path id="Trazado_29" data-name="Trazado 29" d="M593.75,78.125h.966v1.449h-.966Zm0,0" transform="translate(-575.392 -75.709)"/>
  <path id="Trazado_30" data-name="Trazado 30" d="M531.25,78.125h.966v1.449h-.966Zm0,0" transform="translate(-514.824 -75.709)"/>
  <path id="Trazado_31" data-name="Trazado 31" d="M468.75,78.125h.966v1.449h-.966Zm0,0" transform="translate(-454.256 -75.709)"/>
  <path id="Trazado_32" data-name="Trazado 32" d="M687.5,812.5h.966v.966H687.5Zm0,0" transform="translate(-666.243 -787.378)"/>
</svg>
