<svg id="LandscapeIcon" xmlns="http://www.w3.org/2000/svg" width="12.947" height="13.533" viewBox="0 0 12.947 13.533">
  <path id="Trazado_65" data-name="Trazado 65" d="M197.089,127.138a.412.412,0,1,0-.692.449,8.194,8.194,0,0,1,1.321,4.472,8.3,8.3,0,0,1-.046.874l-2.222-1.776a1.056,1.056,0,0,0-1.328.012l-2.054,1.7-3.282-2.623a1.056,1.056,0,0,0-1.328.012l-1.713,1.418a.412.412,0,1,0,.526.635l1.713-1.418a.228.228,0,0,1,.287,0l3.541,2.83,0,0,4.194,3.352a8.242,8.242,0,0,1-2.949,2.4.412.412,0,1,0,.358.743,9.055,9.055,0,0,0,3.67-13.079Zm-.608,9.26-3.756-3,1.922-1.592a.228.228,0,0,1,.287,0l2.583,2.065A8.178,8.178,0,0,1,196.481,136.4Z" transform="translate(-185.595 -126.725)"/>
  <path id="Trazado_66" data-name="Trazado 66" d="M273.271,124.509a1.654,1.654,0,1,0,1.654-1.654A1.656,1.656,0,0,0,273.271,124.509Zm2.484,0a.829.829,0,1,1-.829-.829A.83.83,0,0,1,275.755,124.509Z" transform="translate(-268.449 -122.855)"/>
</svg>
