<svg id="LandscapeIcon" xmlns="http://www.w3.org/2000/svg" width="24.182" height="28.206" viewBox="0 0 24.182 28.206">
  <path id="Trazado_63" data-name="Trazado 63" d="M57.223,3.541a12.091,12.091,0,0,0-20.641,8.55c0,5.29,7.418,12.627,10.607,15.536a2.192,2.192,0,0,0,2.967,0c3.189-2.909,10.607-10.246,10.607-15.536a12.012,12.012,0,0,0-3.541-8.55ZM49.6,27.018a1.37,1.37,0,0,1-1.855,0,60.947,60.947,0,0,1-6.31-6.651c-2.673-3.359-4.028-6.143-4.028-8.275a11.266,11.266,0,1,1,22.532,0c0,2.132-1.355,4.916-4.028,8.275A60.941,60.941,0,0,1,49.6,27.018Z" transform="translate(-36.582)"/>
  <path id="Trazado_64" data-name="Trazado 64" d="M102.892,72.3A8.232,8.232,0,0,1,93.546,68l2.782-2.3a.412.412,0,1,0-.526-.635l-2.6,2.154a8.226,8.226,0,0,1,13.557-8.67.412.412,0,0,0,.587-.579A9.051,9.051,0,1,0,100.9,73.37a9.087,9.087,0,0,0,2.189-.267.412.412,0,1,0-.2-.8Z" transform="translate(-88.811 -52.228)"/>
</svg>
