<svg xmlns="http://www.w3.org/2000/svg" xmlns:xlink="http://www.w3.org/1999/xlink" viewBox="0 0 500 500"><defs><clipPath id="freepik--clip-path--inject-165"><rect x="107.08" y="115.68" width="161.75" height="315.66" rx="14.52" style="fill:#263238;stroke:#263238;stroke-linecap:round;stroke-linejoin:round"></rect></clipPath><clipPath id="freepik--clip-path-2--inject-165"><rect x="114.28" y="137.12" width="147.37" height="275.49" style="fill:#91A227;stroke:#263238;stroke-linecap:round;stroke-linejoin:round"></rect></clipPath><clipPath id="freepik--clip-path-3--inject-165"><path d="M163.27,253.55s-4.51,71.61,22.8,98.92c0,0,28.81-19.78,28.81-98.06Z" style="fill:#fff;stroke:#263238;stroke-linecap:round;stroke-linejoin:round;stroke-width:1.01px"></path></clipPath></defs><g id="freepik--background-simple--inject-165"><path d="M62.72,205.62s-13.83,61,26.14,114.47S198,394.7,253.67,413.3s107.5-2.11,126.7-48.86S360,292.17,350.91,230.88,348.64,152,307.82,105.11s-124-46.33-179.89,1.17S62.72,205.62,62.72,205.62Z" style="fill:#91A227"></path><path d="M62.72,205.62s-13.83,61,26.14,114.47S198,394.7,253.67,413.3s107.5-2.11,126.7-48.86S360,292.17,350.91,230.88,348.64,152,307.82,105.11s-124-46.33-179.89,1.17S62.72,205.62,62.72,205.62Z" style="fill:#fff;opacity:0.7000000000000001"></path></g><g id="freepik--Bottle--inject-165"><rect x="275.32" y="270.6" width="79.43" height="160.89" rx="4.51" style="fill:#fff;stroke:#263238;stroke-linecap:round;stroke-linejoin:round;stroke-width:1.01px"></rect><rect x="277.46" y="291.71" width="75.16" height="135.94" rx="4.51" style="fill:#91A227"></rect><rect x="277.46" y="291.71" width="75.16" height="135.94" rx="4.51" style="fill:#fff;opacity:0.5"></rect><rect x="296.15" y="235.9" width="37.79" height="34.7" style="fill:#263238;stroke:#263238;stroke-linecap:round;stroke-linejoin:round;stroke-width:1.01px"></rect><line x1="299.3" y1="239.33" x2="299.3" y2="266.86" style="fill:none;stroke:#fff;stroke-linecap:round;stroke-linejoin:round;stroke-width:1.01px"></line><line x1="305.14" y1="239.33" x2="305.14" y2="266.86" style="fill:none;stroke:#fff;stroke-linecap:round;stroke-linejoin:round;stroke-width:1.01px"></line><line x1="313.48" y1="248.09" x2="313.48" y2="266.86" style="fill:none;stroke:#fff;stroke-linecap:round;stroke-linejoin:round;stroke-width:1.01px"></line><line x1="313.48" y1="239.33" x2="313.48" y2="243.92" style="fill:none;stroke:#fff;stroke-linecap:round;stroke-linejoin:round;stroke-width:1.01px"></line><rect x="279.86" y="304.74" width="70.36" height="77.65" style="fill:#fff"></rect><circle cx="314.57" cy="345.57" r="26.06" style="fill:#263238"></circle><rect x="309.8" y="327.64" width="9.54" height="35.86" style="fill:#91A227"></rect><rect x="309.8" y="327.64" width="9.54" height="35.86" transform="translate(660.14 31) rotate(90)" style="fill:#91A227"></rect></g><g id="freepik--Pills--inject-165"><rect x="309.06" y="357.9" width="120.27" height="73.93" rx="4.75" style="fill:#fff;stroke:#263238;stroke-linecap:round;stroke-linejoin:round"></rect><path d="M320.57,390h0a4.44,4.44,0,0,1-4.44-4.44v-12a4.44,4.44,0,0,1,4.44-4.45h0a4.45,4.45,0,0,1,4.45,4.45v12A4.44,4.44,0,0,1,320.57,390Z" style="fill:#263238;stroke:#263238;stroke-linecap:round;stroke-linejoin:round;stroke-width:1.01px"></path><line x1="323.58" y1="373.15" x2="323.58" y2="380.59" style="fill:none;stroke:#fff;stroke-linecap:round;stroke-linejoin:round;stroke-width:1.01px"></line><line x1="323.58" y1="382.51" x2="323.58" y2="386.59" style="fill:none;stroke:#fff;stroke-linecap:round;stroke-linejoin:round;stroke-width:1.01px"></line><path d="M340,390h0a4.44,4.44,0,0,1-4.44-4.44v-12a4.44,4.44,0,0,1,4.44-4.45h0a4.44,4.44,0,0,1,4.44,4.45v12A4.44,4.44,0,0,1,340,390Z" style="fill:#263238;stroke:#263238;stroke-linecap:round;stroke-linejoin:round;stroke-width:1.01px"></path><line x1="343.02" y1="373.15" x2="343.02" y2="380.59" style="fill:none;stroke:#fff;stroke-linecap:round;stroke-linejoin:round;stroke-width:1.01px"></line><line x1="343.02" y1="382.51" x2="343.02" y2="386.59" style="fill:none;stroke:#fff;stroke-linecap:round;stroke-linejoin:round;stroke-width:1.01px"></line><path d="M359.47,390h0a4.44,4.44,0,0,1-4.44-4.44v-12a4.44,4.44,0,0,1,4.44-4.45h0a4.44,4.44,0,0,1,4.44,4.45v12A4.44,4.44,0,0,1,359.47,390Z" style="fill:#263238;stroke:#263238;stroke-linecap:round;stroke-linejoin:round;stroke-width:1.01px"></path><line x1="362.47" y1="373.15" x2="362.47" y2="380.59" style="fill:none;stroke:#fff;stroke-linecap:round;stroke-linejoin:round;stroke-width:1.01px"></line><line x1="362.47" y1="382.51" x2="362.47" y2="386.59" style="fill:none;stroke:#fff;stroke-linecap:round;stroke-linejoin:round;stroke-width:1.01px"></line><path d="M378.92,390h0a4.44,4.44,0,0,1-4.44-4.44v-12a4.44,4.44,0,0,1,4.44-4.45h0a4.44,4.44,0,0,1,4.44,4.45v12A4.44,4.44,0,0,1,378.92,390Z" style="fill:#263238;stroke:#263238;stroke-linecap:round;stroke-linejoin:round;stroke-width:1.01px"></path><line x1="381.92" y1="373.15" x2="381.92" y2="380.59" style="fill:none;stroke:#fff;stroke-linecap:round;stroke-linejoin:round;stroke-width:1.01px"></line><line x1="381.92" y1="382.51" x2="381.92" y2="386.59" style="fill:none;stroke:#fff;stroke-linecap:round;stroke-linejoin:round;stroke-width:1.01px"></line><path d="M398.37,390h0a4.44,4.44,0,0,1-4.45-4.44v-12a4.45,4.45,0,0,1,4.45-4.45h0a4.44,4.44,0,0,1,4.44,4.45v12A4.44,4.44,0,0,1,398.37,390Z" style="fill:#263238;stroke:#263238;stroke-linecap:round;stroke-linejoin:round;stroke-width:1.01px"></path><line x1="401.37" y1="373.15" x2="401.37" y2="380.59" style="fill:none;stroke:#fff;stroke-linecap:round;stroke-linejoin:round;stroke-width:1.01px"></line><line x1="401.37" y1="382.51" x2="401.37" y2="386.59" style="fill:none;stroke:#fff;stroke-linecap:round;stroke-linejoin:round;stroke-width:1.01px"></line><path d="M417.81,390h0a4.44,4.44,0,0,1-4.44-4.44v-12a4.44,4.44,0,0,1,4.44-4.45h0a4.44,4.44,0,0,1,4.44,4.45v12A4.44,4.44,0,0,1,417.81,390Z" style="fill:#263238;stroke:#263238;stroke-linecap:round;stroke-linejoin:round;stroke-width:1.01px"></path><line x1="420.81" y1="373.15" x2="420.81" y2="380.59" style="fill:none;stroke:#fff;stroke-linecap:round;stroke-linejoin:round;stroke-width:1.01px"></line><line x1="420.81" y1="382.51" x2="420.81" y2="386.59" style="fill:none;stroke:#fff;stroke-linecap:round;stroke-linejoin:round;stroke-width:1.01px"></line><path d="M320.57,421.88h0a4.44,4.44,0,0,1-4.44-4.44v-12a4.44,4.44,0,0,1,4.44-4.44h0a4.44,4.44,0,0,1,4.45,4.44v12A4.44,4.44,0,0,1,320.57,421.88Z" style="fill:#263238;stroke:#263238;stroke-linecap:round;stroke-linejoin:round;stroke-width:1.01px"></path><line x1="323.58" y1="405.08" x2="323.58" y2="412.52" style="fill:none;stroke:#fff;stroke-linecap:round;stroke-linejoin:round;stroke-width:1.01px"></line><line x1="323.58" y1="414.44" x2="323.58" y2="418.52" style="fill:none;stroke:#fff;stroke-linecap:round;stroke-linejoin:round;stroke-width:1.01px"></line><path d="M340,421.88h0a4.44,4.44,0,0,1-4.44-4.44v-12A4.44,4.44,0,0,1,340,401h0a4.43,4.43,0,0,1,4.44,4.44v12A4.43,4.43,0,0,1,340,421.88Z" style="fill:#263238;stroke:#263238;stroke-linecap:round;stroke-linejoin:round;stroke-width:1.01px"></path><line x1="343.02" y1="405.08" x2="343.02" y2="412.52" style="fill:none;stroke:#fff;stroke-linecap:round;stroke-linejoin:round;stroke-width:1.01px"></line><line x1="343.02" y1="414.44" x2="343.02" y2="418.52" style="fill:none;stroke:#fff;stroke-linecap:round;stroke-linejoin:round;stroke-width:1.01px"></line><path d="M359.47,421.88h0a4.44,4.44,0,0,1-4.44-4.44v-12a4.44,4.44,0,0,1,4.44-4.44h0a4.44,4.44,0,0,1,4.44,4.44v12A4.44,4.44,0,0,1,359.47,421.88Z" style="fill:#263238;stroke:#263238;stroke-linecap:round;stroke-linejoin:round;stroke-width:1.01px"></path><line x1="362.47" y1="405.08" x2="362.47" y2="412.52" style="fill:none;stroke:#fff;stroke-linecap:round;stroke-linejoin:round;stroke-width:1.01px"></line><line x1="362.47" y1="414.44" x2="362.47" y2="418.52" style="fill:none;stroke:#fff;stroke-linecap:round;stroke-linejoin:round;stroke-width:1.01px"></line><path d="M378.92,421.88h0a4.43,4.43,0,0,1-4.44-4.44v-12a4.43,4.43,0,0,1,4.44-4.44h0a4.44,4.44,0,0,1,4.44,4.44v12A4.44,4.44,0,0,1,378.92,421.88Z" style="fill:#263238;stroke:#263238;stroke-linecap:round;stroke-linejoin:round;stroke-width:1.01px"></path><line x1="381.92" y1="405.08" x2="381.92" y2="412.52" style="fill:none;stroke:#fff;stroke-linecap:round;stroke-linejoin:round;stroke-width:1.01px"></line><line x1="381.92" y1="414.44" x2="381.92" y2="418.52" style="fill:none;stroke:#fff;stroke-linecap:round;stroke-linejoin:round;stroke-width:1.01px"></line><path d="M398.37,421.88h0a4.44,4.44,0,0,1-4.45-4.44v-12a4.44,4.44,0,0,1,4.45-4.44h0a4.44,4.44,0,0,1,4.44,4.44v12A4.44,4.44,0,0,1,398.37,421.88Z" style="fill:#263238;stroke:#263238;stroke-linecap:round;stroke-linejoin:round;stroke-width:1.01px"></path><line x1="401.37" y1="405.08" x2="401.37" y2="412.52" style="fill:none;stroke:#fff;stroke-linecap:round;stroke-linejoin:round;stroke-width:1.01px"></line><line x1="401.37" y1="414.44" x2="401.37" y2="418.52" style="fill:none;stroke:#fff;stroke-linecap:round;stroke-linejoin:round;stroke-width:1.01px"></line><path d="M417.81,421.88h0a4.44,4.44,0,0,1-4.44-4.44v-12a4.44,4.44,0,0,1,4.44-4.44h0a4.43,4.43,0,0,1,4.44,4.44v12A4.43,4.43,0,0,1,417.81,421.88Z" style="fill:#263238;stroke:#263238;stroke-linecap:round;stroke-linejoin:round;stroke-width:1.01px"></path><line x1="420.81" y1="405.08" x2="420.81" y2="412.52" style="fill:none;stroke:#fff;stroke-linecap:round;stroke-linejoin:round;stroke-width:1.01px"></line><line x1="420.81" y1="414.44" x2="420.81" y2="418.52" style="fill:none;stroke:#fff;stroke-linecap:round;stroke-linejoin:round;stroke-width:1.01px"></line><line x1="330.41" y1="361.74" x2="330.41" y2="364.24" style="fill:none;stroke:#263238;stroke-linecap:round;stroke-linejoin:round;stroke-width:0.5px"></line><line x1="330.41" y1="368.88" x2="330.41" y2="422.23" style="fill:none;stroke:#263238;stroke-linecap:round;stroke-linejoin:round;stroke-width:0.5px;stroke-dasharray:4.638909816741943,4.638909816741943"></line><line x1="330.41" y1="424.55" x2="330.41" y2="427.05" style="fill:none;stroke:#263238;stroke-linecap:round;stroke-linejoin:round;stroke-width:0.5px"></line><line x1="349.86" y1="361.74" x2="349.86" y2="364.24" style="fill:none;stroke:#263238;stroke-linecap:round;stroke-linejoin:round;stroke-width:0.5px"></line><line x1="349.86" y1="368.88" x2="349.86" y2="422.23" style="fill:none;stroke:#263238;stroke-linecap:round;stroke-linejoin:round;stroke-width:0.5px;stroke-dasharray:4.638909816741943,4.638909816741943"></line><line x1="349.86" y1="424.55" x2="349.86" y2="427.05" style="fill:none;stroke:#263238;stroke-linecap:round;stroke-linejoin:round;stroke-width:0.5px"></line><line x1="369.31" y1="361.74" x2="369.31" y2="364.24" style="fill:none;stroke:#263238;stroke-linecap:round;stroke-linejoin:round;stroke-width:0.5px"></line><line x1="369.31" y1="368.88" x2="369.31" y2="422.23" style="fill:none;stroke:#263238;stroke-linecap:round;stroke-linejoin:round;stroke-width:0.5px;stroke-dasharray:4.638909816741943,4.638909816741943"></line><line x1="369.31" y1="424.55" x2="369.31" y2="427.05" style="fill:none;stroke:#263238;stroke-linecap:round;stroke-linejoin:round;stroke-width:0.5px"></line><line x1="388.75" y1="361.74" x2="388.75" y2="364.24" style="fill:none;stroke:#263238;stroke-linecap:round;stroke-linejoin:round;stroke-width:0.5px"></line><line x1="388.75" y1="368.88" x2="388.75" y2="422.23" style="fill:none;stroke:#263238;stroke-linecap:round;stroke-linejoin:round;stroke-width:0.5px;stroke-dasharray:4.638909816741943,4.638909816741943"></line><line x1="388.75" y1="424.55" x2="388.75" y2="427.05" style="fill:none;stroke:#263238;stroke-linecap:round;stroke-linejoin:round;stroke-width:0.5px"></line><line x1="408.2" y1="361.74" x2="408.2" y2="364.24" style="fill:none;stroke:#263238;stroke-linecap:round;stroke-linejoin:round;stroke-width:0.5px"></line><line x1="408.2" y1="368.88" x2="408.2" y2="422.23" style="fill:none;stroke:#263238;stroke-linecap:round;stroke-linejoin:round;stroke-width:0.5px;stroke-dasharray:4.638909816741943,4.638909816741943"></line><line x1="408.2" y1="424.55" x2="408.2" y2="427.05" style="fill:none;stroke:#263238;stroke-linecap:round;stroke-linejoin:round;stroke-width:0.5px"></line><line x1="312.16" y1="394.87" x2="425.73" y2="394.87" style="fill:none;stroke:#263238;stroke-linecap:round;stroke-linejoin:round;stroke-width:0.5px;stroke-dasharray:5"></line></g><g id="freepik--Ampoule--inject-165"><path d="M420.74,368.13V351.8H394.33v16.33L388,376.8a7.19,7.19,0,0,0-1.37,4.22v50.47h41.77V381a7.19,7.19,0,0,0-1.37-4.22Z" style="fill:#263238;stroke:#263238;stroke-linecap:round;stroke-linejoin:round;stroke-width:1.01px"></path><rect x="394.44" y="344.31" width="26.31" height="2.83" style="fill:#263238;stroke:#263238;stroke-linecap:round;stroke-linejoin:round;stroke-width:1.01px"></rect><rect x="390.49" y="337.88" width="34.08" height="7.25" style="fill:#91A227;stroke:#263238;stroke-linecap:round;stroke-linejoin:round;stroke-width:1.01px"></rect><rect x="390.49" y="347" width="34.08" height="5.76" rx="1.27" style="fill:#263238;stroke:#263238;stroke-linecap:round;stroke-linejoin:round;stroke-width:1.01px"></rect><rect x="386.64" y="384.11" width="27" height="33.62" style="fill:#91A227;stroke:#263238;stroke-linecap:round;stroke-linejoin:round;stroke-width:1.01px"></rect></g><g id="freepik--Device--inject-165"><rect x="107.08" y="115.68" width="161.75" height="315.66" rx="14.52" style="fill:#263238"></rect><g style="clip-path:url(#freepik--clip-path--inject-165)"><path d="M121,115.68a13.94,13.94,0,0,0-13.94,13.94V417.4a13.9,13.9,0,0,0,5,10.69l94.37-312.41Z" style="fill:#fff;opacity:0.2"></path><path d="M193.46,422.21a5.5,5.5,0,1,0-5.5,5.5A5.5,5.5,0,0,0,193.46,422.21Z" style="fill:none;stroke:#fff;stroke-linecap:round;stroke-linejoin:round"></path></g><rect x="107.08" y="115.68" width="161.75" height="315.66" rx="14.52" style="fill:none;stroke:#263238;stroke-linecap:round;stroke-linejoin:round"></rect><rect x="114.28" y="137.12" width="147.37" height="275.49" style="fill:#91A227"></rect><g style="clip-path:url(#freepik--clip-path-2--inject-165)"><polygon points="234 273.06 210.64 251.95 187.96 252.34 165.28 251.95 141.92 273.06 86.68 309.44 86.68 416.78 185.04 416.78 190.88 416.78 289.24 416.78 289.24 309.44 234 273.06" style="fill:#fff;stroke:#263238;stroke-linecap:round;stroke-linejoin:round;stroke-width:1.01px"></polygon><path d="M186.07,352.47,176,366.75s12-5.44,23.56-10.15,26.09-19.57,29.35-25,8-13.41,8-13.41L222.39,307H238s-.37-17-5.08-30.81" style="fill:none;stroke:#263238;stroke-linecap:round;stroke-linejoin:round;stroke-width:1.01px"></path><path d="M181.47,358.71c-1.69-.71-3.4-1.42-5.11-2.11-11.59-4.71-26.09-19.57-29.35-25s-8-13.41-8-13.41L153.54,307H138s.37-17,5.08-30.81" style="fill:none;stroke:#263238;stroke-linecap:round;stroke-linejoin:round;stroke-width:1.01px"></path><path d="M163.27,253.55s-4.51,71.61,22.8,98.92c0,0,28.81-19.78,28.81-98.06Z" style="fill:#fff"></path><g style="clip-path:url(#freepik--clip-path-3--inject-165)"><path d="M178.52,172.06h23.23a25.11,25.11,0,0,1,25.11,25.11v52.11A33.71,33.71,0,0,1,193.16,283h-6a33.71,33.71,0,0,1-33.71-33.71V197.17a25.11,25.11,0,0,1,25.11-25.11Z" style="fill:#91A227"></path><path d="M178.52,172.06h23.23a25.11,25.11,0,0,1,25.11,25.11v52.11A33.71,33.71,0,0,1,193.16,283h-6a33.71,33.71,0,0,1-33.71-33.71V197.17a25.11,25.11,0,0,1,25.11-25.11Z" style="fill:#fff;opacity:0.5"></path></g><path d="M163.27,253.55s-4.51,71.61,22.8,98.92c0,0,28.81-19.78,28.81-98.06Z" style="fill:none;stroke:#263238;stroke-linecap:round;stroke-linejoin:round;stroke-width:1.01px"></path><path d="M174.76,247.45s-2.5,31.25,12.59,43.17c0,0,15.92-8.63,15.92-42.79Z" style="fill:none;stroke:#263238;stroke-linecap:round;stroke-linejoin:round;stroke-width:1.01px"></path><polyline points="169.72 300.43 187.35 290.62 207.14 304.3" style="fill:none;stroke:#263238;stroke-linecap:round;stroke-linejoin:round;stroke-width:1.01px"></polyline><path d="M192.09,306.45l3.44-9.89-8.18-5.94-10.75,5.94,5.59,9-8.82,26.49c3.18,7.92,7.32,15,12.7,20.39,0,0,7.66-5.26,15.08-21.09Z" style="fill:#91A227;stroke:#263238;stroke-linecap:round;stroke-linejoin:round;stroke-width:1.01px"></path><circle cx="225.01" cy="346.26" r="14.37" transform="translate(-52.78 40.72) rotate(-9.26)" style="fill:#fff;stroke:#263238;stroke-linecap:round;stroke-linejoin:round;stroke-width:1.01px"></circle><circle cx="225.01" cy="346.26" r="10.33" transform="translate(-180.81 422.69) rotate(-67.65)" style="fill:#fff;stroke:#263238;stroke-linecap:round;stroke-linejoin:round;stroke-width:1.01px"></circle><path d="M225,348.46a2.2,2.2,0,0,1-2.2-2.2V261.83a2.2,2.2,0,0,1,4.4,0v84.43A2.19,2.19,0,0,1,225,348.46Z" style="fill:#263238"></path><path d="M155.57,379.08l-.21,0c-2-.34-21.19-19-23-24s-1.3-13-1.28-13.3a1.1,1.1,0,0,1,2.2.14c0,.07-.45,7.85,1.15,12.44,1.47,4.19,18.55,20.92,21.25,22.55,1.5-.47,7-5.4,9-10.45a1.1,1.1,0,1,1,2.05.81C164.65,372.62,158.1,379.08,155.57,379.08Zm.31-2.15Zm-.27-.05Z" style="fill:#fff;stroke:#263238;stroke-linecap:round;stroke-linejoin:round;stroke-width:1.01px"></path><path d="M138.52,379.08c-2.54,0-9.08-6.46-11.2-11.87a1.1,1.1,0,0,1,2.05-.81c2,5.05,7.49,10,9,10.45,2.7-1.63,19.78-18.36,21.25-22.55,1.6-4.59,1.16-12.37,1.15-12.44a1.1,1.1,0,1,1,2.2-.14c0,.34.48,8.3-1.28,13.3s-20.91,23.7-23,24Zm-.31-2.15Zm.27-.05Z" style="fill:#fff;stroke:#263238;stroke-linecap:round;stroke-linejoin:round;stroke-width:1.01px"></path><path d="M147.31,304.45a2.21,2.21,0,0,1-2.2-2.2V265.42a2.2,2.2,0,0,1,4.4,0v36.83A2.2,2.2,0,0,1,147.31,304.45Z" style="fill:#263238"></path><path d="M161.68,346.22a2.21,2.21,0,0,1-2.2-2.2v-26.5a12.62,12.62,0,1,0-25.24,0V344a2.2,2.2,0,0,1-4.4,0v-26.5a17,17,0,0,1,34,0V344A2.21,2.21,0,0,1,161.68,346.22Z" style="fill:#263238"></path><rect x="124.7" y="362.43" width="5.59" height="7.77" rx="2.56" transform="translate(-197.92 155.25) rotate(-37.84)" style="fill:#fff;stroke:#263238;stroke-linecap:round;stroke-linejoin:round;stroke-width:1.01px"></rect><rect x="163.44" y="362.43" width="5.59" height="7.77" rx="2.56" transform="translate(72.78 757.58) rotate(-142.16)" style="fill:#fff;stroke:#263238;stroke-linecap:round;stroke-linejoin:round;stroke-width:1.01px"></rect><rect x="145.36" y="207.27" width="11.37" height="19.81" rx="5.22" style="fill:#fff;stroke:#263238;stroke-linecap:round;stroke-linejoin:round;stroke-width:1.01px"></rect><rect x="222.2" y="207.27" width="11.37" height="19.81" rx="5.22" style="fill:#fff;stroke:#263238;stroke-linecap:round;stroke-linejoin:round;stroke-width:1.01px"></rect><path d="M178.52,157.64h23.23a25.11,25.11,0,0,1,25.11,25.11v52.11a33.71,33.71,0,0,1-33.71,33.71h-6a33.71,33.71,0,0,1-33.71-33.71V182.75A25.11,25.11,0,0,1,178.52,157.64Z" style="fill:#fff;stroke:#263238;stroke-linecap:round;stroke-linejoin:round;stroke-width:1.01px"></path><rect x="168.03" y="201.49" width="15.36" height="4.12" rx="1.89" style="fill:#263238;stroke:#263238;stroke-linecap:round;stroke-linejoin:round;stroke-width:1.01px"></rect><rect x="198.38" y="201.49" width="15.36" height="4.12" rx="1.89" style="fill:#263238;stroke:#263238;stroke-linecap:round;stroke-linejoin:round;stroke-width:1.01px"></rect><path d="M180,214.05c0,2.38-1.09,4.3-2.44,4.3s-2.43-1.92-2.43-4.3,1.09-4.31,2.43-4.31S180,211.67,180,214.05Z" style="fill:#263238;stroke:#263238;stroke-linecap:round;stroke-linejoin:round;stroke-width:1.01px"></path><path d="M207.38,214.05c0,2.38-1.09,4.3-2.44,4.3s-2.44-1.92-2.44-4.3,1.09-4.31,2.44-4.31S207.38,211.67,207.38,214.05Z" style="fill:#263238;stroke:#263238;stroke-linecap:round;stroke-linejoin:round;stroke-width:1.01px"></path><path d="M203.27,157.64H177a23.59,23.59,0,0,0-23.59,23.59v55.43a31.91,31.91,0,0,0,31.91,31.91H195a31.9,31.9,0,0,0,31.91-31.91V181.23A23.59,23.59,0,0,0,203.27,157.64Zm18,71.21s0,6.74-6.74,13.49c0,0-7.12-9.37-10.12-10.12-1.94-.48-9.16-.34-14.06-.18-4.89-.16-12.12-.3-14,.18-3,.75-10.12,10.12-10.12,10.12-6.74-6.75-6.74-13.49-6.74-13.49V198.12L163,193.5a10.41,10.41,0,0,0,.49-12.14,9.94,9.94,0,0,1,1.41-12.57l.07-.06a9.94,9.94,0,0,1,12.25-1.24l5.24,4.11a13,13,0,0,0,16,0l5.22-4.11A10,10,0,0,1,216,168.73l.06.06a10.05,10.05,0,0,1,1.32,12.71,10.38,10.38,0,0,0,.59,12l3.63,4.62Z" style="fill:#263238;stroke:#263238;stroke-linecap:round;stroke-linejoin:round;stroke-width:1.01px"></path><path d="M195.76,227.57s4.5-.6,4.5,2-2.63,4.49-7.87,2.62" style="fill:#fff;stroke:#263238;stroke-linecap:round;stroke-linejoin:round;stroke-width:1.01px"></path><path d="M195.38,206.36V228.1a4.5,4.5,0,0,1-4.49,4.5h-4c-2.86.2-3.86-.5-4.2-1.71a3,3,0,0,1,.38-2.39l0,0c0-1.12,4.78-1.12,4.78-1.12" style="fill:#fff;stroke:#263238;stroke-linecap:round;stroke-linejoin:round;stroke-width:1.01px"></path><path d="M190.67,245a23.85,23.85,0,0,1-11.91-3.11,1.65,1.65,0,0,1,1.76-2.79A21.17,21.17,0,0,0,201,239a1.65,1.65,0,1,1,1.55,2.91A25,25,0,0,1,190.67,245Z" style="fill:#fff;stroke:#263238;stroke-linecap:round;stroke-linejoin:round;stroke-width:1.01px"></path><line x1="202.71" y1="220.55" x2="209.97" y2="220.55" style="fill:none;stroke:#263238;stroke-linecap:round;stroke-linejoin:round;stroke-width:1.01px"></line><line x1="173.87" y1="220.55" x2="181.13" y2="220.55" style="fill:none;stroke:#263238;stroke-linecap:round;stroke-linejoin:round;stroke-width:1.01px"></line><circle cx="145.11" cy="393.26" r="12.98" style="fill:none;stroke:#263238;stroke-linecap:round;stroke-linejoin:round;stroke-width:0.724166px"></circle><path d="M145.09,396.47h0a2.62,2.62,0,0,1-2.62-2.62v-8.3a2.62,2.62,0,0,1,2.62-2.62h0a2.62,2.62,0,0,1,2.62,2.62v8.3A2.62,2.62,0,0,1,145.09,396.47Z" style="fill:#263238"></path><path d="M145.11,398.36a4.64,4.64,0,0,1-4.63-4.63v-3.9a.48.48,0,0,1,.48-.48.47.47,0,0,1,.48.48v3.9a3.68,3.68,0,0,0,7.35,0v-3.9a.47.47,0,0,1,.48-.48.48.48,0,0,1,.48.48v3.9A4.64,4.64,0,0,1,145.11,398.36Z" style="fill:#263238"></path><path d="M145.11,403.34a.47.47,0,0,1-.47-.48v-5a.48.48,0,1,1,1,0v5A.47.47,0,0,1,145.11,403.34Z" style="fill:#263238"></path><path d="M148.31,403.6h-6.39a.49.49,0,0,1-.48-.48.48.48,0,0,1,.48-.48h6.39a.48.48,0,0,1,.48.48A.49.49,0,0,1,148.31,403.6Z" style="fill:#263238"></path><circle cx="231.06" cy="393.26" r="12.98" style="fill:none;stroke:#263238;stroke-linecap:round;stroke-linejoin:round;stroke-width:0.724166px"></circle><path d="M239.07,389.46l-3.79,2.19v-1.8a1.55,1.55,0,0,0-1.55-1.54h-8.56a1.54,1.54,0,0,0-1.55,1.54v6.9a1.54,1.54,0,0,0,1.55,1.55h8.56a1.55,1.55,0,0,0,1.55-1.55V395l3.79,2.19Z" style="fill:#263238"></path><circle cx="188.09" cy="393.26" r="12.98" style="fill:#263238;stroke:#263238;stroke-linecap:round;stroke-linejoin:round;stroke-width:0.724166px"></circle><path d="M194.66,390.52H181.52a2.48,2.48,0,0,0-2.44,2.93l.38,2.06a.62.62,0,0,0,.6.5h4a.62.62,0,0,0,.62-.62v-2.23h6.9v2.23a.62.62,0,0,0,.62.62h4a.62.62,0,0,0,.61-.5l.38-2.06A2.48,2.48,0,0,0,194.66,390.52Z" style="fill:#91A227"></path><rect x="243.63" y="139.98" width="12.22" height="6.7" style="fill:none;stroke:#263238;stroke-linecap:round;stroke-linejoin:round;stroke-width:0.821067px"></rect><rect x="243.63" y="139.98" width="9.53" height="6.7" style="fill:#263238;stroke:#263238;stroke-linecap:round;stroke-linejoin:round;stroke-width:0.725073px"></rect><rect x="255.82" y="141.85" width="1.72" height="2.95" style="fill:#263238;stroke:#263238;stroke-linecap:round;stroke-linejoin:round;stroke-width:0.725073px"></rect><rect x="116.81" y="142.05" width="2.24" height="3.84" style="fill:#263238;stroke:#263238;stroke-linecap:round;stroke-linejoin:round;stroke-width:0.8830859999999999px"></rect><rect x="120.33" y="140.71" width="2.24" height="5.19" style="fill:#263238;stroke:#263238;stroke-linecap:round;stroke-linejoin:round;stroke-width:0.8830859999999999px"></rect><rect x="123.85" y="139.11" width="2.24" height="6.78" style="fill:#263238;stroke:#263238;stroke-linecap:round;stroke-linejoin:round;stroke-width:0.8830859999999999px"></rect></g><rect x="114.28" y="137.12" width="147.37" height="275.49" style="fill:none;stroke:#263238;stroke-linecap:round;stroke-linejoin:round"></rect></g><g id="freepik--Floor--inject-165"><line x1="80.32" y1="431.34" x2="454.43" y2="431.34" style="fill:none;stroke:#263238;stroke-linecap:round;stroke-linejoin:round;stroke-width:1.01px"></line><line x1="59.82" y1="431.34" x2="69.71" y2="431.34" style="fill:none;stroke:#263238;stroke-linecap:round;stroke-linejoin:round;stroke-width:1.01px"></line></g></svg>