<svg xmlns="http://www.w3.org/2000/svg" version="1.1" xmlns:xlink="http://www.w3.org/1999/xlink" xmlns:svgjs="http://svgjs.com/svgjs" width="512" height="512" x="0" y="0" viewBox="0 0 512 512" style="enable-background:new 0 0 512 512" xml:space="preserve" class=""><g><path xmlns="http://www.w3.org/2000/svg" d="m333.2266 371.3135-78.0503-31.5527c-3.4023-1.376-7.3062-.2588-9.4668 2.709l-20.5815 28.2783c-34.0132-11.9922-64.2476-33.998-86.1157-62.6768l20.582-28.2783c2.1602-2.9688 2.0229-7.0254-.3325-9.8418l-54.0195-64.5693c-2.8345-3.3896-7.8804-3.8398-11.269-1.0029l-33.3096 27.8662c-21.4253 17.9238-32.0347 46.2002-27.688 73.7949 1.9224 12.2021 6.7314 23.9668 13.9077 34.0215 21.5459 30.1875 47.6753 56.5596 77.6616 78.3848 29.9868 21.8252 63.1147 38.5811 98.4639 49.8037 7.8237 2.4844 16.0439 3.7412 24.2598 3.7412 4.1479 0 8.2954-.3203 12.3892-.9658 27.5947-4.3467 51.2402-23.1348 61.71-49.0332l16.2773-40.2637c.7949-1.9668.7764-4.1689-.0522-6.1221s-2.3994-3.498-4.3662-4.293zm-26.6929 44.6826c-8.375 20.7168-27.2905 35.7471-49.3657 39.2246-9.7617 1.5361-19.8994.7705-29.3179-2.2207-33.707-10.7012-65.2964-26.6787-93.8896-47.4902-28.5938-20.8105-53.5088-45.958-74.0537-74.7432-5.7407-8.043-9.5884-17.4541-11.1265-27.2168-3.4771-22.0742 5.0103-44.6943 22.1499-59.0332l27.1738-22.7324 44.8779 53.6436-20.3555 27.9668c-2.0264 2.7842-2.0439 6.5527-.0435 9.3555 25.1885 35.29 61.8188 61.9502 103.1431 75.0703 3.2817 1.04 6.8628-.1328 8.8892-2.917l20.355-27.9678 64.8428 26.2139-13.2793 32.8467z" fill="#000000" data-original="#000000" class=""></path><path xmlns="http://www.w3.org/2000/svg" d="m121.8037 270.5381-24-24c-3.124-3.123-8.1895-3.123-11.3135 0-3.1245 3.125-3.1245 8.1895 0 11.3145l24 24c1.562 1.5615 3.6094 2.3428 5.6567 2.3428s4.0947-.7812 5.6567-2.3428c3.1245-3.125 3.1245-8.1895 0-11.3145z" fill="#000000" data-original="#000000" class=""></path><path xmlns="http://www.w3.org/2000/svg" d="m252.9917 376.6172c-1.9761 3.9521-.3745 8.7578 3.5776 10.7334l32 16c1.1484.5742 2.3691.8467 3.5713.8467 2.9346 0 5.7603-1.6211 7.1616-4.4238 1.9761-3.9521.3745-8.7578-3.5776-10.7334l-32-16c-3.9512-1.9756-8.7573-.374-10.7329 3.5771z" fill="#000000" data-original="#000000" class=""></path><path xmlns="http://www.w3.org/2000/svg" d="m418.457 69.4834c-63.2153-55.0303-159.4155-48.375-214.4478 14.8398-44.833 51.498-49.7837 126.6035-12.3398 183.3994l3.4395 49.7021c.3052 4.4072 4.125 7.751 8.5332 7.4277l49.7012-3.4385c20.8447 9.9326 43.105 14.7383 65.1724 14.7383 42.9473 0 85.165-18.2021 114.7803-52.2207 55.0322-63.2148 48.3755-159.415-14.8389-214.4482zm2.7715 203.9424c-40.5444 46.5732-107.4766 60.0176-162.7656 32.6885-1.1045-.5459-2.3179-.8281-3.5449-.8281-.1836 0-.3682.0059-.5522.0195l-43.8472 3.0332-3.0342-43.8477c-.0977-1.4131-.5693-2.7744-1.3657-3.9463-34.6821-50.998-30.5874-119.1426 9.958-165.7158 49.2393-56.5605 135.313-62.5176 191.8745-13.2773 56.5605 49.2393 62.5166 135.3135 13.2773 191.874z" fill="#000000" data-original="#000000" class=""></path><path xmlns="http://www.w3.org/2000/svg" d="m252.147 148.1953c4.4111 0 8 3.5889 8 8 0 4.418 3.5815 8 8 8s8-3.582 8-8c0-13.2334-10.7661-24-24-24s-24 10.7666-24 24c0 7.2959 2.8413 14.1543 8 19.3135l20.686 20.6855c2.1372 2.1377 3.314 4.9785 3.314 8.001 0 4.4111-3.5889 8-8 8s-8-3.5889-8-8c0-4.418-3.5815-8-8-8s-8 3.582-8 8c0 13.2334 10.7661 24 24 24s24-10.7666 24-24c0-7.2949-2.8408-14.1543-8-19.3145l-20.6865-20.6865c-2.1367-2.1367-3.3135-4.9775-3.3135-7.999 0-4.4111 3.5889-8 8-8z" fill="#000000" data-original="#000000" class=""></path><path xmlns="http://www.w3.org/2000/svg" d="m388.147 148.1953c4.4111 0 8 3.5889 8 8 0 4.418 3.5815 8 8 8s8-3.582 8-8c0-13.2334-10.7661-24-24-24s-24 10.7666-24 24c0 7.2959 2.8413 14.1543 8 19.3135l20.686 20.6855c2.1372 2.1377 3.314 4.9785 3.314 8.001 0 4.4111-3.5889 8-8 8s-8-3.5889-8-8c0-4.418-3.5815-8-8-8s-8 3.582-8 8c0 13.2334 10.7661 24 24 24s24-10.7666 24-24c0-7.2949-2.8408-14.1543-8-19.3145l-20.6865-20.6865c-2.1367-2.1367-3.3135-4.9775-3.3135-7.999 0-4.4111 3.5889-8 8-8z" fill="#000000" data-original="#000000" class=""></path><path xmlns="http://www.w3.org/2000/svg" d="m320.147 132.1953c-15.4395 0-28 12.5605-28 28v40c0 15.4395 12.5605 28 28 28s28-12.5605 28-28v-40c0-15.4395-12.5605-28-28-28zm12 68c0 6.6172-5.3833 12-12 12s-12-5.3828-12-12v-40c0-6.6172 5.3833-12 12-12s12 5.3828 12 12z" fill="#000000" data-original="#000000" class=""></path></g></svg>