<svg id="PollIcon" xmlns="http://www.w3.org/2000/svg" width="23.95" height="19.979" viewBox="0 0 23.95 19.979">
  <path id="Trazado_44" data-name="Trazado 44" d="M322.291,112.789A2.013,2.013,0,0,0,322.7,114a1.9,1.9,0,0,0-1.558,1.863v1.79a.783.783,0,0,0,.782.782h4.785a.783.783,0,0,0,.782-.782v-1.79A1.9,1.9,0,0,0,325.931,114a2.023,2.023,0,1,0-3.64-1.216Zm4.36,3.079V117.6H326v-1.019a.419.419,0,1,0-.838,0V117.6h-1.687v-1.019a.419.419,0,0,0-.838,0V117.6h-.655v-1.734a1.057,1.057,0,0,1,1.056-1.055H325.6A1.057,1.057,0,0,1,326.651,115.868Zm-2.336-4.264a1.185,1.185,0,1,1-1.186,1.185A1.187,1.187,0,0,1,324.315,111.6Zm0,0" transform="translate(-303.539 -104.578)"/>
  <path id="Trazado_45" data-name="Trazado 45" d="M163.594,225.376v1.79a.783.783,0,0,0,.782.782h4.785a.783.783,0,0,0,.782-.782v-1.79a1.9,1.9,0,0,0-1.558-1.863,2.023,2.023,0,1,0-3.233,0A1.9,1.9,0,0,0,163.594,225.376Zm3.174-4.265a1.186,1.186,0,1,1-1.186,1.186A1.187,1.187,0,0,1,166.768,221.111Zm-2.336,4.265a1.057,1.057,0,0,1,1.056-1.056h2.561a1.057,1.057,0,0,1,1.056,1.056v1.733h-.655v-1.019a.419.419,0,1,0-.838,0v1.019h-1.687v-1.019a.419.419,0,1,0-.838,0v1.019h-.655Zm0,0" transform="translate(-154.794 -207.969)"/>
  <path id="Trazado_46" data-name="Trazado 46" d="M6.829,7.674h4.785a.783.783,0,0,0,.782-.782V5.1a1.9,1.9,0,0,0-1.558-1.863,2.023,2.023,0,1,0-3.233,0A1.9,1.9,0,0,0,6.047,5.1v1.79a.783.783,0,0,0,.782.782ZM9.221.838A1.186,1.186,0,1,1,8.036,2.023,1.187,1.187,0,0,1,9.221.838ZM6.885,5.1A1.057,1.057,0,0,1,7.941,4.047H10.5A1.057,1.057,0,0,1,11.558,5.1V6.836H10.9V5.817a.419.419,0,1,0-.838,0V6.836H8.378V5.817a.419.419,0,0,0-.838,0V6.836H6.885Zm0,0" transform="translate(-6.047 0)"/>
</svg>
