<svg id="PollIcon" xmlns="http://www.w3.org/2000/svg" width="24.711" height="20.216" viewBox="0 0 24.711 20.216">
  <path id="Trazado_47" data-name="Trazado 47" d="M.418,170.322H24.291a.419.419,0,1,0,0-.838h-.052v-5.2a.419.419,0,0,0-.838,0v5.2H18.825V157.131H23.4v5.2a.419.419,0,1,0,.838,0v-5.255a.783.783,0,0,0-.782-.782H18.769a.783.783,0,0,0-.782.782v12.409h-2.55v-6.291a.783.783,0,0,0-.782-.782H13.332a.419.419,0,1,0,0,.838H14.6v6.235H10.025v-6.235h1.352a.419.419,0,1,0,0-.838H9.969a.783.783,0,0,0-.782.782v6.291H6.637v-18.6a.783.783,0,0,0-.782-.782H1.168a.783.783,0,0,0-.782.782v18.6a.419.419,0,0,0,.033.836Zm.805-19.378H5.8v18.54H1.224Zm0,0" transform="translate(0.001 -150.106)"/>
</svg>
