<svg xmlns="http://www.w3.org/2000/svg" version="1.1" xmlns:xlink="http://www.w3.org/1999/xlink" xmlns:svgjs="http://svgjs.com/svgjs" width="512" height="512" x="0" y="0" viewBox="0 0 512 512" style="enable-background:new 0 0 512 512" xml:space="preserve" class=""><g><g xmlns="http://www.w3.org/2000/svg"><path d="m241 174.949v65c0 8.284 6.716 15 15 15s15-6.716 15-15v-65c0-8.284-6.716-15-15-15s-15 6.716-15 15z" fill="#000000" data-original="#000000" class=""></path><path d="m256 274.949c-8.284 0-15 6.716-15 15s6.716 15 15 15 15-6.716 15-15-6.716-15-15-15z" fill="#000000" data-original="#000000" class=""></path><path d="m216.599 100.312-109.185 197.899c-7.771 14.084-7.527 30.764.651 44.616 8.178 13.853 22.665 22.123 38.75 22.123h218.371c16.087 0 30.573-8.271 38.751-22.123s8.421-30.532.649-44.615l-109.185-197.9c-8.036-14.565-22.765-23.261-39.401-23.261-16.635 0-31.365 8.696-39.401 23.261zm52.535 14.493 109.185 197.898c3.734 6.767 1.093 12.654-.216 14.871s-5.188 7.375-12.917 7.375h-218.371c-7.729 0-11.608-5.157-12.917-7.374s-3.951-8.105-.217-14.872l109.185-197.898c3.861-6.999 10.471-7.754 13.134-7.754 2.663 0 9.273.755 13.134 7.754z" fill="#000000" data-original="#000000" class=""></path><path d="m470.435 65.671-209.999-65c-2.889-.894-5.982-.894-8.871 0l-209.999 65c-6.283 1.944-10.566 7.754-10.566 14.33v195.999c0 59.435 21.061 110.42 62.596 151.54 37.392 37.018 90.691 65.253 158.418 83.921 2.609.719 5.363.719 7.972 0 67.726-18.668 121.025-46.903 158.417-83.921 41.537-41.12 62.597-92.105 62.597-151.54v-195.999c0-6.576-4.283-12.386-10.565-14.33zm-19.435 210.329c0 123.545-105.073 179.865-195 205.424-89.927-25.559-195-81.878-195-205.424v-184.941l195-60.357 195 60.357z" fill="#000000" data-original="#000000" class=""></path></g></g></svg>