<svg xmlns="http://www.w3.org/2000/svg" version="1.1" xmlns:xlink="http://www.w3.org/1999/xlink" xmlns:svgjs="http://svgjs.com/svgjs" width="512" height="512" x="0" y="0" viewBox="0 0 512.014 512.014" style="enable-background:new 0 0 512 512" xml:space="preserve" class=""><g><g xmlns="http://www.w3.org/2000/svg"><path d="m446.933 40.184c-3.078-2.77-7.82-2.521-10.592.559-2.771 3.079-2.521 7.821.559 10.592.003.002.005.005.008.007l-94.727 94.727-43.203-43.204c23.011-25.346 36.025-56.624 36.511-87.689 26.146-1.223 51.226 4.819 72.574 16.054 3.669 1.931 8.201.52 10.13-3.144 1.93-3.666.521-8.201-3.143-10.13-61.102-32.156-135.559-20.1-183.646 27.941-38.024 38.024-55.11 94.551-41.007 149.626-94.976-11.017-177.206 63.574-177.206 157.71 0 40.333 15.168 78.782 42.579 108.206 2.821 3.03 7.568 3.2 10.6.375 3.03-2.823 3.199-7.568.375-10.6-2.347-2.519-4.593-5.111-6.739-7.77h30.559c9.422 0 17.821 6.021 20.767 15.088l9.456 29.101c-9.832-3.745-19.27-8.582-28.152-14.471-3.453-2.29-8.107-1.344-10.396 2.107-2.289 3.453-1.346 8.106 2.106 10.395 25.879 17.156 56.38 26.349 87.626 26.349 103.463 0 180.348-98.342 153.475-199.571 48.631 5.188 95.044-12.554 127.51-44.99 63.352-63.409 60.825-167.117-6.024-227.268zm-126.5-23.501c-.955 26.367-12.548 53.698-32.089 75.549l-40.839-40.839c20.004-18.006 45.144-30.411 72.928-34.71zm-83.535 45.318 40.839 40.839c-21.843 19.534-49.161 31.126-75.547 32.074 4.301-27.778 16.704-52.913 34.708-72.913zm-36.217 87.964c31.071-.485 62.347-13.492 87.685-36.495l43.206 43.206-94.675 94.676c-24.882-27.643-37.98-63.732-36.216-101.387zm66.383 164.485-35.34 11.482c-2.473-4.012-5.744-7.595-9.738-10.497l-28.362-20.606c-4.329-3.145-9.159-5.214-14.151-6.256v-37.781c4.992-1.043 9.822-3.112 14.151-6.258l12.981-9.431c14.818 25.517 36.727 46.629 63.185 60.474-.479 2.017-3.818 8.834-2.726 18.873zm-45.962 37.534-10.834 33.341c-2.932 9.025-11.277 15.088-20.767 15.088h-35.058c-9.489 0-17.835-6.063-20.768-15.088l-10.833-33.341c-2.933-9.024.256-18.836 7.933-24.414l28.361-20.607c7.636-5.547 18.028-5.552 25.67 0l28.362 20.607c7.678 5.578 10.866 15.389 7.934 24.414zm-25.728-140.621c1.301 3.482 2.72 6.906 4.257 10.266l-14.825 10.77c-7.662 5.568-17.997 5.574-25.669 0l-24.722-17.962c19.829-5.371 40.567-6.413 60.959-3.074zm-77.821 8.794c3.607 3.612 4.147 3.405 32.768 24.377 4.329 3.146 9.16 5.215 14.151 6.257v37.781c-4.991 1.042-9.822 3.111-14.151 6.256l-28.361 20.606c-3.995 2.902-7.266 6.485-9.739 10.498l-35.339-11.482c.552-5.07.058-10.309-1.597-15.399-10.932-33.194-10.722-34.095-13.028-38.634 14.829-17.502 33.76-31.421 55.296-40.26zm-65.954 54.535 9.42 28.994c2.9 8.925-.194 18.791-7.933 24.414l-24.716 17.957c1.297-26.24 9.666-50.648 23.229-71.365zm54.105 156.993c-4.652-2.092-9.786-3.24-15.138-3.24-35.526.142-35.841-.341-40.867.462-12.146-19.584-19.409-41.828-21.113-65.036 4.55-2.313 4.643-2.979 33.318-23.637 4.33-3.146 7.809-7.093 10.343-11.519l34.883 11.334c-.769 5.432-.333 11.086 1.449 16.569l10.833 33.342c1.575 4.847 4.079 9.184 7.272 12.849zm100.456 61.212c-10.962 2.684-22.41 4.118-34.188 4.118-11.622 0-23.082-1.407-34.187-4.115-.791-5.032-1.38-5.281-12.188-39.001-1.654-5.091-4.333-9.618-7.759-13.396l20.805-28.634c4.825 2.286 10.194 3.545 15.801 3.545h35.058c5.608 0 10.977-1.259 15.801-3.545l20.804 28.634c-3.427 3.778-6.106 8.306-7.76 13.396-10.817 33.749-11.4 33.99-12.187 38.998zm17.014-5.313 9.439-29.051c2.917-8.977 11.253-15.088 20.768-15.088h30.462c-15.846 19.611-36.73 34.985-60.669 44.139zm71.007-58.686c-4.985-.788-5.34-.313-40.8-.453-5.352 0-10.486 1.149-15.138 3.24l-20.98-28.876c3.193-3.665 5.697-8.003 7.271-12.85l10.834-33.341c1.781-5.483 2.217-11.138 1.449-16.569l34.883-11.334c2.534 4.426 6.012 8.373 10.342 11.518 28.884 20.808 28.772 21.326 33.319 23.637-1.744 23.73-9.276 45.871-21.18 65.028zm-3.323-100.799c-7.61-5.53-10.874-15.36-7.932-24.413l.572-1.762c8.201 3.326 16.745 5.974 25.564 7.88 3.719 11.744 5.9 23.893 6.508 36.25zm58.032-29.923c-37.595 1.762-73.7-11.296-101.385-36.216l94.675-94.676 43.204 43.204c-23.002 25.339-36.01 56.617-36.494 87.688zm15.055-1.509c.953-26.371 12.541-53.702 32.071-75.547l40.84 40.84c-20 18.002-45.133 30.406-72.911 34.707zm83.519-45.314-40.84-40.84c21.853-19.539 49.183-31.128 75.55-32.086-4.299 27.783-16.704 52.922-34.71 72.926zm36.217-87.984c-31.055.486-62.342 13.5-87.689 36.511l-43.204-43.204 94.722-94.722c24.504 27.282 37.941 63.569 36.171 101.415z" fill="#000000" data-original="#000000" class=""></path></g></g></svg>