<svg xmlns="http://www.w3.org/2000/svg" version="1.1" xmlns:xlink="http://www.w3.org/1999/xlink" xmlns:svgjs="http://svgjs.com/svgjs" width="512" height="512" x="0" y="0" viewBox="0 0 512 512" style="enable-background:new 0 0 512 512" xml:space="preserve" class=""><g><g xmlns="http://www.w3.org/2000/svg"><path d="m504.5 427.049h-390c-4.142 0-7.5-3.358-7.5-7.5s3.358-7.5 7.5-7.5h134v-105.381c-24.698-3.64-43.716-24.975-43.716-50.668s19.018-47.028 43.716-50.668v-105.381h-233.5v53.454h12.564c4.142 0 7.5 3.358 7.5 7.5s-3.358 7.5-7.5 7.5h-12.564v38.067h22.5c4.142 0 7.5 3.358 7.5 7.5v84.056c0 4.142-3.358 7.5-7.5 7.5h-22.5v38.067h62v-175.19h-19.436c-4.142 0-7.5-3.358-7.5-7.5s3.358-7.5 7.5-7.5h26.936c4.142 0 7.5 3.358 7.5 7.5v48.463c18.149 8.233 30 26.34 30 46.632s-11.852 38.399-30 46.632v48.463c0 4.142-3.358 7.5-7.5 7.5h-69.5v53.454h69.5c4.142 0 7.5 3.358 7.5 7.5s-3.358 7.5-7.5 7.5h-77c-4.142 0-7.5-3.358-7.5-7.5v-327.098c0-4.142 3.358-7.5 7.5-7.5h390c4.142 0 7.5 3.358 7.5 7.5s-3.358 7.5-7.5 7.5h-134v105.381c24.698 3.64 43.716 24.975 43.716 50.668s-19.018 47.028-43.716 50.668v105.381h233.5v-53.454h-15.518c-4.142 0-7.5-3.358-7.5-7.5s3.358-7.5 7.5-7.5h15.518v-38.067h-22.5c-4.142 0-7.5-3.358-7.5-7.5v-84.056c0-4.142 3.358-7.5 7.5-7.5h22.5v-38.067h-62v175.19h16.482c4.142 0 7.5 3.358 7.5 7.5s-3.358 7.5-7.5 7.5h-23.982c-4.142 0-7.5-3.358-7.5-7.5v-48.463c-18.148-8.233-30-26.34-30-46.632s11.851-38.399 30-46.632v-48.463c0-4.142 3.358-7.5 7.5-7.5h69.5v-53.454h-69.5c-4.142 0-7.5-3.358-7.5-7.5s3.358-7.5 7.5-7.5h77c4.142 0 7.5 3.358 7.5 7.5v327.098c0 4.142-3.358 7.5-7.5 7.5zm-241-206.484v70.87c16.383-3.463 28.716-18.036 28.716-35.435s-12.333-31.972-28.716-35.435zm-15 0c-16.383 3.463-28.716 18.036-28.716 35.435s12.333 31.972 28.716 35.435zm233.5 69.963h15v-69.056h-15zm-467 0h15v-69.056h-15zm405-63.905c-9.257 6.676-15 17.497-15 29.377 0 11.881 5.742 22.701 15 29.378zm-328 0v58.755c9.258-6.677 15-17.497 15-29.378 0-11.88-5.743-22.701-15-29.377z" fill="#000000" data-original="#000000" class=""></path></g></g></svg>