<svg xmlns="http://www.w3.org/2000/svg" width="30" height="30" viewBox="0 0 30 30">
  <g id="Grupo_70" data-name="Grupo 70" transform="translate(-2 -2)">
    <path id="Trazado_754" data-name="Trazado 754" d="M29.321,13.464A12.857,12.857,0,0,0,17,4.143a12.536,12.536,0,0,0-3.429.429A6.386,6.386,0,0,0,8.429,2,6.357,6.357,0,0,0,2,8.321c0,5.143,5.571,9.429,5.786,9.536a1.523,1.523,0,0,0,.643.214,1.523,1.523,0,0,0,.643-.214c.214-.214,5.786-4.393,5.786-9.536a8.327,8.327,0,0,0-.214-1.714A8.356,8.356,0,0,1,17,6.286a10.673,10.673,0,0,1,10.286,7.821,1.064,1.064,0,0,0,1.071.75h.321A1.072,1.072,0,0,0,29.321,13.464ZM8.429,10.357a2.143,2.143,0,1,1,2.143-2.143A2.149,2.149,0,0,1,8.429,10.357Z" transform="translate(0 0)" fill="#3e521f"/>
    <path id="Trazado_755" data-name="Trazado 755" d="M25.394,15a6.357,6.357,0,0,0-6.429,6.321,9.47,9.47,0,0,0,1.5,4.821,10.433,10.433,0,0,1-3.643.643A10.673,10.673,0,0,1,6.537,18.964a1.1,1.1,0,0,0-1.286-.75A1.164,1.164,0,0,0,4.5,19.5a12.828,12.828,0,0,0,12.321,9.429,12.633,12.633,0,0,0,4.929-.964,14.579,14.579,0,0,0,3,2.893,1.523,1.523,0,0,0,.643.214,1.523,1.523,0,0,0,.643-.214c.214-.214,5.786-4.393,5.786-9.536A6.357,6.357,0,0,0,25.394,15Zm0,8.357a2.143,2.143,0,1,1,2.143-2.143A2.149,2.149,0,0,1,25.394,23.357Z" transform="translate(0.177 0.929)" fill="#3e521f"/>
  </g>
</svg>
