<svg xmlns="http://www.w3.org/2000/svg" version="1.1" xmlns:xlink="http://www.w3.org/1999/xlink" xmlns:svgjs="http://svgjs.com/svgjs" width="512" height="512" x="0" y="0" viewBox="0 0 512 512" style="enable-background:new 0 0 512 512" xml:space="preserve" class=""><g><g xmlns="http://www.w3.org/2000/svg"><path d="m508.096 153.551c-1.11-1.221-11.587-12.223-37.19-22.605-32.562-13.203-74.668-19.897-125.148-19.897-4.864 0-9.625.082-14.333.206 1.031-15.393 1.062-25.052 1.062-26.069 0-3.733-1.393-7.333-3.904-10.094-1.11-1.22-11.587-12.223-37.19-22.604-32.564-13.204-74.669-19.898-125.15-19.898s-92.586 6.694-125.148 19.897c-25.604 10.382-36.08 21.384-37.191 22.604-2.512 2.762-3.904 6.361-3.904 10.095 0 2.731.221 67.702 19.424 138.848 11.437 42.372 27.292 78.103 47.128 106.199 25.585 36.242 57.8 59.857 95.75 70.191 1.29.351 2.616.527 3.941.527s2.651-.176 3.941-.527c19.939-5.429 38.292-14.531 54.935-27.198 6.388 12.895 13.375 24.741 20.946 35.466 25.585 36.241 57.8 59.857 95.75 70.191 1.291.351 2.616.527 3.941.527s2.65-.176 3.941-.527c37.95-10.334 70.165-33.95 95.75-70.191 19.835-28.097 35.691-63.828 47.128-106.2 19.204-71.145 19.425-136.116 19.425-138.847 0-3.733-1.393-7.333-3.904-10.094zm-162.339 295.247c-41.419-12.673-74.089-45.069-97.56-96.596 6.224-6.714 12.139-14.04 17.738-21.97 16.18-22.919 29.71-50.922 40.356-83.462.7.511 1.375 1.064 2 1.688 2.929 2.929 6.768 4.394 10.606 4.394s7.678-1.465 10.606-4.393c5.858-5.858 5.858-15.355 0-21.213-4.287-4.287-9.263-7.63-14.674-9.946 7.049-27.654 11.284-54.091 13.829-75.957 5.48-.189 11.172-.293 17.099-.293 86.007 0 124.261 21.087 136.088 29.494-.609 18.282-3.616 70.266-18.388 124.707-23.084 85.078-62.674 136.711-117.7 153.547zm-297.214-232.007c-14.772-54.445-17.778-106.433-18.388-124.708 11.827-8.406 50.081-29.493 136.088-29.493s124.261 21.087 136.088 29.494c-.609 18.282-3.616 70.266-18.388 124.707-23.084 85.079-62.674 136.712-117.7 153.548-55.026-16.837-94.616-68.469-117.7-153.548z" fill="#000000" data-original="#000000" class=""></path><path d="m345.757 299.39c-24.688 0-47.899 9.614-65.357 27.071-5.858 5.858-5.858 15.355 0 21.213 5.857 5.858 15.355 5.857 21.213 0 11.792-11.792 27.469-18.285 44.145-18.285 16.675 0 32.353 6.494 44.144 18.285 2.929 2.929 6.768 4.394 10.606 4.394s7.678-1.465 10.606-4.393c5.858-5.858 5.858-15.355 0-21.213-17.458-17.458-40.669-27.072-65.357-27.072z" fill="#000000" data-original="#000000" class=""></path><path d="m398.614 213.543c-12.495 0-24.243 4.866-33.078 13.702-5.858 5.858-5.858 15.355 0 21.213 5.857 5.857 15.355 5.857 21.213 0 3.17-3.169 7.384-4.915 11.865-4.915 4.482 0 8.696 1.746 11.866 4.915 2.929 2.929 6.768 4.394 10.606 4.394s7.678-1.465 10.606-4.393c5.858-5.858 5.858-15.355 0-21.213-8.834-8.836-20.582-13.703-33.078-13.703z" fill="#000000" data-original="#000000" class=""></path><path d="m128.777 169.999c2.929 2.929 6.768 4.393 10.606 4.393s7.678-1.465 10.607-4.394c5.857-5.858 5.857-15.355 0-21.213-18.241-18.24-47.919-18.239-66.158 0-5.858 5.858-5.858 15.355 0 21.213 5.857 5.858 15.355 5.858 21.213 0 6.542-6.542 17.189-6.542 23.732.001z" fill="#000000" data-original="#000000" class=""></path><path d="m231.6 257.297c5.858-5.858 5.858-15.355 0-21.213-5.857-5.858-15.355-5.858-21.213 0-11.792 11.791-27.469 18.285-44.144 18.285s-32.353-6.494-44.143-18.285c-5.858-5.857-15.355-5.858-21.213 0s-5.858 15.355 0 21.213c17.458 17.458 40.668 27.072 65.357 27.072s47.899-9.614 65.356-27.072z" fill="#000000" data-original="#000000" class=""></path><path d="m186.022 169.999c5.857 5.858 15.355 5.858 21.213 0 6.543-6.543 17.189-6.542 23.732 0 2.929 2.929 6.768 4.393 10.606 4.393s7.678-1.465 10.607-4.394c5.858-5.858 5.858-15.355 0-21.213-18.241-18.24-47.919-18.239-66.158 0-5.857 5.859-5.857 15.356 0 21.214z" fill="#000000" data-original="#000000" class=""></path></g></g></svg>