<svg xmlns="http://www.w3.org/2000/svg" width="25.594" height="29.999" viewBox="0 0 25.594 29.999">
  <g id="Recycling_management" transform="translate(-98.12 -65.6)">
    <path id="Trazado_771" data-name="Trazado 771" d="M123.714,73.574h-.96a1,1,0,0,1-.99-1.084,2.358,2.358,0,0,0-2.348-2.57H115.14V67.8a2.2,2.2,0,0,0-2.2-2.2h-4.044a2.2,2.2,0,0,0-2.2,2.2V69.92h-4.316a2.359,2.359,0,0,0-2.352,2.533v.053a.994.994,0,0,1-.992,1.068H98.12v3.011H99.9l1.534,17.294a1.878,1.878,0,0,0,1.88,1.72h14.795a1.884,1.884,0,0,0,1.876-1.686l1.853-17.328h1.878ZM108.123,67.8a.771.771,0,0,1,.769-.77h4.044a.771.771,0,0,1,.769.77V69.92h-5.58Zm10.43,25.959a.454.454,0,0,1-.453.407H103.305a.453.453,0,0,1-.453-.415l-1.517-17.168H120.4Z" fill="#3e521f"/>
    <path id="Trazado_772" data-name="Trazado 772" d="M262.592,248.115a3.783,3.783,0,0,1-.557,1.973l-.636-.438a.568.568,0,0,0-.88.572l.37,1.989a.568.568,0,0,0,.661.454l1.989-.366a.568.568,0,0,0,.218-1.026l-.626-.43A5.11,5.11,0,0,0,258.81,243v1.329A3.786,3.786,0,0,1,262.592,248.115Z" transform="translate(-147.908 -163.289)" fill="#3e521f"/>
    <path id="Trazado_773" data-name="Trazado 773" d="M190.142,244.192l.626.43a5.109,5.109,0,0,0,4.322,7.839v-1.329a3.781,3.781,0,0,1-3.225-5.756l.636.438a.568.568,0,0,0,.88-.572l-.37-1.989a.568.568,0,0,0-.661-.454l-1.989.366a.567.567,0,0,0-.219,1.026Z" transform="translate(-84.475 -163.097)" fill="#3e521f"/>
  </g>
</svg>
