<svg xmlns="http://www.w3.org/2000/svg" width="352.53" height="198.29" viewBox="0 0 352.53 198.29">
  <g id="update_bg" transform="translate(-68.49 -76.1)">
    <path id="Trazado_1" data-name="Trazado 1" d="M402.47,259.82a31.2,31.2,0,0,1-7.05,4.44L395,272l-12.59,2.16-3-7.14a31.691,31.691,0,0,1-8.13-1.84l-5.74,5.16-10.43-7.38,3-7.14a30.849,30.849,0,0,1-4.44-7l-7.72-.41-2.15-12.59,7.13-3a31.3,31.3,0,0,1,1.85-8.13l-5.17-5.74L355,208.48l7.13,3a31.069,31.069,0,0,1,7.05-4.44l.41-7.72,12.6-2.15,2.95,7.13a31.3,31.3,0,0,1,8.13,1.85l5.74-5.17,10.44,7.39-3,7.13a31.42,31.42,0,0,1,4.44,7l7.71.41,2.16,12.6-7.14,2.95a31.69,31.69,0,0,1-1.84,8.13l5.16,5.74-7.38,10.43-7.14-2.95ZM393.16,244a13.7,13.7,0,1,0-8.877,5.6,13.71,13.71,0,0,0,8.877-5.6Z" fill="none"/>
    <path id="Trazado_2" data-name="Trazado 2" d="M393.16,244a10.16,10.16,0,0,1-2.18,2.6,13.82,13.82,0,0,1-14.86,2.23,14.038,14.038,0,1,1,19.19-16.94,13.74,13.74,0,0,1-.42,9.19,10.36,10.36,0,0,1-1.73,2.92,31.355,31.355,0,0,0,1.45-3,13.7,13.7,0,0,0,.16-8.91,13.24,13.24,0,0,0-3.19-5.28,13.361,13.361,0,0,0-22.92,9.53,12.619,12.619,0,0,0,.66,3.94,12.409,12.409,0,0,0,1.7,3.44,13.51,13.51,0,0,0,5.37,4.55,13.37,13.37,0,0,0,6.05,1.25,13.66,13.66,0,0,0,8.34-3.12A33.2,33.2,0,0,0,393.16,244Z" fill="#e0e0e0"/>
    <path id="Trazado_3" data-name="Trazado 3" d="M402.47,259.82a2.451,2.451,0,0,1,.46.16l1.36.53,5.37,2.15h-.15l7.32-10.47v.25l-5.18-5.73-.1-.1.05-.13a31,31,0,0,0,1.8-8.07v-.16l.14-.06,7.13-3-.17.31c-.69-4-1.42-8.18-2.18-12.59l.29.25-7.72-.39h-.2l-.08-.18a31.179,31.179,0,0,0-4.4-7l-.13-.16.08-.19c.91-2.21,1.92-4.65,2.94-7.14l.12.42-10.44-7.37h.46l-5.74,5.16-.17.15-.21-.07a31.121,31.121,0,0,0-8-1.82h-.23l-.09-.21c-.92-2.24-1.93-4.67-3-7.14l.43.24-12.6,2.16.32-.37c-.13,2.44-.27,5.07-.41,7.72v.24l-.21.09a31.151,31.151,0,0,0-7,4.38h0l-.4.06h-.22l-.22-.09-.45-.19-.9-.37-1.79-.74-3.55-1.48.47-.14-7.39,10.44v-.49l5.16,5.75.16.17-.08.22a31.38,31.38,0,0,0-1.83,8v.23l-.21.09-7.14,3,.23-.41q1.1,6.45,2.14,12.6L346,248l7.72.42h.21l.09.2a30.59,30.59,0,0,0,4.38,7l.13.16-.08.19q-1.5,3.66-3,7.12l-.11-.39,10.42,7.41h-.38l5.76-5.15.12-.12.16.06a30.871,30.871,0,0,0,8.05,1.85h.16l.06.14c1.07,2.6,2,4.94,2.93,7.15l-.25-.14,12.6-2.1-.14.16c.18-3.08.33-5.6.46-7.71v-.08h.07a32.188,32.188,0,0,0,5.44-3.1l1.25-.92a3,3,0,0,1,.41-.3,2.518,2.518,0,0,1-.37.35c-.26.22-.66.56-1.22,1a30.1,30.1,0,0,1-5.4,3.23l.07-.11c-.1,2.11-.22,4.64-.36,7.72v.14h-.14l-12.58,2.21h-.19l-.07-.17c-.92-2.21-1.89-4.54-3-7.13l.22.16a31.37,31.37,0,0,1-8.2-1.84l.28-.05-5.73,5.18-.18.16-.19-.14L355,263.19l-.21-.15.1-.24c.95-2.32,1.93-4.69,2.94-7.14l.06.35a31.49,31.49,0,0,1-4.5-7.12l.3.2-7.72-.4h-.28l-.05-.29q-1.07-6.13-2.17-12.59l-.05-.3.27-.11,7.14-3-.23.32a31.14,31.14,0,0,1,1.86-8.23l.07.39-5.17-5.74-.2-.23.18-.25,7.38-10.44.18-.26.29.12,3.55,1.48,1.79.74.9.37.45.19.22.09.12.05h.1l-.4.06h0a31.89,31.89,0,0,1,7.14-4.49l-.23.34c.14-2.65.28-5.28.41-7.72v-.31h.31l12.6-2.16.3-.05.12.29c1,2.46,2,4.9,2.95,7.14l-.32-.23a32.08,32.08,0,0,1,8.22,1.86l-.38.08,5.75-5.16.22-.19.24.17L409.66,208l.23.16-.11.26-3,7.13-.05-.35a31.641,31.641,0,0,1,4.47,7.14l-.27-.19,7.71.42h.25v.24c.75,4.42,1.46,8.63,2.13,12.6v.22l-.2.09-7.15,2.93.16-.21a32.119,32.119,0,0,1-1.88,8.18l-.05-.23,5.14,5.76.11.12-.1.13-7.44,10.39-.06.08h-.09l-5.27-2.25-1.35-.6Z" fill="#e0e0e0"/>
    <path id="Trazado_4" data-name="Trazado 4" d="M390.2,164.69a44,44,0,0,1-10,6.28l-.58,10.91-17.81,3.05-4.18-10.1a44.45,44.45,0,0,1-11.49-2.6l-8.12,7.3L323.3,169.09,327.48,159a44,44,0,0,1-6.27-10l-10.91-.58-3.05-17.81,10.09-4.17A44.541,44.541,0,0,1,320,115l-7.3-8.11L323.09,92.1l10.08,4.18a44.759,44.759,0,0,1,10-6.27l.58-10.91,17.82-3,4.17,10.1a44,44,0,0,1,11.49,2.6l8.12-7.3L400.1,91.94,395.89,102a44.28,44.28,0,0,1,6.28,10l10.91.58,3.05,17.81L406,134.51A44.363,44.363,0,0,1,403.4,146l7.3,8.12-10.44,14.75-10.09-4.18ZM377,142.36A19.39,19.39,0,1,0,350,147,19.39,19.39,0,0,0,377,142.36Z" fill="#e0e0e0" fill-rule="evenodd"/>
    <path id="Trazado_5" data-name="Trazado 5" d="M166.5,161.41a41.911,41.911,0,0,1,6.46,9.07h10.32l3.84,16.65-9.3,4.48a41.52,41.52,0,0,1-1.84,11l7.33,7.27-9.06,14.48-9.74-3.4a41.67,41.67,0,0,1-9.07,6.46v10.33l-16.64,3.83-4.49-9.3a41.591,41.591,0,0,1-11-1.84l-7.27,7.33-14.48-9.06,3.4-9.74a41.67,41.67,0,0,1-6.46-9.07H88.18L84.4,193.24l9.3-4.49a42,42,0,0,1,1.84-11l-7.33-7.27L97.27,156l9.74,3.4a41.67,41.67,0,0,1,9.07-6.46V142.62l16.65-3.84,4.48,9.3a41.932,41.932,0,0,1,11,1.84l7.27-7.32,14.48,9-3.4,9.74ZM146.13,175a18.32,18.32,0,1,0,8.188,11.426A18.32,18.32,0,0,0,146.13,175Z" fill="#e0e0e0" fill-rule="evenodd"/>
    <path id="Trazado_6" data-name="Trazado 6" d="M176.56,91.41a23.54,23.54,0,0,1,3.57,5h5.72l2.12,9.22-5.15,2.48a23.161,23.161,0,0,1-1,6.08l4.05,4-5,8-5.39-1.88a23,23,0,0,1-5,3.57v5.72l-9.22,2.12-2.48-5.14a23.53,23.53,0,0,1-6.08-1l-4,4.05-8-5,1.89-5.4a23.1,23.1,0,0,1-3.58-5H133.3L131.1,109l5.15-2.48a23.11,23.11,0,0,1,1-6.08l-4.06-4,5-8,5.39,1.88a23.59,23.59,0,0,1,5-3.58V81.03l9.22-2.13,2.52,5.1a23.179,23.179,0,0,1,6.08,1l4-4.06,8,5-1.88,5.39ZM165.28,99a10.14,10.14,0,1,0,4.517,6.331A10.14,10.14,0,0,0,165.28,99Z" fill="#e0e0e0" fill-rule="evenodd"/>
    <path id="Trazado_7" data-name="Trazado 7" d="M105.52,102.33a18.78,18.78,0,0,1,2.9,4.07h4.63l1.72,7.47-4.17,2a18.63,18.63,0,0,1-.82,4.93l3.28,3.26L109,130.54,104.63,129a19.13,19.13,0,0,1-4.07,2.9v4.63l-7.47,1.72-2-4.17a19.061,19.061,0,0,1-4.93-.83l-3.26,3.29-6.49-4.06,1.52-4.37a19.08,19.08,0,0,1-2.89-4.07H70.41l-1.72-7.46,4.17-2a19,19,0,0,1,.83-4.93l-3.29-3.26,4.07-6.5,4.37,1.53a18.48,18.48,0,0,1,4.06-2.9V93.91l7.46-1.72,2,4.17a19,19,0,0,1,4.93.82l3.26-3.28,6.5,4.06-1.53,4.37Zm-9.13,6.11A8.22,8.22,0,1,0,99,119.77a8.22,8.22,0,0,0-2.61-11.33Z" fill="none"/>
    <path id="Trazado_8" data-name="Trazado 8" d="M96.39,108.44a3.121,3.121,0,0,1,.46.26,6.42,6.42,0,0,1,1.17,1,8.08,8.08,0,0,1,2.37,5,8.38,8.38,0,0,1-.51,3.85,8.47,8.47,0,0,1-2.64,3.58,8,8,0,0,1-2.11,1.21,7.89,7.89,0,0,1-2.47.58,8.54,8.54,0,0,1-5.13-1.26,8.42,8.42,0,0,1-3.37-4.06,8.28,8.28,0,0,1-.57-2.47,8.19,8.19,0,0,1,.17-2.43,8.4,8.4,0,0,1,2.07-3.94,8.3,8.3,0,0,1,8.75-2.2,6.641,6.641,0,0,1,1.37.64,2.73,2.73,0,0,1,.44.3c0,.06-.64-.36-1.87-.75a8.23,8.23,0,0,0-5.33.21,8.06,8.06,0,0,0-5,5.84,7.61,7.61,0,0,0-.14,2.29,7.75,7.75,0,0,0,.55,2.33,7.94,7.94,0,0,0,3.17,3.8,8.08,8.08,0,0,0,4.81,1.19,7.61,7.61,0,0,0,2.33-.53,7.34,7.34,0,0,0,2-1.13,8,8,0,0,0,3.08-7,8.17,8.17,0,0,0-2.14-4.88A15.231,15.231,0,0,0,96.39,108.44Z" fill="#e0e0e0"/>
    <path id="Trazado_9" data-name="Trazado 9" d="M105.52,102.33a.834.834,0,0,1,.08-.28l.27-.83,1.1-3.29v.1l-6.52-4h.17l-3.25,3.3-.06.07h-.09a18.81,18.81,0,0,0-4.89-.8h-.1l-.05-.1-2-4.16.2.1-7.46,1.74.16-.2v4.76l-.11.06a18.87,18.87,0,0,0-4,2.87l-.1.1h-.13l-4.37-1.52.27-.09-4,6.5v-.3l3.29,3.25.11.11v.14a18.37,18.37,0,0,0-.81,4.86v.16l-.14.06-4.17,2,.14-.29c.55,2.36,1.13,4.9,1.73,7.47l-.26-.2h4.79l.08.14a18.13,18.13,0,0,0,2.85,4h0c0,.11,0-.27.06.26h0v.26l-.09.28-.19.55-.39,1.09c-.25.73-.51,1.46-.76,2.18l-.11-.3,6.5,4.06h-.32c1.1-1.11,2.19-2.2,3.26-3.29l.11-.11.15.05a18.45,18.45,0,0,0,4.86.81h.15l.07.14,2,4.17-.28-.13,7.46-1.72-.18.24v-4.78l.12-.06a18.91,18.91,0,0,0,4-2.86l.1-.09.12.05,4.37,1.53-.25.09,4.07-6.49v.25l-3.27-3.27-.09-.08v-.11a18.91,18.91,0,0,0,.83-4.88v-.1h.1l4.18-2-.09.17c-.65-2.89-1.21-5.36-1.68-7.47l.11.09h-4.63a19.87,19.87,0,0,0-2-3.15l-.6-.72-.19-.24a1.629,1.629,0,0,1,.23.21c.14.15.35.38.62.7a17.22,17.22,0,0,1,2.12,3.12h4.65v.1c.5,2.1,1.08,4.57,1.76,7.45v.12l-.11.06-4.16,2,.09-.14a19.21,19.21,0,0,1-.81,5v-.19l3.29,3.26.12.11-.09.13-4,6.51-.09.15-.16-.06-4.37-1.52h.22a18.9,18.9,0,0,1-4.11,2.94l.12-.21v4.83h-.19l-7.46,1.73h-.19l-.09-.17c-.66-1.38-1.33-2.76-2-4.17l.22.14a19.089,19.089,0,0,1-5-.83l.26-.07-3.26,3.29-.15.15-.17-.11-6.5-4.06-.18-.11.07-.2c.25-.72.51-1.45.76-2.18l.38-1.1.2-.54.09-.28.05-.14v-.07h0c.11.53,0,.14,0,.26h0a18.86,18.86,0,0,1-2.93-4.12l.23.14h-5v-.2c-.59-2.57-1.17-5.1-1.72-7.47v-.19l.18-.09,4.18-2-.15.22a19.22,19.22,0,0,1,.84-5l.06.25c-1.13-1.14-2.26-2.25-3.28-3.27l-.13-.14.1-.16,4.07-6.49.1-.16.17.06L79,101.51h-.23a19.33,19.33,0,0,1,4.12-2.92l-.11.19V93.99h.16L90.31,92h.15l.06.14c.7,1.46,1.38,2.87,2,4.18l-.15-.1a18.92,18.92,0,0,1,5,.85h-.16l3.28-3.27.07-.08.09.06,6.47,4.1h.06v.06c-.51,1.39-.9,2.47-1.18,3.22l-.31.84a1.54,1.54,0,0,1-.17.33Z" fill="#e0e0e0"/>
  </g>
</svg>
