<svg xmlns="http://www.w3.org/2000/svg" width="108.88" height="108.83" viewBox="0 0 108.88 108.83">
  <g id="update_mid" transform="translate(-271.45 -273.81)">
    <path id="Trazado_30" data-name="Trazado 30" d="M390.2,164.69a44,44,0,0,1-10,6.28l-.58,10.91-17.81,3.05-4.18-10.1a44.45,44.45,0,0,1-11.49-2.6l-8.12,7.3L323.3,169.09,327.48,159a44,44,0,0,1-6.27-10l-10.91-.58-3.05-17.81,10.09-4.17A44.541,44.541,0,0,1,320,115l-7.3-8.11L323.09,92.1l10.08,4.18a44.759,44.759,0,0,1,10-6.27l.58-10.91,17.82-3,4.17,10.1a44,44,0,0,1,11.49,2.6l8.12-7.3L400.1,91.94,395.89,102a44.28,44.28,0,0,1,6.28,10l10.91.58,3.05,17.81L406,134.51A44.363,44.363,0,0,1,403.4,146l7.3,8.12-10.44,14.75-10.09-4.18ZM377,142.36A19.39,19.39,0,1,0,350,147,19.39,19.39,0,0,0,377,142.36Z" transform="translate(-35.8 197.71)" fill="#e0e0e0" fill-rule="evenodd"/>
  </g>
</svg>
