<svg xmlns="http://www.w3.org/2000/svg" width="74.366" height="48.5" viewBox="0 0 74.366 48.5">
  <g id="user_3_" data-name="user (3)" transform="translate(0 -85.333)">
    <g id="Grupo_379" data-name="Grupo 379" transform="translate(25.866 85.333)">
      <g id="Grupo_378" data-name="Grupo 378">
        <path id="Trazado_230" data-name="Trazado 230" d="M181.983,85.333A11.317,11.317,0,1,0,193.3,96.65,11.329,11.329,0,0,0,181.983,85.333Zm0,19.4a8.083,8.083,0,1,1,8.083-8.083A8.094,8.094,0,0,1,181.983,104.733Z" transform="translate(-170.666 -85.333)"/>
      </g>
    </g>
    <g id="Grupo_381" data-name="Grupo 381" transform="translate(51.733 98.266)">
      <g id="Grupo_380" data-name="Grupo 380">
        <path id="Trazado_231" data-name="Trazado 231" d="M349.417,170.667a8.083,8.083,0,1,0,8.083,8.083A8.094,8.094,0,0,0,349.417,170.667Zm0,12.933a4.85,4.85,0,1,1,4.85-4.85A4.856,4.856,0,0,1,349.417,183.6Z" transform="translate(-341.334 -170.667)"/>
      </g>
    </g>
    <g id="Grupo_383" data-name="Grupo 383" transform="translate(6.696 98.266)">
      <g id="Grupo_382" data-name="Grupo 382">
        <path id="Trazado_232" data-name="Trazado 232" d="M52.265,170.667a8.083,8.083,0,1,0,8.083,8.083A8.092,8.092,0,0,0,52.265,170.667Zm0,12.933a4.85,4.85,0,1,1,4.85-4.85A4.856,4.856,0,0,1,52.265,183.6Z" transform="translate(-44.182 -170.667)"/>
      </g>
    </g>
    <g id="Grupo_385" data-name="Grupo 385" transform="translate(16.166 111.199)">
      <g id="Grupo_384" data-name="Grupo 384" transform="translate(0 0)">
        <path id="Trazado_233" data-name="Trazado 233" d="M127.682,256a21.041,21.041,0,0,0-21.017,21.017,1.617,1.617,0,0,0,3.233,0,17.783,17.783,0,1,1,35.566,0,1.617,1.617,0,1,0,3.233,0A21.041,21.041,0,0,0,127.682,256Z" transform="translate(-106.666 -256)"/>
      </g>
    </g>
    <g id="Grupo_387" data-name="Grupo 387" transform="translate(51.502 117.666)">
      <g id="Grupo_386" data-name="Grupo 386">
        <path id="Trazado_234" data-name="Trazado 234" d="M348.127,298.667a14.551,14.551,0,0,0-7.537,2.1,1.617,1.617,0,0,0,1.678,2.764,11.319,11.319,0,0,1,17.175,9.684,1.617,1.617,0,0,0,3.233,0A14.568,14.568,0,0,0,348.127,298.667Z" transform="translate(-339.813 -298.667)"/>
      </g>
    </g>
    <g id="Grupo_389" data-name="Grupo 389" transform="translate(0 117.666)">
      <g id="Grupo_388" data-name="Grupo 388">
        <path id="Trazado_235" data-name="Trazado 235" d="M22.084,300.765A14.555,14.555,0,0,0,0,313.217a1.617,1.617,0,0,0,3.233,0,11.321,11.321,0,0,1,17.172-9.687,1.617,1.617,0,1,0,1.678-2.764Z" transform="translate(0 -298.667)"/>
      </g>
    </g>
  </g>
</svg>
