<svg id="VideoIcon" xmlns="http://www.w3.org/2000/svg" width="13.676" height="14.365" viewBox="0 0 13.676 14.365">
  <g id="Grupo_34" data-name="Grupo 34" transform="translate(3.209)">
    <g id="Grupo_33" data-name="Grupo 33">
      <path id="Trazado_53" data-name="Trazado 53" d="M100.317,35H100.3a.537.537,0,0,0,0,1.074h.015a.537.537,0,1,0,0-1.074Z" transform="translate(-99.765 -35)"/>
    </g>
  </g>
  <g id="Grupo_36" data-name="Grupo 36">
    <g id="Grupo_35" data-name="Grupo 35">
      <path id="Trazado_54" data-name="Trazado 54" d="M42.2,35H40.538a.537.537,0,0,0,0,1.074H42.2A.537.537,0,0,0,42.2,35Z" transform="translate(-40.001 -35)"/>
    </g>
  </g>
  <g id="Grupo_38" data-name="Grupo 38" transform="translate(4.583 4.43)">
    <g id="Grupo_37" data-name="Grupo 37">
      <path id="Trazado_55" data-name="Trazado 55" d="M134.362,121.988a1.819,1.819,0,0,0-.855-1.11l-2.627-1.517c-.026-.017-.053-.034-.08-.049l-2.62-1.513a1.838,1.838,0,0,0-2.848,1.535V125.6a.545.545,0,0,0,0,.065,1.835,1.835,0,0,0,2.753,1.523l2.711-1.565q.023-.013.044-.029l2.643-1.526a1.833,1.833,0,0,0,.874-2.077Zm-1.111.856a.757.757,0,0,1-.288.285l-.008,0-2.692,1.554q-.023.013-.044.029l-2.667,1.54a.761.761,0,0,1-1.142-.658.527.527,0,0,0,0-.055v-6.208h0a.764.764,0,0,1,1.19-.634l.032.02,2.636,1.522.038.024.027.017,2.641,1.525a.758.758,0,0,1,.28,1.035Z" transform="translate(-125.332 -117.497)"/>
    </g>
  </g>
</svg>
