<svg id="VideoIcon" xmlns="http://www.w3.org/2000/svg" width="27.494" height="27.494" viewBox="0 0 27.494 27.494">
  <g id="Grupo_28" data-name="Grupo 28">
    <g id="Grupo_27" data-name="Grupo 27">
      <path id="Trazado_50" data-name="Trazado 50" d="M24.81,4.94H22.555V2.685A2.688,2.688,0,0,0,19.87,0H2.686A2.688,2.688,0,0,0,0,2.685V19.869a2.688,2.688,0,0,0,2.685,2.685H4.941v2.255a2.688,2.688,0,0,0,2.685,2.685H24.81A2.688,2.688,0,0,0,27.5,24.809V7.625A2.688,2.688,0,0,0,24.81,4.94ZM2.686,21.48a1.613,1.613,0,0,1-1.611-1.611V2.685A1.613,1.613,0,0,1,2.686,1.074H19.87a1.613,1.613,0,0,1,1.611,1.611V19.869A1.613,1.613,0,0,1,19.87,21.48Zm23.735,3.329A1.613,1.613,0,0,1,24.81,26.42H7.626a1.613,1.613,0,0,1-1.611-1.611V22.554H19.87a2.688,2.688,0,0,0,2.685-2.685V6.014H24.81a1.613,1.613,0,0,1,1.611,1.611Z" transform="translate(-0.001 0)"/>
    </g>
  </g>
  <g id="Grupo_30" data-name="Grupo 30" transform="translate(7.087 24.541)">
    <g id="Grupo_29" data-name="Grupo 29">
      <path id="Trazado_51" data-name="Trazado 51" d="M132.531,457h-.014a.537.537,0,1,0,0,1.074h.014a.537.537,0,1,0,0-1.074Z" transform="translate(-131.98 -457.002)"/>
    </g>
  </g>
  <g id="Grupo_32" data-name="Grupo 32" transform="translate(8.645 24.541)">
    <g id="Grupo_31" data-name="Grupo 31">
      <path id="Trazado_52" data-name="Trazado 52" d="M177.146,457H161.517a.537.537,0,0,0,0,1.074h15.629a.537.537,0,0,0,0-1.074Z" transform="translate(-160.98 -457.002)"/>
    </g>
  </g>
</svg>
