<svg xmlns="http://www.w3.org/2000/svg" width="110.325" height="29.062" viewBox="0 0 110.325 29.062">
  <g id="Illustration" transform="translate(-178.95 -106.089)">
    <g id="_3251298_advanture_camp_camping_nature_shoes_icon" data-name="3251298_advanture_camp_camping_nature_shoes_icon" transform="translate(263.746 114.381) rotate(7)">
      <g id="Grupo_368" data-name="Grupo 368" transform="translate(0.37 2.677)">
        <g id="Grupo_367" data-name="Grupo 367">
          <path id="Trazado_207" data-name="Trazado 207" d="M17.225,15.683a31.829,31.829,0,0,1-5.676-.6,6.233,6.233,0,0,1-2.613-1.525c-.147-.121-.292-.24-.436-.354a2.942,2.942,0,0,0-2.861-.749,20.817,20.817,0,0,1-3.165.5c-.451.048-.9.1-1.35.157A.472.472,0,1,1,1,12.178c.457-.062.917-.111,1.378-.161A20.132,20.132,0,0,0,5.4,11.539a3.865,3.865,0,0,1,3.691.921c.148.118.3.24.45.365a5.524,5.524,0,0,0,2.183,1.325c4.369.8,8.968,1.164,13.056-1.478.164-1.807-.065-2.181-2.57-3.253a29.888,29.888,0,0,0-2.866-1c-2.275-.708-4.628-1.44-6.435-3.376a.472.472,0,1,1,.69-.644c1.637,1.752,3.768,2.416,6.026,3.118a30.783,30.783,0,0,1,2.956,1.033c2.727,1.167,3.378,1.81,3.117,4.438a.469.469,0,0,1-.206.345A14.369,14.369,0,0,1,17.225,15.683Z" transform="translate(-0.588 -4.251)"/>
        </g>
      </g>
      <g id="Grupo_370" data-name="Grupo 370" transform="translate(0 0.001)">
        <g id="Grupo_369" data-name="Grupo 369">
          <path id="Trazado_208" data-name="Trazado 208" d="M18.022,17.768a.476.476,0,0,1-.353-.158c-1.242-1.4-1.243-1.395-3.431-.421a.471.471,0,0,1-.594-.184c-1.424-2.319-3.307-2.746-5.921-1.338A12.281,12.281,0,0,1,2.782,16.7l-.489.036c-.769.055-1.8-1.244-1.861-1.975C.184,11.923.042,8.923,0,5.591A6.767,6.767,0,0,1,.42,3.53c.1-.337.216-.7.313-1.084A.472.472,0,0,1,1.49,2.2c.381.313.721.6,1.034.861.6.5,1.118.94,1.648,1.327,1.419,1.034,2.619,1.269,3.774.744,1-.455,1.017-1.269.963-2.559-.009-.215-.018-.428-.019-.637a3.855,3.855,0,0,0-.109-.745C8.754,1.054,8.726.922,8.7.79A.472.472,0,0,1,9.112.243L11.071,0a.47.47,0,0,1,.444.2l1.954,2.814a.473.473,0,0,1-.029.577L10.951,6.5a.472.472,0,1,1-.717-.614l2.251-2.632L10.9.976l-1.169.142a4.063,4.063,0,0,1,.1.81c0,.2.009.4.018.6.051,1.21.115,2.716-1.515,3.458-1.478.671-3.021.4-4.721-.84C3.06,4.741,2.53,4.3,1.917,3.78l-.466-.391q-.065.214-.13.421A6.043,6.043,0,0,0,.944,5.58c.042,3.308.182,6.285.429,9.1A2.045,2.045,0,0,0,2.261,15.8l.454-.038a11.605,11.605,0,0,0,4.561-.925c2.93-1.575,5.266-1.128,6.947,1.328,2.067-.91,2.5-.956,3.742.368a3.159,3.159,0,0,1,2.187-1.561,2.229,2.229,0,0,1,1.715.713l2.88-2.375-.2-1.57a.472.472,0,1,1,.937-.12l.234,1.827a.473.473,0,0,1-.168.424l-3.422,2.82a.471.471,0,0,1-.659-.057,1.6,1.6,0,0,0-1.246-.723c-.539.041-1.162.606-1.8,1.633a.471.471,0,0,1-.36.221A.175.175,0,0,1,18.022,17.768Z" transform="translate(0 -0.001)"/>
        </g>
      </g>
      <g id="Grupo_372" data-name="Grupo 372" transform="translate(16.011 6.129)">
        <g id="Grupo_371" data-name="Grupo 371">
          <path id="Trazado_209" data-name="Trazado 209" d="M25.9,13.32a.471.471,0,0,1-.387-.74l1.827-2.641a.472.472,0,0,1,.777.537l-1.828,2.641A.472.472,0,0,1,25.9,13.32Z" transform="translate(-25.432 -9.734)"/>
        </g>
      </g>
      <g id="Grupo_374" data-name="Grupo 374" transform="translate(11.948 4.504)">
        <g id="Grupo_373" data-name="Grupo 373">
          <path id="Trazado_210" data-name="Trazado 210" d="M19.451,10.333a.472.472,0,0,1-.319-.82L21.57,7.278a.472.472,0,1,1,.638.7L19.77,10.209A.476.476,0,0,1,19.451,10.333Z" transform="translate(-18.979 -7.154)"/>
        </g>
      </g>
      <g id="Grupo_376" data-name="Grupo 376" transform="translate(14.183 5.519)">
        <g id="Grupo_375" data-name="Grupo 375">
          <path id="Trazado_211" data-name="Trazado 211" d="M23,11.945a.472.472,0,0,1-.334-.806L24.9,8.9a.472.472,0,0,1,.668.668l-2.236,2.235A.47.47,0,0,1,23,11.945Z" transform="translate(-22.527 -8.765)"/>
        </g>
      </g>
    </g>
    <g id="Layer_2" data-name="Layer 2" transform="translate(178.96 106.071)">
      <g id="pizza_italian_cheese_slice_tomato_food_meal_fast_restaurant_junk_fastfood" data-name="pizza, italian, cheese, slice, tomato, food, meal, fast, restaurant, junk, fastfood" transform="translate(-0.01 0.018)">
        <path id="Trazado_214" data-name="Trazado 214" d="M69.315,141.266a3.753,3.753,0,0,0-.8-5.248,3.826,3.826,0,0,0-.593-.359.3.3,0,1,0-.263.542,3.228,3.228,0,0,1,.5.3,3.151,3.151,0,0,1-2.285,5.66.3.3,0,0,0-.079.6,3.755,3.755,0,0,0,3.519-1.494Z" transform="translate(-61.886 -128.054)"/>
        <path id="Trazado_215" data-name="Trazado 215" d="M71.679,164.4a.3.3,0,1,0-.037.6c.047,0,.095,0,.142,0a2.287,2.287,0,0,0,1.356-4.129,2.234,2.234,0,0,0-.19-.126.3.3,0,1,0-.307.518c.047.028.095.06.14.093a1.686,1.686,0,0,1-1.1,3.04Z" transform="translate(-67.373 -151.729)"/>
        <path id="Trazado_216" data-name="Trazado 216" d="M84.108,317.711a.3.3,0,0,0-.413.1,3.118,3.118,0,0,0-.289,2.59.3.3,0,0,0,.286.207.294.294,0,0,0,.094-.016.3.3,0,0,0,.192-.38,2.514,2.514,0,0,1,.233-2.091A.3.3,0,0,0,84.108,317.711Z" transform="translate(-78.597 -299.924)"/>
        <path id="Trazado_217" data-name="Trazado 217" d="M128.287,294.418a.3.3,0,0,0,.2.073.3.3,0,0,0,.2-.53c-.056-.05-.12-.1-.182-.145a3.1,3.1,0,0,0-2.326-.572.3.3,0,1,0,.092.595,2.5,2.5,0,0,1,1.878.462C128.19,294.339,128.24,294.378,128.287,294.418Z" transform="translate(-118.873 -276.83)"/>
        <path id="Trazado_218" data-name="Trazado 218" d="M107.877,319.577h.011a.3.3,0,0,0,.3-.289,1.158,1.158,0,0,1,1.843-.884.3.3,0,0,0,.357-.485,1.761,1.761,0,0,0-2.8,1.345.3.3,0,0,0,.292.313Z" transform="translate(-101.575 -299.838)"/>
        <path id="Trazado_219" data-name="Trazado 219" d="M.512,138.647a1.267,1.267,0,0,0,1.456.041l14.892-9.716a.3.3,0,0,0-.329-.5L1.639,138.184a.675.675,0,0,1-1.019-.748l4.52-15.889a.3.3,0,0,0-.579-.168L.041,137.268a1.269,1.269,0,0,0,.471,1.379Z" transform="translate(0.01 -114.394)"/>
        <path id="Trazado_220" data-name="Trazado 220" d="M167.01,171.506a2.98,2.98,0,1,0-2.4,1.211A2.98,2.98,0,0,0,167.01,171.506ZM162.7,168.33a2.375,2.375,0,1,1-.437,1.765A2.376,2.376,0,0,1,162.7,168.33Z" transform="translate(-152.603 -157.443)"/>
        <path id="Trazado_221" data-name="Trazado 221" d="M189.671,195.395a1.579,1.579,0,0,0-.1-1.987.3.3,0,1,0-.447.4.972.972,0,1,1-1.5.074.959.959,0,0,1,.5-.354.3.3,0,1,0-.173-.577,1.574,1.574,0,1,0,1.72,2.441Z" transform="translate(-176.394 -182.165)"/>
        <path id="Trazado_222" data-name="Trazado 222" d="M57.186,5.885a1.617,1.617,0,0,0,2.258-.342.969.969,0,0,1,1.038-.363l.127.035a16.559,16.559,0,0,1,9.5,7,15.716,15.716,0,0,1,.8,1.38A1.835,1.835,0,0,0,72.536,14.6a1.8,1.8,0,0,0,.879-.23l1.027-.571a1.915,1.915,0,0,0,.726-2.638,25.125,25.125,0,0,0-6.228-7.312A25.105,25.105,0,0,0,60.111.066a1.916,1.916,0,0,0-2.3,1.475l-.1.474a2.868,2.868,0,0,1-.5,1.117l-.365.5A1.62,1.62,0,0,0,57.186,5.885Zm.142-1.9.365-.495a3.448,3.448,0,0,0,.6-1.348l.1-.474A1.313,1.313,0,0,1,59.976.654a24.51,24.51,0,0,1,8.608,3.679,24.5,24.5,0,0,1,6.064,7.131,1.314,1.314,0,0,1-.5,1.808l-1.027.571a1.2,1.2,0,0,1-.944.1,1.223,1.223,0,0,1-.739-.623,16.493,16.493,0,0,0-.829-1.436,17.158,17.158,0,0,0-9.843-7.25L60.639,4.6a1.608,1.608,0,0,0-.415-.056,1.564,1.564,0,0,0-1.265.644,1.013,1.013,0,1,1-1.631-1.2Z" transform="translate(-53.373 -0.018)"/>
        <path id="Trazado_223" data-name="Trazado 223" d="M124.423,118.252a.3.3,0,1,0,.357-.485l-.6-.439a.3.3,0,1,0-.357.485Z" transform="translate(-116.794 -110.72)"/>
        <path id="Trazado_224" data-name="Trazado 224" d="M163.488,145.207a.3.3,0,0,0,.242-.123l.492-.667a.3.3,0,1,0-.485-.357l-.492.67a.3.3,0,0,0,.242.48Z" transform="translate(-154.071 -135.898)"/>
        <path id="Trazado_225" data-name="Trazado 225" d="M142.363,249.144l.244.726a.3.3,0,0,0,.571-.192l-.244-.726a.3.3,0,1,0-.571.192Z" transform="translate(-134.395 -234.853)"/>
        <path id="Trazado_226" data-name="Trazado 226" d="M181.475,283.776l-.726.16a.3.3,0,0,0,.064.6.291.291,0,0,0,.065-.007l.726-.161a.3.3,0,0,0-.13-.588Z" transform="translate(-170.427 -267.922)"/>
        <path id="Trazado_227" data-name="Trazado 227" d="M95.922,284.359a.294.294,0,0,0,.144-.037.3.3,0,0,0,.121-.408l-.526-.967a.3.3,0,1,0-.53.288l.526.967A.3.3,0,0,0,95.922,284.359Z" transform="translate(-89.782 -266.995)"/>
        <path id="Trazado_228" data-name="Trazado 228" d="M53.659,354.537a.3.3,0,0,0-.279.318l.061,1.005a.3.3,0,0,0,.3.283h.019a.3.3,0,0,0,.282-.319l-.061-1.005a.3.3,0,0,0-.322-.282Z" transform="translate(-50.397 -334.734)"/>
        <path id="Trazado_229" data-name="Trazado 229" d="M53.488,303.059a.3.3,0,0,0-.423-.05l-.676.531a.3.3,0,1,0,.373.473l.676-.531A.3.3,0,0,0,53.488,303.059Z" transform="translate(-49.354 -286.023)"/>
      </g>
    </g>
  </g>
</svg>
