<svg xmlns="http://www.w3.org/2000/svg" width="215.695" height="155.164" viewBox="0 0 215.695 155.164">
  <g id="Illustration" transform="translate(-75.387 -134.76)">
    <g id="bitcoin-trading" transform="translate(49.387 63.284)">
      <g id="Grupo_68" data-name="Grupo 68" transform="translate(26 202.7)">
        <path id="Trazado_85" data-name="Trazado 85" d="M241.7,287.28v5.059H235.11v18.393l-41.852-.117h-.715l-160.529.117v-18.16H26V287.28Z" transform="translate(-26 -287.28)" fill="#eb8a4d"/>
      </g>
      <g id="Grupo_69" data-name="Grupo 69" transform="translate(32.014 202.7)">
        <path id="Trazado_86" data-name="Trazado 86" d="M244.431,287.28v5.059h-6.585v18.393l-41.852-.117h-.007V297.2l-161.237.2v-4.825l160.886.261V287.28Z" transform="translate(-34.75 -287.28)" fill="#342d38"/>
      </g>
      <g id="Grupo_70" data-name="Grupo 70" transform="translate(32.014 214.247)">
        <rect id="Rect치ngulo_141" data-name="Rect치ngulo 141" width="161.244" height="0.351" transform="translate(0 0)" fill="#191717"/>
      </g>
      <g id="Grupo_71" data-name="Grupo 71" transform="translate(156.298 102.783)">
        <path id="Trazado_87" data-name="Trazado 87" d="M219.281,160.854a5.584,5.584,0,0,1-2.124-6.014c1.059-3.89-.351-4.6-1.059-5.657a3.158,3.158,0,0,1,0-3.505c.708-1.093,3.182-4.633,7.781-3.567s4.6,1.766,8.489,1.416,9.9-.351,9.547,9.547c0,0,1.766,8.839-3.533,14.146s1.059,4.949,1.059,4.949-2.4,1.423-3.67.007c0,0-.921,2.117-1.986,2.117S219.281,160.854,219.281,160.854Z" transform="translate(-215.568 -141.913)" fill="#2e2422"/>
      </g>
      <g id="Grupo_72" data-name="Grupo 72" transform="translate(157.544 110.403)">
        <path id="Trazado_88" data-name="Trazado 88" d="M241.774,166.087a4.088,4.088,0,0,1-4.6,3.533s-3.533,8.489-3.533,11.314,2.124,6.014,2.124,6.014l-17.149,5.128a70.52,70.52,0,0,1,.282-10.9,21.286,21.286,0,0,1,.955-4.481c-.007,0-.007,0-.007-.007-.144-.062-2.468-1.127-2.468-3.176,0-2.124,2.124-10.606,2.124-11.671S221.27,153,223.037,153c0,0,2.832,6.014,9.2,4.6a4.235,4.235,0,0,0,4.6,4.949s-.708,2.99,0,3.615,1.416.275,2.124-1.5S242.124,164.321,241.774,166.087Z" transform="translate(-217.38 -153)" fill="#ff9168"/>
      </g>
      <g id="Grupo_73" data-name="Grupo 73" transform="translate(203.623 79.925)">
        <path id="Trazado_89" data-name="Trazado 89" d="M286.069,112.618a3.506,3.506,0,0,0-.708,5.306c2.474,3.182,6.715,4.241,8.489,6.014s2.832,2.832,3.533,7.781,4.241,24.043,4.241,24.043l14.146-4.949S305.164,125,304.1,122.88s-2.832-5.657-2.832-7.073-.708-8.839-6.365-6.365c0,0-2.124-1.766-3.182,0,0,0-1.766-1.766-2.832.708A2.4,2.4,0,0,0,286.069,112.618Z" transform="translate(-284.419 -108.658)" fill="#ff9168"/>
      </g>
      <g id="Grupo_74" data-name="Grupo 74" transform="translate(120.64 71.476)">
        <path id="Trazado_90" data-name="Trazado 90" d="M163.69,129.815s16.393-18.208,18.868-21.04,4.949-5.306,6.014-7.073,3.182-7.781,7.781-4.241c0,0,2.124-.708,3.182.708,0,0,2.474-.708,2.832,1.766,0,0,2.124.351,1.416,3.89,0,0,1.416,3.182.708,4.241a9.921,9.921,0,0,1-6.365,3.182c-2.474,0-5.657-.351-6.715.708S175.5,139.183,175.5,139.183Z" transform="translate(-163.69 -96.365)" fill="#ff9168"/>
      </g>
      <g id="Grupo_76" data-name="Grupo 76" transform="translate(207.926 82.112)">
        <g id="Grupo_75" data-name="Grupo 75">
          <path id="Trazado_91" data-name="Trazado 91" d="M294.543,118.088a2.667,2.667,0,0,1-1.691-.591c-1.931-1.526-2.158-5.471-2.172-5.636l.351-.021c0,.041.227,3.952,2.035,5.382a2.363,2.363,0,0,0,1.945.474l.412-.412.117.069a2.375,2.375,0,0,0,1.56.309,1.032,1.032,0,0,0,.66-.591l.11-.22.172.172a.551.551,0,0,0,.419.124,1.758,1.758,0,0,0,1.086-.811,5.055,5.055,0,0,0,.674-3.4l-.089-.543.392.385a2.315,2.315,0,0,0,1.292.653v.351a2.191,2.191,0,0,1-1.2-.467,5,5,0,0,1-.784,3.224,2.05,2.05,0,0,1-1.354.955.989.989,0,0,1-.495-.1,1.356,1.356,0,0,1-.784.6,2.5,2.5,0,0,1-1.718-.282l-.3.3-.055.007A2.464,2.464,0,0,1,294.543,118.088Z" transform="translate(-290.68 -111.84)" fill="#e14e3c"/>
        </g>
      </g>
      <g id="Grupo_78" data-name="Grupo 78" transform="translate(210.758 81.384)">
        <g id="Grupo_77" data-name="Grupo 77" transform="translate(0)">
          <path id="Trazado_92" data-name="Trazado 92" d="M296.594,117.275c-.715-1.079-1.753-6.214-1.794-6.427l.344-.069c.014.055,1.059,5.279,1.739,6.3Z" transform="translate(-294.8 -110.78)" fill="#e14e3c"/>
        </g>
      </g>
      <g id="Grupo_80" data-name="Grupo 80" transform="translate(213.94 81.398)">
        <g id="Grupo_79" data-name="Grupo 79">
          <path id="Trazado_93" data-name="Trazado 93" d="M300.667,117.007c-.179,0-.509,0-1.237-6.165l.351-.041a37.518,37.518,0,0,0,.976,5.891.137.137,0,0,0-.089-.034v.351Z" transform="translate(-299.43 -110.8)" fill="#e14e3c"/>
        </g>
      </g>
      <g id="Grupo_82" data-name="Grupo 82" transform="translate(205.17 82.086)">
        <g id="Grupo_81" data-name="Grupo 81">
          <path id="Trazado_94" data-name="Trazado 94" d="M290.7,119.141a1.352,1.352,0,0,1-.447-.069c-1.217-.406-1.526-2-.818-4.262.447-1.43-.144-2.392-.7-2.619-.089-.034-.3-.1-.385.076a5.1,5.1,0,0,1-1.478,1.485l-.2-.3a4.846,4.846,0,0,0,1.354-1.347.607.607,0,0,1,.832-.241c.687.275,1.423,1.4.907,3.052-.639,2.055-.419,3.485.591,3.822a3.351,3.351,0,0,0,1.615-.2,4.138,4.138,0,0,1,3.189.007l-.179.309a3.875,3.875,0,0,0-2.921.034A6.1,6.1,0,0,1,290.7,119.141Z" transform="translate(-286.67 -111.802)" fill="#e14e3c"/>
        </g>
      </g>
      <g id="Grupo_84" data-name="Grupo 84" transform="translate(208.002 88.058)">
        <g id="Grupo_83" data-name="Grupo 83">
          <path id="Trazado_95" data-name="Trazado 95" d="M292.034,121.363a2.192,2.192,0,0,1-1.244-.406l.2-.3a1.791,1.791,0,0,0,2.309-.172l.254.247A2.3,2.3,0,0,1,292.034,121.363Z" transform="translate(-290.79 -120.49)" fill="#e14e3c"/>
        </g>
      </g>
      <g id="Grupo_86" data-name="Grupo 86" transform="translate(147.464 73.405)">
        <g id="Grupo_85" data-name="Grupo 85">
          <path id="Trazado_96" data-name="Trazado 96" d="M211.729,107.708a1.5,1.5,0,0,1-1.567-1.306,1.773,1.773,0,0,1-1.388.151,1.921,1.921,0,0,1-1.031-.942,2.314,2.314,0,0,1-2.124-.275,1.464,1.464,0,0,1-.44-1.024,1.648,1.648,0,0,1-1.2.2,1.421,1.421,0,0,1-.894-.8c-.337-.68.845-3.237,1.3-4.165a3.958,3.958,0,0,0-1.333,1.691.18.18,0,1,1-.323-.158,8.956,8.956,0,0,1,.632-1.045c.529-.729.99-1,1.368-.8l.158.082-.082.158c-.715,1.437-1.629,3.65-1.416,4.083a1.116,1.116,0,0,0,.667.612,1.519,1.519,0,0,0,1.2-.323l.337-.227-.062.4a1.309,1.309,0,0,0,.316,1.059,2.1,2.1,0,0,0,1.938.158l.151-.034.055.144a1.681,1.681,0,0,0,.887.88,1.6,1.6,0,0,0,1.333-.254l.268-.158v.309a1.206,1.206,0,0,0,1.237,1.237c1.2,0,1.237-.516,1.237-.536a.181.181,0,0,1,.179-.172h.007a.17.17,0,0,1,.172.172C213.317,106.862,213.3,107.708,211.729,107.708Z" transform="translate(-202.715 -99.172)" fill="#e14e3c"/>
        </g>
      </g>
      <g id="Grupo_88" data-name="Grupo 88" transform="translate(149.939 72.748)">
        <g id="Grupo_87" data-name="Grupo 87">
          <path id="Trazado_97" data-name="Trazado 97" d="M206.49,103.875a.138.138,0,0,1-.089-.027.178.178,0,0,1-.062-.241l3.182-5.306a.176.176,0,0,1,.3.179l-3.182,5.306A.165.165,0,0,1,206.49,103.875Z" transform="translate(-206.316 -98.216)" fill="#e14e3c"/>
        </g>
      </g>
      <g id="Grupo_90" data-name="Grupo 90" transform="translate(152.411 73.454)">
        <g id="Grupo_89" data-name="Grupo 89">
          <path id="Trazado_98" data-name="Trazado 98" d="M210.09,105.613a.158.158,0,0,1-.1-.027.186.186,0,0,1-.055-.247l3.89-6.014a.179.179,0,0,1,.3.192l-3.89,6.014A.181.181,0,0,1,210.09,105.613Z" transform="translate(-209.913 -99.243)" fill="#e14e3c"/>
        </g>
      </g>
      <g id="Grupo_92" data-name="Grupo 92" transform="translate(154.886 75.228)">
        <g id="Grupo_91" data-name="Grupo 91">
          <path id="Trazado_99" data-name="Trazado 99" d="M213.69,107.127a.169.169,0,0,1-.11-.041.175.175,0,0,1-.027-.247l3.89-4.949a.176.176,0,1,1,.275.22l-3.89,4.949A.179.179,0,0,1,213.69,107.127Z" transform="translate(-213.513 -101.823)" fill="#e14e3c"/>
        </g>
      </g>
      <g id="Grupo_94" data-name="Grupo 94" transform="translate(149.938 75.94)">
        <g id="Grupo_93" data-name="Grupo 93">
          <path id="Trazado_100" data-name="Trazado 100" d="M212.051,109.644a2.13,2.13,0,0,1-.66-.1,5.193,5.193,0,0,1-1.079-.612c-1.113-.742-2.5-1.67-3.7-.474a.175.175,0,1,1-.247-.247c1.4-1.4,2.99-.344,4.145.426a4.787,4.787,0,0,0,.99.57,2.407,2.407,0,0,0,2.612-1.072l.062-.137a1.045,1.045,0,0,0,.082-.213,4.153,4.153,0,0,1-.158-1.54c0-2.227,1.5-3.389,2.3-3.389.818,0,.887,2.3.887,3a.179.179,0,0,1-.357,0c0-1.416-.247-2.653-.529-2.653-.584,0-1.945,1.031-1.945,3.031a4.241,4.241,0,0,0,.124,1.4c.055.158.034.213-.082.488l-.055.137A2.731,2.731,0,0,1,212.051,109.644Z" transform="translate(-206.315 -102.86)" fill="#e14e3c"/>
        </g>
      </g>
      <g id="Grupo_95" data-name="Grupo 95" transform="translate(153.296 140.461)">
        <path id="Trazado_101" data-name="Trazado 101" d="M213.324,199.562,211.2,210.876l26.167-1.416-.3-9.9-6.777-2.832-6.014,2.124-6.42,4.949-1-4.949Z" transform="translate(-211.2 -196.73)" fill="#ffd59b"/>
      </g>
      <g id="Grupo_96" data-name="Grupo 96" transform="translate(110.34 104.556)">
        <path id="Trazado_102" data-name="Trazado 102" d="M277.585,174.741a17.636,17.636,0,0,1-6.014,7.073c-4.241,2.832-13.788,14.853-14.853,15.912s-13.788,11.671-15.2,14.146-12.551,30.937-12.551,30.937H168.847s1.237-6.894,1.945-11.135,3.182-24.751,3.182-24.751-5.306-12.73-9.2-18.036-10.963-19.094-12.022-21.218-7.073-8.131-2.124-12.022c0,0-2.474,0-1.416-1.766s4.6-6.715,4.6-6.715,2.124-3.533,4.949-2.474,13.08,9.2,13.08,9.2.708,1.766,0,2.474l-2.474,2.474s7.781,13.438,9.2,15.561,5.657,10.606,15.561,8.839c0,0-2.124,8.489,3.533,9.547s14.585-2.832,20.552-9.547l2.076,1.059s11.671,2.474,14.853,1.059,4.949-1.766,9.2-4.241,14.145-9.547,14.145-9.547-2.832-3.182-1.766-4.241,14.853-6.365,17.328-6.014,2.474,5.306,2.474,5.306S279.709,171.916,277.585,174.741Z" transform="translate(-148.704 -144.492)" fill="#5944c6"/>
      </g>
      <g id="Grupo_97" data-name="Grupo 97" transform="translate(110.953 104.205)">
        <path id="Trazado_103" data-name="Trazado 103" d="M172.494,155.844l-2.474,2.474s-6.014-.708-9.2-1.416-9.547-1.766-9.547-1.766-2.474,0-1.416-1.766,4.6-6.715,4.6-6.715,2.124-3.533,4.949-2.474,13.08,9.2,13.08,9.2S173.2,155.136,172.494,155.844Z" transform="translate(-149.597 -143.982)" fill="#3c32a0"/>
      </g>
      <g id="Grupo_98" data-name="Grupo 98" transform="translate(218.471 120.999)">
        <path id="Trazado_104" data-name="Trazado 104" d="M326.063,173.739l-18.036,4.949s-2.832-3.182-1.766-4.241,14.853-6.365,17.328-6.014S326.063,173.739,326.063,173.739Z" transform="translate(-306.021 -168.416)" fill="#3c32a0"/>
      </g>
      <g id="Grupo_99" data-name="Grupo 99" transform="translate(38.022 135.87)">
        <path id="Trazado_105" data-name="Trazado 105" d="M129.772,190.05v51.626l-4.069-.034-82.213-.674V190.05Z" transform="translate(-43.49 -190.05)" fill="#4a3f72"/>
      </g>
      <g id="Grupo_100" data-name="Grupo 100" transform="translate(120.235 135.87)">
        <path id="Trazado_106" data-name="Trazado 106" d="M167.169,190.05v51.626l-4.069-.034V190.05Z" transform="translate(-163.1 -190.05)" fill="#7ac8ff"/>
      </g>
      <g id="Grupo_101" data-name="Grupo 101" transform="translate(91.414 181.832)">
        <rect id="Rect치ngulo_142" data-name="Rect치ngulo 142" width="10.606" height="3.533" fill="#36304c"/>
      </g>
      <g id="Grupo_102" data-name="Grupo 102" transform="translate(70.554 149.307)">
        <path id="Trazado_107" data-name="Trazado 107" d="M116.987,263.233v.213H90.82V209.6h14.31l-.082,37.838h-3.217l-.055,12.372,11.788.007A3.417,3.417,0,0,1,116.987,263.233Z" transform="translate(-90.82 -209.6)" fill="#62699c"/>
      </g>
      <g id="Grupo_103" data-name="Grupo 103" transform="translate(82.933 149.307)">
        <path id="Trazado_108" data-name="Trazado 108" d="M110.761,209.6l-.082,37.838H108.83V209.6Z" transform="translate(-108.83 -209.6)" fill="#cdd7ec"/>
      </g>
      <g id="Grupo_104" data-name="Grupo 104" transform="translate(93.181 182.898)">
        <circle id="Elipse_28" data-name="Elipse 28" cx="0.708" cy="0.708" r="0.708" fill="#62699c"/>
      </g>
      <g id="Grupo_105" data-name="Grupo 105" transform="translate(96.363 182.898)">
        <circle id="Elipse_29" data-name="Elipse 29" cx="0.708" cy="0.708" r="0.708" fill="#62699c"/>
      </g>
      <g id="Grupo_106" data-name="Grupo 106" transform="translate(99.546 182.898)">
        <circle id="Elipse_30" data-name="Elipse 30" cx="0.708" cy="0.708" r="0.708" fill="#62699c"/>
      </g>
      <g id="Grupo_108" data-name="Grupo 108" transform="translate(89.366 183.43)">
        <g id="Grupo_107" data-name="Grupo 107">
          <path id="Trazado_109" data-name="Trazado 109" d="M121.194,302.1a.183.183,0,0,1-.137-.062c-2.736-3.292-3.519-7.361-2.323-12.1a31.638,31.638,0,0,1,5.251-10.468c2.969-4.048.935-6.1-1.217-8.269a17.738,17.738,0,0,1-1.615-1.78c-2.165-2.88,1.251-9.795,1.4-10.083a.18.18,0,0,1,.323.158c-.034.069-3.464,7-1.43,9.719a16.605,16.605,0,0,0,1.581,1.739c2.062,2.076,4.392,4.433,1.251,8.722-8.709,11.87-5.581,18.964-2.942,22.132a.175.175,0,0,1-.021.247A.187.187,0,0,1,121.194,302.1Z" transform="translate(-118.19 -259.245)" fill="#191717"/>
        </g>
      </g>
      <g id="Grupo_110" data-name="Grupo 110" transform="translate(98.287 183.438)">
        <g id="Grupo_109" data-name="Grupo 109">
          <path id="Trazado_110" data-name="Trazado 110" d="M137.926,302.458a.152.152,0,0,1-.055-.007.167.167,0,0,1-.11-.22c.955-2.921-.832-7.5-2.653-10.537-1.959-3.265-2.646-5.9-.351-9.726,2.3-3.842-1.56-10.929-2.832-13.259-2.145-3.932.935-9.149,1.065-9.368a.176.176,0,0,1,.3.179c-.034.055-3.107,5.265-1.059,9.018,3.519,6.461,4.447,10.908,2.825,13.609-1.966,3.279-1.876,5.643.351,9.368,1.863,3.1,3.677,7.794,2.688,10.826A.187.187,0,0,1,137.926,302.458Z" transform="translate(-131.169 -259.256)" fill="#191717"/>
        </g>
      </g>
      <g id="Grupo_112" data-name="Grupo 112" transform="translate(91.162 183.436)">
        <g id="Grupo_111" data-name="Grupo 111">
          <path id="Trazado_111" data-name="Trazado 111" d="M127.324,302.1H127.3a.178.178,0,0,1-.151-.2c.014-.1,1.471-9.966-1.3-14.805a33.03,33.03,0,0,0-2.557-3.7c-2.055-2.7-3.684-4.832-1.313-7.465a27.473,27.473,0,0,1,2.385-2.309c1.773-1.567,2.66-2.351,2.165-5.32l-.151-.894c-.66-3.9-1.134-6.722.2-8.1a.175.175,0,1,1,.254.241c-1.21,1.251-.722,4.138-.1,7.794l.151.894c.529,3.162-.474,4.042-2.282,5.643a26.85,26.85,0,0,0-2.358,2.282c-2.172,2.413-.777,4.241,1.327,7.011a34.345,34.345,0,0,1,2.584,3.746c2.825,4.949,1.4,14.627,1.34,15.039A.155.155,0,0,1,127.324,302.1Z" transform="translate(-120.803 -259.254)" fill="#191717"/>
        </g>
      </g>
      <g id="Grupo_113" data-name="Grupo 113" transform="translate(79.709 161.707)">
        <path id="Trazado_112" data-name="Trazado 112" d="M105.948,228.32,106,253.079l-.048,12.372-1.808,3.643V227.64Z" transform="translate(-104.14 -227.64)" fill="#36304c"/>
      </g>
      <g id="Grupo_114" data-name="Grupo 114" transform="translate(72.32 161.679)">
        <path id="Trazado_113" data-name="Trazado 113" d="M93.39,227.6v41.481h7.389V227.627Z" transform="translate(-93.39 -227.6)" fill="#4a3f72"/>
      </g>
      <g id="Grupo_116" data-name="Grupo 116" transform="translate(137.029 145.412)">
        <g id="Grupo_115" data-name="Grupo 115">
          <path id="Trazado_114" data-name="Trazado 114" d="M187.889,223.032a.4.4,0,0,1-.089-.014.358.358,0,0,1-.254-.433c.034-.124,3.3-12.207,11.08-18.572a.352.352,0,0,1,.447.543c-7.6,6.22-10.812,18.084-10.846,18.2A.344.344,0,0,1,187.889,223.032Z" transform="translate(-187.534 -203.933)" fill="#3c32a0"/>
        </g>
      </g>
      <g id="Grupo_118" data-name="Grupo 118" transform="translate(193.966 148.242)">
        <g id="Grupo_117" data-name="Grupo 117">
          <path id="Trazado_115" data-name="Trazado 115" d="M279.91,231.743a.4.4,0,0,1-.089-.014c-3.952-1.065-6.743-5.334-8.3-12.688a58.742,58.742,0,0,1-1.155-10.64.351.351,0,1,1,.7,0c0,.2.1,20.263,8.929,22.641a.351.351,0,0,1,.247.433A.338.338,0,0,1,279.91,231.743Z" transform="translate(-270.37 -208.05)" fill="#3c32a0"/>
        </g>
      </g>
      <g id="Grupo_120" data-name="Grupo 120" transform="translate(153.104 144.712)">
        <g id="Grupo_119" data-name="Grupo 119">
          <path id="Trazado_116" data-name="Trazado 116" d="M219.361,214.816a10.625,10.625,0,0,1-1.89-.165c-2.866-.509-4.825-1.732-5.815-3.622-1.725-3.292.117-7.389.192-7.561a.352.352,0,1,1,.639.3c-.021.041-1.773,3.952-.206,6.942.887,1.684,2.674,2.784,5.313,3.251,9.2,1.643,21.424-10.812,21.548-10.936a.355.355,0,1,1,.509.495,56.859,56.859,0,0,1-7.423,6.2C227.341,213.1,223.024,214.816,219.361,214.816Z" transform="translate(-210.92 -202.915)" fill="#3c32a0"/>
        </g>
      </g>
      <g id="Grupo_121" data-name="Grupo 121" transform="translate(156.657 141.526)">
        <path id="Trazado_117" data-name="Trazado 117" d="M216.09,199.517l3.533,6.014s4.681-3.712,6.145-3.182A24.19,24.19,0,0,1,230.009,205l-3.664-5.478-6.186,4.77-.351.351-1.766-6.365Z" transform="translate(-216.09 -198.28)" fill="#ef8a3d"/>
      </g>
      <g id="Grupo_122" data-name="Grupo 122" transform="translate(150.822 137.987)">
        <path id="Trazado_118" data-name="Trazado 118" d="M207.6,199.495s7.251-3.712,7.953-5.128,1.595,7.6,1.595,7.6l6.014-4.949,8.131-3.89s2.474,4.6,6.014,4.949l-8.489,7.781-6.014-7.073-5.657,4.241-2.124-5.657C215.023,197.378,210.425,200.911,207.6,199.495Z" transform="translate(-207.6 -193.13)" fill="#f7b971"/>
      </g>
      <g id="Grupo_124" data-name="Grupo 124" transform="translate(160.547 115.481)">
        <g id="Grupo_123" data-name="Grupo 123">
          <path id="Trazado_119" data-name="Trazado 119" d="M222.279,162.561a.529.529,0,0,1-.33-.942c.082-.062,1.993-1.574,3.643-1.162a.532.532,0,1,1-.261,1.031,3.959,3.959,0,0,0-2.722.962A.53.53,0,0,1,222.279,162.561Z" transform="translate(-221.75 -160.386)" fill="#2e2422"/>
        </g>
      </g>
      <g id="Grupo_126" data-name="Grupo 126" transform="translate(167.015 116.603)">
        <g id="Grupo_125" data-name="Grupo 125">
          <path id="Trazado_120" data-name="Trazado 120" d="M234.411,165.2a.53.53,0,0,1-.44-.234,8.393,8.393,0,0,0-2.529-1.945.529.529,0,1,1,.495-.935,9.591,9.591,0,0,1,2.914,2.3.531.531,0,0,1-.144.735A.565.565,0,0,1,234.411,165.2Z" transform="translate(-231.159 -162.019)" fill="#2e2422"/>
        </g>
      </g>
      <g id="Grupo_128" data-name="Grupo 128" transform="translate(161.588 120.135)">
        <g id="Grupo_127" data-name="Grupo 127">
          <path id="Trazado_121" data-name="Trazado 121" d="M224.993,172.961a2.278,2.278,0,0,1-1.663-.55c-.3-.3.406-2.035,2.09-5.162a.178.178,0,0,1,.241-.069.172.172,0,0,1,.069.241c-1.12,2.083-2.227,4.433-2.131,4.77.454.44,1.327.543,2.653.275a.177.177,0,0,1,.206.137.173.173,0,0,1-.137.206A7.066,7.066,0,0,1,224.993,172.961Z" transform="translate(-223.264 -167.158)" fill="#e14e3c"/>
        </g>
      </g>
      <g id="Grupo_130" data-name="Grupo 130" transform="translate(165.845 120.465)">
        <g id="Grupo_129" data-name="Grupo 129">
          <path id="Trazado_122" data-name="Trazado 122" d="M233.171,169.784a.169.169,0,0,1-.165-.124c-.653-1.959-3.32-1.65-3.347-1.65a.177.177,0,0,1-.048-.351c.027-.007,2.983-.344,3.725,1.89a.188.188,0,0,1-.11.227C233.212,169.777,233.191,169.784,233.171,169.784Z" transform="translate(-229.457 -167.638)" fill="#191717"/>
        </g>
      </g>
      <g id="Grupo_132" data-name="Grupo 132" transform="translate(160.199 118.939)">
        <g id="Grupo_131" data-name="Grupo 131">
          <path id="Trazado_123" data-name="Trazado 123" d="M223.887,166.966a.179.179,0,0,1-.165-.11,1.673,1.673,0,0,0-2.241-.962.174.174,0,0,1-.131-.323,2.365,2.365,0,0,1,1.65,0,2,2,0,0,1,1.052,1.155.175.175,0,0,1-.1.227A.243.243,0,0,1,223.887,166.966Z" transform="translate(-221.242 -165.418)" fill="#191717"/>
        </g>
      </g>
      <g id="Grupo_133" data-name="Grupo 133" transform="translate(160.062 126.446)">
        <path id="Trazado_124" data-name="Trazado 124" d="M223.467,177.983c-1.382-.461-2.151-1.828-2.316-1.622a2.647,2.647,0,0,0,2.316,3.389,4.247,4.247,0,0,0,4.241-2.124S224.533,178.333,223.467,177.983Z" transform="translate(-221.043 -176.339)" fill="#fff"/>
      </g>
      <g id="Grupo_134" data-name="Grupo 134" transform="translate(159.056 130.226)">
        <path id="Trazado_125" data-name="Trazado 125" d="M235.382,181.84c-3.9,7.76-15.8,8.351-15.8,8.351a21.287,21.287,0,0,1,.955-4.481C231.2,188.81,235.169,182.211,235.382,181.84Z" transform="translate(-219.58 -181.84)" fill="#e14e3c"/>
      </g>
      <g id="Grupo_366" data-name="Grupo 366" transform="translate(198.124 164.683)">
        <g id="Grupo_351" data-name="Grupo 351" transform="translate(17.019 3.354)">
          <path id="Trazado_186" data-name="Trazado 186" d="M310.308,236.85c.165.454,2.021,5.877-1.78,12.276a7.97,7.97,0,0,1-6.152,4.158,7.973,7.973,0,0,1-.57-7.4C304.445,238.933,309.848,237.008,310.308,236.85Z" transform="translate(-301.18 -236.85)" fill="#80c56e"/>
        </g>
        <g id="Grupo_352" data-name="Grupo 352" transform="translate(18.215 3.354)">
          <path id="Trazado_187" data-name="Trazado 187" d="M310.852,236.85l-7.932,16.434h0a7.961,7.961,0,0,0,6.152-4.158C312.866,242.734,311.017,237.311,310.852,236.85Z" transform="translate(-302.92 -236.85)" fill="#66ad66"/>
        </g>
        <g id="Grupo_353" data-name="Grupo 353" transform="translate(15.316 17.106)">
          <path id="Trazado_188" data-name="Trazado 188" d="M302.56,261.256l.247-.509a.1.1,0,0,1-.021-.027C302.629,261.077,302.56,261.256,302.56,261.256Z" transform="translate(-299.908 -258.065)" fill="#fff"/>
          <path id="Trazado_189" data-name="Trazado 189" d="M301.354,262.7a2.611,2.611,0,0,1-1.079-.234,2.658,2.658,0,0,1-1.375-3.43s.082-.192.241-.57a2.657,2.657,0,0,1,4.605-.495,2.713,2.713,0,0,1,.247,2.715l-.247.509A2.653,2.653,0,0,1,301.354,262.7Z" transform="translate(-298.702 -256.858)"/>
        </g>
        <g id="Grupo_354" data-name="Grupo 354" transform="translate(3.011 3.354)">
          <path id="Trazado_190" data-name="Trazado 190" d="M281.4,236.85c-.165.454-2.021,5.877,1.78,12.276a7.97,7.97,0,0,0,6.152,4.158,7.973,7.973,0,0,0,.57-7.4C287.261,238.933,281.859,237.008,281.4,236.85Z" transform="translate(-280.801 -236.85)" fill="#80c56e"/>
        </g>
        <g id="Grupo_355" data-name="Grupo 355" transform="translate(3.616 3.354)">
          <path id="Trazado_191" data-name="Trazado 191" d="M290.182,245.882c-2.646-6.956-8.042-8.874-8.5-9.032,4.695,8.963,7.224,14.7,7.953,16.407A8,8,0,0,0,290.182,245.882Z" transform="translate(-281.68 -236.85)" fill="#66ad66"/>
        </g>
        <g id="Grupo_356" data-name="Grupo 356" transform="translate(8.7)">
          <path id="Trazado_192" data-name="Trazado 192" d="M295.252,231.97c-.564.55-7.1,7.176-6.062,19.211.632,7.313,5.574,10.159,6.062,10.427.488-.268,5.43-3.114,6.062-10.427C302.359,239.146,295.822,232.52,295.252,231.97Z" transform="translate(-289.078 -231.97)" fill="#80c56e"/>
        </g>
        <g id="Grupo_357" data-name="Grupo 357" transform="translate(14.874)">
          <path id="Trazado_193" data-name="Trazado 193" d="M298.06,231.97V261.6c.488-.268,5.43-3.114,6.062-10.427C305.167,239.146,298.63,232.52,298.06,231.97Z" transform="translate(-298.06 -231.97)" fill="#66ad66"/>
        </g>
        <g id="Grupo_358" data-name="Grupo 358" transform="translate(14.874 10.269)">
          <path id="Trazado_194" data-name="Trazado 194" d="M312.061,255.069a23.646,23.646,0,0,0,.811-8.159,74.695,74.695,0,0,0-8.324,4.9c-4.626,2.99-6.062,8.234-6.488,9.643H303.5A8.9,8.9,0,0,0,312.061,255.069Z" transform="translate(-298.06 -246.91)" fill="#80c56e"/>
        </g>
        <g id="Grupo_359" data-name="Grupo 359" transform="translate(14.874 10.269)">
          <path id="Trazado_195" data-name="Trazado 195" d="M312.872,246.91s-6.117,12.083-14.812,14.551H303.5a8.908,8.908,0,0,0,8.557-6.392A23.556,23.556,0,0,0,312.872,246.91Z" transform="translate(-298.06 -246.91)" fill="#66ad66"/>
        </g>
        <g id="Grupo_360" data-name="Grupo 360" transform="translate(0 10.269)">
          <path id="Trazado_196" data-name="Trazado 196" d="M277.3,255.069a23.645,23.645,0,0,1-.811-8.159,74.694,74.694,0,0,1,8.324,4.9c4.626,2.99,6.062,8.234,6.488,9.643h-5.437A8.9,8.9,0,0,1,277.3,255.069Z" transform="translate(-276.42 -246.91)" fill="#80c56e"/>
        </g>
        <g id="Grupo_361" data-name="Grupo 361" transform="translate(0.062 10.276)">
          <path id="Trazado_197" data-name="Trazado 197" d="M291.322,261.464c-.426-1.416-1.863-6.653-6.488-9.643a73.183,73.183,0,0,0-8.324-4.9S282.634,259,291.322,261.464Z" transform="translate(-276.51 -246.92)" fill="#66ad66"/>
        </g>
        <g id="Grupo_362" data-name="Grupo 362" transform="translate(5.011 25.122)">
          <path id="Trazado_198" data-name="Trazado 198" d="M297.512,281.126h-7.863a4.319,4.319,0,0,1-4.255-3.54l-1.684-9.066h19.754l-1.684,9.066A4.363,4.363,0,0,1,297.512,281.126Z" transform="translate(-283.71 -268.52)" fill="#fec37d"/>
        </g>
        <g id="Grupo_363" data-name="Grupo 363" transform="translate(14.998 25.122)">
          <path id="Trazado_199" data-name="Trazado 199" d="M304.179,268.52l-1.684,9.066a4.331,4.331,0,0,1-4.255,3.54h3.822a4.319,4.319,0,0,0,4.255-3.54L308,268.52Z" transform="translate(-298.24 -268.52)" fill="#f9ae5d"/>
        </g>
        <g id="Grupo_364" data-name="Grupo 364" transform="translate(3.155 24.16)">
          <path id="Trazado_200" data-name="Trazado 200" d="M302.95,270.117H282.508a1.5,1.5,0,0,1-1.5-1.5h0a1.5,1.5,0,0,1,1.5-1.5H302.95a1.5,1.5,0,0,1,1.5,1.5h0A1.493,1.493,0,0,1,302.95,270.117Z" transform="translate(-281.01 -267.12)" fill="#f2a559"/>
        </g>
        <g id="Grupo_365" data-name="Grupo 365" transform="translate(22.689 24.16)">
          <path id="Trazado_201" data-name="Trazado 201" d="M311.836,267.12H309.43v3h2.406a1.5,1.5,0,0,0,1.5-1.5h0A1.489,1.489,0,0,0,311.836,267.12Z" transform="translate(-309.43 -267.12)" fill="#ea8f3d"/>
        </g>
      </g>
    </g>
  </g>
</svg>
