<svg xmlns="http://www.w3.org/2000/svg" width="189.128" height="111.615" viewBox="0 0 189.128 111.615">
  <g id="Illustration" transform="translate(-139.306 -77.819)">
    <g id="_4118381_car_controller_part_steering_wheel_icon" data-name="4118381_car_controller_part_steering_wheel_icon" transform="translate(298.422 163.682) rotate(-9)">
      <path id="Trazado_202" data-name="Trazado 202" d="M13.616,1A12.616,12.616,0,1,0,26.231,13.616,12.63,12.63,0,0,0,13.616,1Zm0,24.417a11.8,11.8,0,1,1,11.8-11.8A11.815,11.815,0,0,1,13.616,25.417Z"/>
      <path id="Trazado_203" data-name="Trazado 203" d="M23.97,31.7h5.385l.949-4.085a1.39,1.39,0,0,0,.022-.241A1.373,1.373,0,0,0,28.954,26H24.371A1.373,1.373,0,0,0,23,27.371a1.407,1.407,0,0,0,.026.261Zm.4-4.883h4.583a.558.558,0,0,1,.557.557.671.671,0,0,1,0,.077l-.8,3.436H24.616l-.794-3.416a.506.506,0,0,1-.009-.1A.558.558,0,0,1,24.371,26.814Z" transform="translate(-13.047 -14.826)"/>
      <path id="Trazado_204" data-name="Trazado 204" d="M48.628,29h-.814a.815.815,0,0,0-.814.814v.814a.815.815,0,0,0,.814.814h.814a.815.815,0,0,0,.814-.814v-.814A.815.815,0,0,0,48.628,29Zm-.814,1.628v-.814h.814v.814Z" transform="translate(-27.28 -16.605)"/>
      <rect id="Rectángulo_143" data-name="Rectángulo 143" width="0.763" height="0.763" transform="translate(5.983 12.089)"/>
      <rect id="Rectángulo_144" data-name="Rectángulo 144" width="0.763" height="0.763" transform="translate(5.983 14.379)"/>
      <rect id="Rectángulo_145" data-name="Rectángulo 145" width="0.763" height="1.527" transform="translate(6.746 12.852)"/>
      <rect id="Rectángulo_146" data-name="Rectángulo 146" width="0.763" height="1.527" transform="translate(5.219 12.852)"/>
      <path id="Trazado_205" data-name="Trazado 205" d="M30.221,32.442A1.221,1.221,0,1,0,29,31.221,1.222,1.222,0,0,0,30.221,32.442Zm0-1.628a.407.407,0,1,1-.407.407A.407.407,0,0,1,30.221,30.814Z" transform="translate(-16.605 -17.198)"/>
      <path id="Trazado_206" data-name="Trazado 206" d="M17.174,7a10.144,10.144,0,0,0-6.891,2.691l.551.6a9.358,9.358,0,0,1,15.255,4.035H21.875a2.994,2.994,0,0,0-2.41-1.221H14.882a2.994,2.994,0,0,0-2.41,1.221H8.266a9.334,9.334,0,0,1,2.024-3.491l-.6-.551A10.172,10.172,0,0,0,24.065,24.657l-.551-.6a9.325,9.325,0,0,1-4.229,2.226l.173-1.555a5.284,5.284,0,0,1,5.257-4.706h1.367a9.334,9.334,0,0,1-2.024,3.491l.6.551A10.173,10.173,0,0,0,17.174,7Zm-2.292,6.918h4.583A2.187,2.187,0,0,1,21.65,16.1a2.157,2.157,0,0,1-.04.416L20.733,20.3a1.216,1.216,0,0,1-1.19.945H14.8a1.216,1.216,0,0,1-1.19-.945l-.875-3.768A2.146,2.146,0,0,1,12.7,16.1,2.187,2.187,0,0,1,14.882,13.918Zm-2.837,1.221a2.98,2.98,0,0,0-.162.964,3.024,3.024,0,0,0,.061.6l.777,3.347a6.078,6.078,0,0,0-3.089-.842H8.039a9.166,9.166,0,0,1,.007-4.07ZM8.259,20.023H9.633a5.285,5.285,0,0,1,5.258,4.706l.174,1.562A9.391,9.391,0,0,1,8.259,20.023Zm10.389,4.616-.2,1.8a8.809,8.809,0,0,1-2.548.008l-.2-1.806a6.1,6.1,0,0,0-.9-2.583h4.756A6.089,6.089,0,0,0,18.648,24.639Zm6.067-5.43a6.085,6.085,0,0,0-3.089.842l.78-3.358a2.964,2.964,0,0,0-.1-1.553h4.006a9.166,9.166,0,0,1-.007,4.07Z" transform="translate(-3.558 -3.558)"/>
    </g>
    <g id="People" transform="matrix(0.966, 0.259, -0.259, 0.966, 221.595, 77.818)">
      <g id="Icon-7" transform="translate(0 0)">
        <path id="bag" d="M18.766,7.747a1.106,1.106,0,0,1-.738,1.04v1.545a4.43,4.43,0,1,1-8.86,0V8.786a1.107,1.107,0,1,1,.738,0v1.545a3.692,3.692,0,1,0,7.383,0V8.786a1.105,1.105,0,1,1,1.477-1.039M20.35,2.839l1.575,1.586H5.26L6.845,2.84a.369.369,0,0,0,0-.522L5.262.739H21.934L20.351,2.317a.369.369,0,0,0,0,.522m1,18.572H5.846A1.112,1.112,0,0,1,4.738,20.3V5.163H22.458V20.3a1.112,1.112,0,0,1-1.107,1.113M22.827,3.317a.369.369,0,0,0,.369-.369V.37a.369.369,0,0,0-.228-.341A.358.358,0,0,0,22.829,0c-.006,0-.011,0-.017,0H4.369L4.355,0a.372.372,0,0,0-.127.025h0l-.007,0A.363.363,0,0,0,4.12.1C4.11.109,4.1.119,4.095.128a.375.375,0,0,0-.052.078c-.006.012-.012.023-.017.035A.371.371,0,0,0,4,.37V2.948a.369.369,0,0,0,.738,0V1.259l1.323,1.32L4.108,4.532a.373.373,0,0,0-.079.119A.365.365,0,0,0,4,4.793V20.3A1.851,1.851,0,0,0,5.846,22.15h15.5A1.851,1.851,0,0,0,23.2,20.3V4.809a.367.367,0,0,0-.107-.26l-.016-.016h0L21.133,2.58l1.324-1.321V2.948a.369.369,0,0,0,.369.369" transform="translate(-4 0)" fill-rule="evenodd"/>
      </g>
    </g>
    <g id="_976604_appliances_cell_phone_cellphone_mobile_mobilephone_icon" data-name="976604_appliances_cell phone_cellphone_mobile_mobilephone_icon" transform="translate(130.881 131.152) rotate(-11)">
      <path id="Trazado_212" data-name="Trazado 212" d="M16.745,3H9.619A1.619,1.619,0,0,0,8,4.619v13.6a1.619,1.619,0,0,0,1.619,1.619h7.125a1.619,1.619,0,0,0,1.619-1.619V4.619A1.619,1.619,0,0,0,16.745,3Zm.972,15.223a.972.972,0,0,1-.972.972H9.619a.972.972,0,0,1-.972-.972V4.619a.972.972,0,0,1,.972-.972h7.125a.972.972,0,0,1,.972.972Z" transform="translate(0 0)"/>
      <path id="Trazado_213" data-name="Trazado 213" d="M10,18.012h7.773V7H10Zm.648-10.364h6.478v9.717H10.648Z" transform="translate(-0.704 -1.409)"/>
      <circle id="Elipse_37" data-name="Elipse 37" cx="0.648" cy="0.648" r="0.648" transform="translate(12.534 17.251)"/>
      <rect id="Rectángulo_147" data-name="Rectángulo 147" width="2.591" height="0.648" transform="translate(11.887 4.296)"/>
    </g>
    <path id="_290114_clock_time_timer_watch_wrist_watch_icon" data-name="290114_clock_time_timer_watch_wrist watch_icon" d="M19.987,10.989c-.019,0-.037,0-.056-.006a5.987,5.987,0,0,1-2.341,3.993v2.805a1.6,1.6,0,0,1-1.6,1.6H12a1.6,1.6,0,0,1-1.6-1.6V14.977a5.977,5.977,0,0,1,0-9.573V2.6A1.6,1.6,0,0,1,12,1h4a1.6,1.6,0,0,1,1.6,1.6V5.4A5.986,5.986,0,0,1,19.931,9.4c.019,0,.037-.006.056-.006a.8.8,0,1,1,0,1.6ZM11.2,17.782a.8.8,0,0,0,.8.8h4a.8.8,0,0,0,.8-.8V15.489a5.98,5.98,0,0,1-5.594,0ZM16.791,2.6a.8.8,0,0,0-.8-.8H12a.8.8,0,0,0-.8.8V4.891a5.98,5.98,0,0,1,5.594,0ZM13.994,5a5.194,5.194,0,1,0,5.194,5.194A5.194,5.194,0,0,0,13.994,5Zm.4,6.32v2.471a.4.4,0,0,1-.8,0V11.315a1.183,1.183,0,0,1-.674-1.648L11.71,8.458a.39.39,0,0,1,.552-.552l1.209,1.209a1.195,1.195,0,1,1,.922,2.2Zm-.4-1.525a.4.4,0,1,0,.4.4A.4.4,0,0,0,13.994,9.791Z" transform="translate(212.927 128.034) rotate(-11)" fill-rule="evenodd"/>
  </g>
</svg>
